{"asset":{"version":"2.0","generator":"babylon.js glTF exporter for 3dsmax 2020 v20200415.4"},"scene":0,"scenes":[{"nodes":[0,17]}],"nodes":[{"children":[1,2,3,4,5,6,7,8,9,10,11,12,13,14,15,16],"name":"creature_5"},{"mesh":0,"translation":[5.420761,10.9550171,-7.88798428],"rotation":[-6.985228E-08,-0.37942782,0.9252213,-2.86460029E-08],"name":"Box014"},{"mesh":1,"translation":[1.53719378,13.0817795,-8.41603],"rotation":[-6.62857E-08,-0.478696018,0.8779807,-3.614055E-08],"name":"Box015"},{"mesh":2,"translation":[-2.22522378,11.4350357,-8.450217],"rotation":[-6.574046E-08,-0.491710663,0.8707587,-3.71231224E-08],"name":"Box016"},{"mesh":3,"translation":[1.53723288,-0.188079834,4.767068],"name":"Box017"},{"mesh":4,"translation":[1.57084036,3.956829,5.04109526],"name":"Box018"},{"mesh":5,"translation":[1.83050537,6.72714233,6.47728825],"rotation":[0.7773894,0.0,0.0,0.6290196],"name":"Box019"},{"mesh":6,"translation":[-1.21208382,7.494488,9.625053],"rotation":[0.3752086,0.4800464,-0.238141075,0.7563483],"scale":[1.00000012,1.0,1.00000012],"name":"Cone024"},{"mesh":7,"translation":[-1.81587481,8.22094,9.631751],"rotation":[0.225233942,0.364794284,-0.0914154947,0.898798048],"scale":[1.0,0.99999994,1.0],"name":"Cone025"},{"mesh":8,"translation":[-3.16394258,8.541294,8.8261795],"rotation":[0.05640429,-0.360121727,0.0218191724,0.930943],"scale":[1.0,1.00000012,1.0],"name":"Cone026"},{"mesh":9,"translation":[-4.74644041,7.93129349,8.075508],"rotation":[0.186107486,-0.7505038,0.237566784,0.5879372],"scale":[1.00000012,1.00000024,1.00000036],"name":"Cone027"},{"mesh":10,"translation":[-5.54407,6.943966,7.91815],"rotation":[0.354560077,-0.641342044,0.4337794,0.524216533],"scale":[0.99999994,0.99999994,1.00000024],"name":"Cone028"},{"mesh":11,"translation":[5.282858,-1.35464478,0.5418863],"rotation":[-0.6860023,-0.17146644,0.6860025,-0.1714664],"scale":[1.0,0.99999994,0.99999994],"name":"Cone029"},{"mesh":12,"translation":[-1.96250892,-1.12863159,3.34469056],"rotation":[0.6715567,-0.221385315,0.6715569,0.22138527],"name":"Cone030"},{"mesh":13,"translation":[-2.90212131,5.97011948,8.511318],"rotation":[0.6113128,-0.180549338,0.145882413,0.7565825],"scale":[0.895977437,0.895977,0.895977259],"name":"Sphere010"},{"mesh":14,"translation":[6.01851368,4.672779,6.983415],"rotation":[0.608250737,0.2598667,-0.220496446,0.7168554],"scale":[1.00000036,1.0,1.0],"name":"Sphere011"},{"mesh":15,"translation":[1.6521554,3.14816666,7.07211161],"rotation":[0.7071068,0.0,0.0,0.7071067],"name":"Tube002"},{"name":"Default light"}],"meshes":[{"primitives":[{"attributes":{"POSITION":1,"NORMAL":2,"TEXCOORD_0":3},"indices":0,"material":0}],"name":"Box014"},{"primitives":[{"attributes":{"POSITION":5,"NORMAL":6,"TEXCOORD_0":7},"indices":4,"material":0}],"name":"Box015"},{"primitives":[{"attributes":{"POSITION":9,"NORMAL":10,"TEXCOORD_0":11},"indices":8,"material":0}],"name":"Box016"},{"primitives":[{"attributes":{"POSITION":13,"NORMAL":14,"TEXCOORD_0":15},"indices":12,"material":1}],"name":"Box017"},{"primitives":[{"attributes":{"POSITION":17,"NORMAL":18,"TEXCOORD_0":19},"indices":16,"material":1}],"name":"Box018"},{"primitives":[{"attributes":{"POSITION":21,"NORMAL":22,"TEXCOORD_0":23},"indices":20,"material":2}],"name":"Box019"},{"primitives":[{"attributes":{"POSITION":25,"NORMAL":26,"TEXCOORD_0":27},"indices":24,"material":0}],"name":"Cone024"},{"primitives":[{"attributes":{"POSITION":29,"NORMAL":30,"TEXCOORD_0":31},"indices":28,"material":0}],"name":"Cone025"},{"primitives":[{"attributes":{"POSITION":33,"NORMAL":34,"TEXCOORD_0":35},"indices":32,"material":0}],"name":"Cone026"},{"primitives":[{"attributes":{"POSITION":37,"NORMAL":38,"TEXCOORD_0":39},"indices":36,"material":0}],"name":"Cone027"},{"primitives":[{"attributes":{"POSITION":41,"NORMAL":42,"TEXCOORD_0":43},"indices":40,"material":0}],"name":"Cone028"},{"primitives":[{"attributes":{"POSITION":45,"NORMAL":46,"TEXCOORD_0":47},"indices":44,"material":2}],"name":"Cone029"},{"primitives":[{"attributes":{"POSITION":49,"NORMAL":50,"TEXCOORD_0":51},"indices":48,"material":3}],"name":"Cone030"},{"primitives":[{"attributes":{"POSITION":53,"NORMAL":54,"TEXCOORD_0":55},"indices":52,"material":4}],"name":"Sphere010"},{"primitives":[{"attributes":{"POSITION":57,"NORMAL":58,"TEXCOORD_0":59},"indices":56,"material":4}],"name":"Sphere011"},{"primitives":[{"attributes":{"POSITION":61,"NORMAL":62,"TEXCOORD_0":63},"indices":60,"material":5}],"name":"Tube002"}],"accessors":[{"bufferView":0,"componentType":5123,"count":36,"type":"SCALAR","name":"accessorIndices"},{"bufferView":1,"componentType":5126,"count":36,"max":[0.7748597,0.5619473,4.44655132],"min":[-0.7748597,0.0,-4.44655132],"type":"VEC3","name":"accessorPositions"},{"bufferView":1,"byteOffset":432,"componentType":5126,"count":36,"type":"VEC3","name":"accessorNormals"},{"bufferView":2,"componentType":5126,"count":36,"type":"VEC2","name":"accessorUVs"},{"bufferView":0,"byteOffset":72,"componentType":5123,"count":36,"type":"SCALAR","name":"accessorIndices"},{"bufferView":1,"byteOffset":864,"componentType":5126,"count":36,"max":[0.7929114,0.543863237,4.75013733],"min":[-0.7929114,0.0,-4.75013733],"type":"VEC3","name":"accessorPositions"},{"bufferView":1,"byteOffset":1296,"componentType":5126,"count":36,"type":"VEC3","name":"accessorNormals"},{"bufferView":2,"byteOffset":288,"componentType":5126,"count":36,"type":"VEC2","name":"accessorUVs"},{"bufferView":0,"byteOffset":144,"componentType":5123,"count":36,"type":"SCALAR","name":"accessorIndices"},{"bufferView":1,"byteOffset":1728,"componentType":5126,"count":36,"max":[0.715675,0.5761232,4.39175272],"min":[-0.715675,0.0,-4.39175272],"type":"VEC3","name":"accessorPositions"},{"bufferView":1,"byteOffset":2160,"componentType":5126,"count":36,"type":"VEC3","name":"accessorNormals"},{"bufferView":2,"byteOffset":576,"componentType":5126,"count":36,"type":"VEC2","name":"accessorUVs"},{"bufferView":0,"byteOffset":216,"componentType":5123,"count":36,"type":"SCALAR","name":"accessorIndices"},{"bufferView":1,"byteOffset":2592,"componentType":5126,"count":36,"max":[3.86392188,1.73800063,1.13181877],"min":[-3.86392188,0.0,-1.13181877],"type":"VEC3","name":"accessorPositions"},{"bufferView":1,"byteOffset":3024,"componentType":5126,"count":36,"type":"VEC3","name":"accessorNormals"},{"bufferView":2,"byteOffset":864,"componentType":5126,"count":36,"type":"VEC2","name":"accessorUVs"},{"bufferView":0,"byteOffset":288,"componentType":5123,"count":36,"type":"SCALAR","name":"accessorIndices"},{"bufferView":1,"byteOffset":3456,"componentType":5126,"count":36,"max":[3.704181,2.4183898,0.905332565],"min":[-3.704181,0.0,-0.905332565],"type":"VEC3","name":"accessorPositions"},{"bufferView":1,"byteOffset":3888,"componentType":5126,"count":36,"type":"VEC3","name":"accessorNormals"},{"bufferView":2,"byteOffset":1152,"componentType":5126,"count":36,"type":"VEC2","name":"accessorUVs"},{"bufferView":0,"byteOffset":360,"componentType":5123,"count":36,"type":"SCALAR","name":"accessorIndices"},{"bufferView":1,"byteOffset":4320,"componentType":5126,"count":36,"max":[0.54769367,2.00210333,0.2779278],"min":[-0.54769367,0.0,-0.2779278],"type":"VEC3","name":"accessorPositions"},{"bufferView":1,"byteOffset":4752,"componentType":5126,"count":36,"type":"VEC3","name":"accessorNormals"},{"bufferView":2,"byteOffset":1440,"componentType":5126,"count":36,"type":"VEC2","name":"accessorUVs"},{"bufferView":0,"byteOffset":432,"componentType":5123,"count":144,"type":"SCALAR","name":"accessorIndices"},{"bufferView":1,"byteOffset":5184,"componentType":5126,"count":144,"max":[0.301503181,3.97314119,0.301503181],"min":[-0.301503181,0.0,-0.301503181],"type":"VEC3","name":"accessorPositions"},{"bufferView":1,"byteOffset":6912,"componentType":5126,"count":144,"type":"VEC3","name":"accessorNormals"},{"bufferView":2,"byteOffset":1728,"componentType":5126,"count":144,"type":"VEC2","name":"accessorUVs"},{"bufferView":0,"byteOffset":720,"componentType":5123,"count":144,"type":"SCALAR","name":"accessorIndices"},{"bufferView":1,"byteOffset":8640,"componentType":5126,"count":144,"max":[0.2290292,2.72211838,0.2290292],"min":[-0.2290292,0.0,-0.2290292],"type":"VEC3","name":"accessorPositions"},{"bufferView":1,"byteOffset":10368,"componentType":5126,"count":144,"type":"VEC3","name":"accessorNormals"},{"bufferView":2,"byteOffset":2880,"componentType":5126,"count":144,"type":"VEC2","name":"accessorUVs"},{"bufferView":0,"byteOffset":1008,"componentType":5123,"count":144,"type":"SCALAR","name":"accessorIndices"},{"bufferView":1,"byteOffset":12096,"componentType":5126,"count":144,"max":[0.493067324,3.7674346,0.493067324],"min":[-0.493067324,0.0,-0.493067324],"type":"VEC3","name":"accessorPositions"},{"bufferView":1,"byteOffset":13824,"componentType":5126,"count":144,"type":"VEC3","name":"accessorNormals"},{"bufferView":2,"byteOffset":4032,"componentType":5126,"count":144,"type":"VEC2","name":"accessorUVs"},{"bufferView":0,"byteOffset":1296,"componentType":5123,"count":144,"type":"SCALAR","name":"accessorIndices"},{"bufferView":1,"byteOffset":15552,"componentType":5126,"count":144,"max":[0.4257961,2.76613665,0.4257961],"min":[-0.4257961,0.0,-0.4257961],"type":"VEC3","name":"accessorPositions"},{"bufferView":1,"byteOffset":17280,"componentType":5126,"count":144,"type":"VEC3","name":"accessorNormals"},{"bufferView":2,"byteOffset":5184,"componentType":5126,"count":144,"type":"VEC2","name":"accessorUVs"},{"bufferView":0,"byteOffset":1584,"componentType":5123,"count":144,"type":"SCALAR","name":"accessorIndices"},{"bufferView":1,"byteOffset":19008,"componentType":5126,"count":144,"max":[0.4059387,3.543321,0.4059387],"min":[-0.4059387,0.0,-0.4059387],"type":"VEC3","name":"accessorPositions"},{"bufferView":1,"byteOffset":20736,"componentType":5126,"count":144,"type":"VEC3","name":"accessorNormals"},{"bufferView":2,"byteOffset":6336,"componentType":5126,"count":144,"type":"VEC2","name":"accessorUVs"},{"bufferView":0,"byteOffset":1872,"componentType":5123,"count":144,"type":"SCALAR","name":"accessorIndices"},{"bufferView":1,"byteOffset":22464,"componentType":5126,"count":144,"max":[1.83577168,17.6522789,1.83577168],"min":[-1.83577168,0.0,-1.83577168],"type":"VEC3","name":"accessorPositions"},{"bufferView":1,"byteOffset":24192,"componentType":5126,"count":144,"type":"VEC3","name":"accessorNormals"},{"bufferView":2,"byteOffset":7488,"componentType":5126,"count":144,"type":"VEC2","name":"accessorUVs"},{"bufferView":0,"byteOffset":2160,"componentType":5123,"count":144,"type":"SCALAR","name":"accessorIndices"},{"bufferView":1,"byteOffset":25920,"componentType":5126,"count":144,"max":[2.32000518,19.363575,2.32000518],"min":[-2.32000518,0.0,-2.32000518],"type":"VEC3","name":"accessorPositions"},{"bufferView":1,"byteOffset":27648,"componentType":5126,"count":144,"type":"VEC3","name":"accessorNormals"},{"bufferView":2,"byteOffset":8640,"componentType":5126,"count":144,"type":"VEC2","name":"accessorUVs"},{"bufferView":0,"byteOffset":2448,"componentType":5123,"count":360,"type":"SCALAR","name":"accessorIndices"},{"bufferView":1,"byteOffset":29376,"componentType":5126,"count":360,"max":[3.28557348,3.28557348,3.28557348],"min":[-3.28557348,-3.28557348,-3.28557348],"type":"VEC3","name":"accessorPositions"},{"bufferView":1,"byteOffset":33696,"componentType":5126,"count":360,"type":"VEC3","name":"accessorNormals"},{"bufferView":2,"byteOffset":9792,"componentType":5126,"count":360,"type":"VEC2","name":"accessorUVs"},{"bufferView":0,"byteOffset":3168,"componentType":5123,"count":360,"type":"SCALAR","name":"accessorIndices"},{"bufferView":1,"byteOffset":38016,"componentType":5126,"count":360,"max":[0.9247223,0.9247223,0.9247223],"min":[-0.9247223,-0.9247223,-0.9247223],"type":"VEC3","name":"accessorPositions"},{"bufferView":1,"byteOffset":42336,"componentType":5126,"count":360,"type":"VEC3","name":"accessorNormals"},{"bufferView":2,"byteOffset":12672,"componentType":5126,"count":360,"type":"VEC2","name":"accessorUVs"},{"bufferView":0,"byteOffset":3888,"componentType":5123,"count":432,"type":"SCALAR","name":"accessorIndices"},{"bufferView":1,"byteOffset":46656,"componentType":5126,"count":432,"max":[6.74180269,0.0,6.84580564],"min":[-6.74180269,-13.8388062,-6.84580564],"type":"VEC3","name":"accessorPositions"},{"bufferView":1,"byteOffset":51840,"componentType":5126,"count":432,"type":"VEC3","name":"accessorNormals"},{"bufferView":2,"byteOffset":15552,"componentType":5126,"count":432,"type":"VEC2","name":"accessorUVs"},{"bufferView":3,"componentType":5126,"count":94,"max":[3.33333325],"min":[0.0],"type":"SCALAR","name":"accessorAnimationInput"},{"bufferView":4,"componentType":5126,"count":94,"type":"VEC3","name":"accessorAnimationPositions"},{"bufferView":3,"byteOffset":376,"componentType":5126,"count":23,"max":[3.33333325],"min":[0.0],"type":"SCALAR","name":"accessorAnimationInput"},{"bufferView":5,"componentType":5126,"count":23,"type":"VEC4","name":"accessorAnimationRotations"},{"bufferView":3,"byteOffset":468,"componentType":5126,"count":94,"max":[3.33333325],"min":[0.0],"type":"SCALAR","name":"accessorAnimationInput"},{"bufferView":4,"byteOffset":1128,"componentType":5126,"count":94,"type":"VEC3","name":"accessorAnimationPositions"},{"bufferView":3,"byteOffset":844,"componentType":5126,"count":23,"max":[3.33333325],"min":[0.0],"type":"SCALAR","name":"accessorAnimationInput"},{"bufferView":5,"byteOffset":368,"componentType":5126,"count":23,"type":"VEC4","name":"accessorAnimationRotations"},{"bufferView":3,"byteOffset":936,"componentType":5126,"count":94,"max":[3.33333325],"min":[0.0],"type":"SCALAR","name":"accessorAnimationInput"},{"bufferView":4,"byteOffset":2256,"componentType":5126,"count":94,"type":"VEC3","name":"accessorAnimationPositions"},{"bufferView":3,"byteOffset":1312,"componentType":5126,"count":23,"max":[3.33333325],"min":[0.0],"type":"SCALAR","name":"accessorAnimationInput"},{"bufferView":5,"byteOffset":736,"componentType":5126,"count":23,"type":"VEC4","name":"accessorAnimationRotations"},{"bufferView":3,"byteOffset":1404,"componentType":5126,"count":45,"max":[3.33333325],"min":[0.0],"type":"SCALAR","name":"accessorAnimationInput"},{"bufferView":4,"byteOffset":3384,"componentType":5126,"count":45,"type":"VEC3","name":"accessorAnimationPositions"},{"bufferView":3,"byteOffset":1584,"componentType":5126,"count":64,"max":[3.33333325],"min":[0.0],"type":"SCALAR","name":"accessorAnimationInput"},{"bufferView":4,"byteOffset":3924,"componentType":5126,"count":64,"type":"VEC3","name":"accessorAnimationPositions"},{"bufferView":3,"byteOffset":1840,"componentType":5126,"count":53,"max":[3.33333325],"min":[0.0],"type":"SCALAR","name":"accessorAnimationInput"},{"bufferView":4,"byteOffset":4692,"componentType":5126,"count":53,"type":"VEC3","name":"accessorAnimationPositions"},{"bufferView":3,"byteOffset":2052,"componentType":5126,"count":14,"max":[3.33333325],"min":[0.0],"type":"SCALAR","name":"accessorAnimationInput"},{"bufferView":5,"byteOffset":1104,"componentType":5126,"count":14,"type":"VEC4","name":"accessorAnimationRotations"},{"bufferView":3,"byteOffset":2108,"componentType":5126,"count":79,"max":[3.33333325],"min":[0.0],"type":"SCALAR","name":"accessorAnimationInput"},{"bufferView":4,"byteOffset":5328,"componentType":5126,"count":79,"type":"VEC3","name":"accessorAnimationPositions"},{"bufferView":3,"byteOffset":2424,"componentType":5126,"count":22,"max":[3.33333325],"min":[0.0],"type":"SCALAR","name":"accessorAnimationInput"},{"bufferView":5,"byteOffset":1328,"componentType":5126,"count":22,"type":"VEC4","name":"accessorAnimationRotations"},{"bufferView":3,"byteOffset":2512,"componentType":5126,"count":79,"max":[3.33333325],"min":[0.0],"type":"SCALAR","name":"accessorAnimationInput"},{"bufferView":4,"byteOffset":6276,"componentType":5126,"count":79,"type":"VEC3","name":"accessorAnimationPositions"},{"bufferView":3,"byteOffset":2828,"componentType":5126,"count":18,"max":[3.33333325],"min":[0.0],"type":"SCALAR","name":"accessorAnimationInput"},{"bufferView":5,"byteOffset":1680,"componentType":5126,"count":18,"type":"VEC4","name":"accessorAnimationRotations"},{"bufferView":3,"byteOffset":2900,"componentType":5126,"count":79,"max":[3.33333325],"min":[0.0],"type":"SCALAR","name":"accessorAnimationInput"},{"bufferView":4,"byteOffset":7224,"componentType":5126,"count":79,"type":"VEC3","name":"accessorAnimationPositions"},{"bufferView":3,"byteOffset":3216,"componentType":5126,"count":18,"max":[3.33333325],"min":[0.0],"type":"SCALAR","name":"accessorAnimationInput"},{"bufferView":5,"byteOffset":1968,"componentType":5126,"count":18,"type":"VEC4","name":"accessorAnimationRotations"},{"bufferView":3,"byteOffset":3288,"componentType":5126,"count":79,"max":[3.33333325],"min":[0.0],"type":"SCALAR","name":"accessorAnimationInput"},{"bufferView":4,"byteOffset":8172,"componentType":5126,"count":79,"type":"VEC3","name":"accessorAnimationPositions"},{"bufferView":3,"byteOffset":3604,"componentType":5126,"count":18,"max":[3.33333325],"min":[0.0],"type":"SCALAR","name":"accessorAnimationInput"},{"bufferView":5,"byteOffset":2256,"componentType":5126,"count":18,"type":"VEC4","name":"accessorAnimationRotations"},{"bufferView":3,"byteOffset":3676,"componentType":5126,"count":79,"max":[3.33333325],"min":[0.0],"type":"SCALAR","name":"accessorAnimationInput"},{"bufferView":4,"byteOffset":9120,"componentType":5126,"count":79,"type":"VEC3","name":"accessorAnimationPositions"},{"bufferView":3,"byteOffset":3992,"componentType":5126,"count":20,"max":[3.33333325],"min":[0.0],"type":"SCALAR","name":"accessorAnimationInput"},{"bufferView":5,"byteOffset":2544,"componentType":5126,"count":20,"type":"VEC4","name":"accessorAnimationRotations"},{"bufferView":3,"byteOffset":4072,"componentType":5126,"count":43,"max":[3.33333325],"min":[0.0],"type":"SCALAR","name":"accessorAnimationInput"},{"bufferView":5,"byteOffset":2864,"componentType":5126,"count":43,"type":"VEC4","name":"accessorAnimationRotations"},{"bufferView":3,"byteOffset":4244,"componentType":5126,"count":44,"max":[3.33333325],"min":[0.0],"type":"SCALAR","name":"accessorAnimationInput"},{"bufferView":5,"byteOffset":3552,"componentType":5126,"count":44,"type":"VEC4","name":"accessorAnimationRotations"},{"bufferView":3,"byteOffset":4420,"componentType":5126,"count":79,"max":[3.33333325],"min":[0.0],"type":"SCALAR","name":"accessorAnimationInput"},{"bufferView":4,"byteOffset":10068,"componentType":5126,"count":79,"type":"VEC3","name":"accessorAnimationPositions"},{"bufferView":3,"byteOffset":4736,"componentType":5126,"count":17,"max":[3.33333325],"min":[0.0],"type":"SCALAR","name":"accessorAnimationInput"},{"bufferView":5,"byteOffset":4256,"componentType":5126,"count":17,"type":"VEC4","name":"accessorAnimationRotations"},{"bufferView":3,"byteOffset":4804,"componentType":5126,"count":53,"max":[3.33333325],"min":[0.0],"type":"SCALAR","name":"accessorAnimationInput"},{"bufferView":4,"byteOffset":11016,"componentType":5126,"count":53,"type":"VEC3","name":"accessorAnimationPositions"},{"bufferView":3,"byteOffset":5016,"componentType":5126,"count":29,"max":[3.33333325],"min":[0.0],"type":"SCALAR","name":"accessorAnimationInput"},{"bufferView":5,"byteOffset":4528,"componentType":5126,"count":29,"type":"VEC4","name":"accessorAnimationRotations"},{"bufferView":3,"byteOffset":5132,"componentType":5126,"count":51,"max":[3.33333325],"min":[0.0],"type":"SCALAR","name":"accessorAnimationInput"},{"bufferView":4,"byteOffset":11652,"componentType":5126,"count":51,"type":"VEC3","name":"accessorAnimationPositions"}],"bufferViews":[{"buffer":0,"byteLength":4752,"name":"bufferViewScalar"},{"buffer":0,"byteOffset":4752,"byteLength":57024,"byteStride":12,"name":"bufferViewFloatVec3"},{"buffer":0,"byteOffset":61776,"byteLength":19008,"byteStride":8,"name":"bufferViewFloatVec2"},{"buffer":0,"byteOffset":80784,"byteLength":5336,"name":"bufferViewAnimationFloatScalar"},{"buffer":0,"byteOffset":86120,"byteLength":12264,"name":"bufferViewAnimationFloatVec3"},{"buffer":0,"byteOffset":98384,"byteLength":4992,"name":"bufferViewAnimationFloatVec4"}],"buffers":[{"uri":"creature_5.bin","byteLength":103376}],"materials":[{"pbrMetallicRoughness":{"baseColorTexture":{"index":0},"metallicFactor":0.0,"roughnessFactor":0.7022211},"name":"Material #28"},{"pbrMetallicRoughness":{"baseColorTexture":{"index":1},"metallicFactor":0.0,"roughnessFactor":0.450053632},"name":"Material #26"},{"pbrMetallicRoughness":{"baseColorTexture":{"index":2},"metallicFactor":0.0,"roughnessFactor":0.7022211},"name":"Material #29"},{"pbrMetallicRoughness":{"baseColorTexture":{"index":3},"metallicFactor":0.0,"roughnessFactor":0.7022211},"name":"Material #27"},{"pbrMetallicRoughness":{"baseColorTexture":{"index":4},"metallicFactor":0.0,"roughnessFactor":0.7022211},"name":"Material #30"},{"pbrMetallicRoughness":{"baseColorTexture":{"index":5},"metallicFactor":0.0,"roughnessFactor":0.450053632},"name":"Material #25"}],"textures":[{"sampler":0,"source":0,"name":"yellow.jpg"},{"sampler":0,"source":1,"name":"white.jpg"},{"sampler":0,"source":2,"name":"red.jpg"},{"sampler":0,"source":3,"name":"green.jpg"},{"sampler":0,"source":4,"name":"black.jpg"},{"sampler":0,"source":5,"name":"blue.jpg"}],"images":[{"uri":"../ExTex/yellow.jpg"},{"uri":"../ExTex/white.jpg"},{"uri":"../ExTex/red.jpg"},{"uri":"../ExTex/green.jpg"},{"uri":"../ExTex/black.jpg"},{"uri":"../ExTex/blue.jpg"}],"samplers":[{"magFilter":9729,"minFilter":9987}],"animations":[{"channels":[{"sampler":0,"target":{"node":1,"path":"translation"}},{"sampler":1,"target":{"node":1,"path":"rotation"}},{"sampler":2,"target":{"node":2,"path":"translation"}},{"sampler":3,"target":{"node":2,"path":"rotation"}},{"sampler":4,"target":{"node":3,"path":"translation"}},{"sampler":5,"target":{"node":3,"path":"rotation"}},{"sampler":6,"target":{"node":4,"path":"translation"}},{"sampler":7,"target":{"node":5,"path":"translation"}},{"sampler":8,"target":{"node":6,"path":"translation"}},{"sampler":9,"target":{"node":6,"path":"rotation"}},{"sampler":10,"target":{"node":7,"path":"translation"}},{"sampler":11,"target":{"node":7,"path":"rotation"}},{"sampler":12,"target":{"node":8,"path":"translation"}},{"sampler":13,"target":{"node":8,"path":"rotation"}},{"sampler":14,"target":{"node":9,"path":"translation"}},{"sampler":15,"target":{"node":9,"path":"rotation"}},{"sampler":16,"target":{"node":10,"path":"translation"}},{"sampler":17,"target":{"node":10,"path":"rotation"}},{"sampler":18,"target":{"node":11,"path":"translation"}},{"sampler":19,"target":{"node":11,"path":"rotation"}},{"sampler":20,"target":{"node":12,"path":"rotation"}},{"sampler":21,"target":{"node":13,"path":"rotation"}},{"sampler":22,"target":{"node":14,"path":"translation"}},{"sampler":23,"target":{"node":14,"path":"rotation"}},{"sampler":24,"target":{"node":15,"path":"translation"}},{"sampler":25,"target":{"node":15,"path":"rotation"}},{"sampler":26,"target":{"node":16,"path":"translation"}}],"samplers":[{"input":64,"output":65},{"input":66,"output":67},{"input":68,"output":69},{"input":70,"output":71},{"input":72,"output":73},{"input":74,"output":75},{"input":76,"output":77},{"input":78,"output":79},{"input":80,"output":81},{"input":82,"output":83},{"input":84,"output":85},{"input":86,"output":87},{"input":88,"output":89},{"input":90,"output":91},{"input":92,"output":93},{"input":94,"output":95},{"input":96,"output":97},{"input":98,"output":99},{"input":100,"output":101},{"input":102,"output":103},{"input":104,"output":105},{"input":106,"output":107},{"input":108,"output":109},{"input":110,"output":111},{"input":112,"output":113},{"input":114,"output":115},{"input":116,"output":117}],"name":"All Animations"}]}