{"asset":{"version":"2.0","generator":"babylon.js glTF exporter for 3dsmax 2020 v20200415.4"},"scene":0,"scenes":[{"nodes":[0,11]}],"nodes":[{"children":[1,2,3,4,5,6,7,8,9,10],"rotation":[9.313226E-10,8.67361738E-19,9.313226E-10,1.0],"name":"Man4"},{"mesh":0,"translation":[-5.280298,2.63894343,6.13323259],"rotation":[0.0007578543,-0.670758665,0.74167496,0.0006853496],"scale":[0.831799865,0.831800044,0.8317998],"name":"Box066"},{"mesh":1,"translation":[-3.266991,2.400741,0.105582476],"rotation":[-0.6825576,-0.199371889,0.676518142,-0.19154422],"scale":[0.8317999,0.8318001,0.8318002],"name":"Box067"},{"mesh":2,"translation":[-3.31404114,-0.955771565,-22.9253349],"rotation":[-0.695683062,-0.148730278,0.6886916,-0.140029252],"scale":[0.8317999,0.831800044,0.831800044],"name":"Box068"},{"mesh":3,"translation":[-7.363723,-0.7418562,-22.1448364],"rotation":[0.686472058,-0.150817215,0.693268359,0.159340292],"scale":[0.8317999,0.831800461,0.8318],"name":"Box069"},{"mesh":4,"translation":[-7.31741667,1.48766,0.5155041],"rotation":[0.675055563,-0.196775883,0.6809953,0.204510972],"scale":[0.8318001,0.8318005,0.831799746],"name":"Box070"},{"mesh":5,"translation":[-5.982676,1.71556973,14.0656672],"rotation":[0.7216355,-0.00209690677,0.002185851,0.6922665],"scale":[0.8318001,0.8317999,0.8318003],"name":"Box071"},{"mesh":6,"translation":[-5.32166767,1.43094146,-14.9389334],"rotation":[5.12650367E-05,-0.998741448,0.0501454137,0.00102109881],"scale":[0.8318001,0.831800461,0.831800461],"name":"Pyramid005"},{"mesh":7,"translation":[-6.15659332,2.09332037,6.150852],"rotation":[0.21450448,-0.00410756376,-0.005864343,0.9766968],"scale":[0.831800342,0.831800342,0.8318002],"name":"Pyramid006"},{"mesh":8,"translation":[-2.53144217,6.682683,14.2930136],"rotation":[0.7216356,-0.00209692,0.00218587345,0.6922665],"scale":[0.831800044,0.831800163,0.831800163],"name":"Sphere030"},{"mesh":9,"translation":[-10.4020863,6.446451,14.2355165],"rotation":[0.7216356,-0.00209692,0.00218587345,0.6922665],"scale":[0.831800044,0.831800163,0.831800163],"name":"Sphere031"},{"name":"Default light"}],"meshes":[{"primitives":[{"attributes":{"POSITION":1,"NORMAL":2,"TEXCOORD_0":3},"indices":0,"material":0}],"name":"Box066"},{"primitives":[{"attributes":{"POSITION":5,"NORMAL":6,"TEXCOORD_0":7},"indices":4,"material":0}],"name":"Box067"},{"primitives":[{"attributes":{"POSITION":9,"NORMAL":10,"TEXCOORD_0":11},"indices":8,"material":0}],"name":"Box068"},{"primitives":[{"attributes":{"POSITION":13,"NORMAL":14,"TEXCOORD_0":15},"indices":12,"material":0}],"name":"Box069"},{"primitives":[{"attributes":{"POSITION":17,"NORMAL":18,"TEXCOORD_0":19},"indices":16,"material":0}],"name":"Box070"},{"primitives":[{"attributes":{"POSITION":21,"NORMAL":22,"TEXCOORD_0":23},"indices":20,"material":1}],"name":"Box071"},{"primitives":[{"attributes":{"POSITION":25,"NORMAL":26,"TEXCOORD_0":27},"indices":24,"material":2}],"name":"Pyramid005"},{"primitives":[{"attributes":{"POSITION":29,"NORMAL":30,"TEXCOORD_0":31},"indices":28,"material":3}],"name":"Pyramid006"},{"primitives":[{"attributes":{"POSITION":33,"NORMAL":34,"TEXCOORD_0":35},"indices":32,"material":4}],"name":"Sphere030"},{"primitives":[{"attributes":{"POSITION":37,"NORMAL":38,"TEXCOORD_0":39},"indices":36,"material":4}],"name":"Sphere031"}],"accessors":[{"bufferView":0,"componentType":5123,"count":36,"type":"SCALAR","name":"accessorIndices"},{"bufferView":1,"componentType":5126,"count":36,"max":[2.435236,38.00805,1.49042821],"min":[-2.435236,0.0,-1.49042821],"type":"VEC3","name":"accessorPositions"},{"bufferView":1,"byteOffset":432,"componentType":5126,"count":36,"type":"VEC3","name":"accessorNormals"},{"bufferView":2,"componentType":5126,"count":36,"type":"VEC2","name":"accessorUVs"},{"bufferView":0,"byteOffset":72,"componentType":5123,"count":36,"type":"SCALAR","name":"accessorIndices"},{"bufferView":1,"byteOffset":864,"componentType":5126,"count":36,"max":[1.2916714,38.8981323,0.9605676],"min":[-1.2916714,0.0,-0.9605676],"type":"VEC3","name":"accessorPositions"},{"bufferView":1,"byteOffset":1296,"componentType":5126,"count":36,"type":"VEC3","name":"accessorNormals"},{"bufferView":2,"byteOffset":288,"componentType":5126,"count":36,"type":"VEC2","name":"accessorUVs"},{"bufferView":0,"byteOffset":144,"componentType":5123,"count":36,"type":"SCALAR","name":"accessorIndices"},{"bufferView":1,"byteOffset":1728,"componentType":5126,"count":36,"max":[2.429873,30.154871,0.922363639],"min":[-2.429873,0.0,-0.922363639],"type":"VEC3","name":"accessorPositions"},{"bufferView":1,"byteOffset":2160,"componentType":5126,"count":36,"type":"VEC3","name":"accessorNormals"},{"bufferView":2,"byteOffset":576,"componentType":5126,"count":36,"type":"VEC2","name":"accessorUVs"},{"bufferView":0,"byteOffset":216,"componentType":5123,"count":36,"type":"SCALAR","name":"accessorIndices"},{"bufferView":1,"byteOffset":2592,"componentType":5126,"count":36,"max":[2.76237059,31.1844864,0.922189355],"min":[-2.76237059,0.0,-0.922189355],"type":"VEC3","name":"accessorPositions"},{"bufferView":1,"byteOffset":3024,"componentType":5126,"count":36,"type":"VEC3","name":"accessorNormals"},{"bufferView":2,"byteOffset":864,"componentType":5126,"count":36,"type":"VEC2","name":"accessorUVs"},{"bufferView":0,"byteOffset":288,"componentType":5123,"count":36,"type":"SCALAR","name":"accessorIndices"},{"bufferView":1,"byteOffset":3456,"componentType":5126,"count":36,"max":[1.6246556,35.4010735,1.172462],"min":[-1.6246556,0.0,-1.172462],"type":"VEC3","name":"accessorPositions"},{"bufferView":1,"byteOffset":3888,"componentType":5126,"count":36,"type":"VEC3","name":"accessorNormals"},{"bufferView":2,"byteOffset":1152,"componentType":5126,"count":36,"type":"VEC2","name":"accessorUVs"},{"bufferView":0,"byteOffset":360,"componentType":5123,"count":36,"type":"SCALAR","name":"accessorIndices"},{"bufferView":1,"byteOffset":4320,"componentType":5126,"count":36,"max":[4.82668447,1.51002014,0.5090332],"min":[-4.82668447,0.0,-0.5090332],"type":"VEC3","name":"accessorPositions"},{"bufferView":1,"byteOffset":4752,"componentType":5126,"count":36,"type":"VEC3","name":"accessorNormals"},{"bufferView":2,"byteOffset":1440,"componentType":5126,"count":36,"type":"VEC2","name":"accessorUVs"},{"bufferView":0,"byteOffset":432,"componentType":5123,"count":24,"type":"SCALAR","name":"accessorIndices"},{"bufferView":1,"byteOffset":5184,"componentType":5126,"count":24,"max":[8.933204,29.1696644,15.577651],"min":[-8.933204,0.0,-15.577651],"type":"VEC3","name":"accessorPositions"},{"bufferView":1,"byteOffset":5472,"componentType":5126,"count":24,"type":"VEC3","name":"accessorNormals"},{"bufferView":2,"byteOffset":1728,"componentType":5126,"count":24,"type":"VEC2","name":"accessorUVs"},{"bufferView":0,"byteOffset":480,"componentType":5123,"count":24,"type":"SCALAR","name":"accessorIndices"},{"bufferView":1,"byteOffset":5760,"componentType":5126,"count":24,"max":[11.873641,25.003212,10.3011675],"min":[-11.873641,0.0,-10.3011675],"type":"VEC3","name":"accessorPositions"},{"bufferView":1,"byteOffset":6048,"componentType":5126,"count":24,"type":"VEC3","name":"accessorNormals"},{"bufferView":2,"byteOffset":1920,"componentType":5126,"count":24,"type":"VEC2","name":"accessorUVs"},{"bufferView":0,"byteOffset":528,"componentType":5123,"count":360,"type":"SCALAR","name":"accessorIndices"},{"bufferView":1,"byteOffset":6336,"componentType":5126,"count":360,"max":[2.4396944,2.4396944,2.4396944],"min":[-2.4396944,-2.4396944,-2.4396944],"type":"VEC3","name":"accessorPositions"},{"bufferView":1,"byteOffset":10656,"componentType":5126,"count":360,"type":"VEC3","name":"accessorNormals"},{"bufferView":2,"byteOffset":2112,"componentType":5126,"count":360,"type":"VEC2","name":"accessorUVs"},{"bufferView":0,"byteOffset":1248,"componentType":5123,"count":360,"type":"SCALAR","name":"accessorIndices"},{"bufferView":1,"byteOffset":14976,"componentType":5126,"count":360,"max":[2.047319,2.047319,2.047319],"min":[-2.047319,-2.047319,-2.047319],"type":"VEC3","name":"accessorPositions"},{"bufferView":1,"byteOffset":19296,"componentType":5126,"count":360,"type":"VEC3","name":"accessorNormals"},{"bufferView":2,"byteOffset":4992,"componentType":5126,"count":360,"type":"VEC2","name":"accessorUVs"},{"bufferView":3,"componentType":5126,"count":68,"max":[3.33333325],"min":[0.0],"type":"SCALAR","name":"accessorAnimationInput"},{"bufferView":4,"componentType":5126,"count":68,"type":"VEC3","name":"accessorAnimationPositions"},{"bufferView":3,"byteOffset":272,"componentType":5126,"count":68,"max":[3.33333325],"min":[0.0],"type":"SCALAR","name":"accessorAnimationInput"},{"bufferView":4,"byteOffset":816,"componentType":5126,"count":68,"type":"VEC3","name":"accessorAnimationPositions"},{"bufferView":3,"byteOffset":544,"componentType":5126,"count":20,"max":[3.33333325],"min":[0.0],"type":"SCALAR","name":"accessorAnimationInput"},{"bufferView":5,"componentType":5126,"count":20,"type":"VEC4","name":"accessorAnimationRotations"},{"bufferView":3,"byteOffset":624,"componentType":5126,"count":68,"max":[3.33333325],"min":[0.0],"type":"SCALAR","name":"accessorAnimationInput"},{"bufferView":4,"byteOffset":1632,"componentType":5126,"count":68,"type":"VEC3","name":"accessorAnimationPositions"},{"bufferView":3,"byteOffset":896,"componentType":5126,"count":25,"max":[3.33333325],"min":[0.0],"type":"SCALAR","name":"accessorAnimationInput"},{"bufferView":5,"byteOffset":320,"componentType":5126,"count":25,"type":"VEC4","name":"accessorAnimationRotations"},{"bufferView":3,"byteOffset":996,"componentType":5126,"count":68,"max":[3.33333325],"min":[0.0],"type":"SCALAR","name":"accessorAnimationInput"},{"bufferView":4,"byteOffset":2448,"componentType":5126,"count":68,"type":"VEC3","name":"accessorAnimationPositions"},{"bufferView":3,"byteOffset":1268,"componentType":5126,"count":27,"max":[3.33333325],"min":[0.0],"type":"SCALAR","name":"accessorAnimationInput"},{"bufferView":5,"byteOffset":720,"componentType":5126,"count":27,"type":"VEC4","name":"accessorAnimationRotations"},{"bufferView":3,"byteOffset":1376,"componentType":5126,"count":68,"max":[3.33333325],"min":[0.0],"type":"SCALAR","name":"accessorAnimationInput"},{"bufferView":4,"byteOffset":3264,"componentType":5126,"count":68,"type":"VEC3","name":"accessorAnimationPositions"},{"bufferView":3,"byteOffset":1648,"componentType":5126,"count":31,"max":[3.33333325],"min":[0.0],"type":"SCALAR","name":"accessorAnimationInput"},{"bufferView":5,"byteOffset":1152,"componentType":5126,"count":31,"type":"VEC4","name":"accessorAnimationRotations"},{"bufferView":3,"byteOffset":1772,"componentType":5126,"count":94,"max":[3.33333325],"min":[0.0],"type":"SCALAR","name":"accessorAnimationInput"},{"bufferView":4,"byteOffset":4080,"componentType":5126,"count":94,"type":"VEC3","name":"accessorAnimationPositions"},{"bufferView":3,"byteOffset":2148,"componentType":5126,"count":25,"max":[3.33333325],"min":[0.0],"type":"SCALAR","name":"accessorAnimationInput"},{"bufferView":5,"byteOffset":1648,"componentType":5126,"count":25,"type":"VEC4","name":"accessorAnimationRotations"},{"bufferView":3,"byteOffset":2248,"componentType":5126,"count":82,"max":[3.33333325],"min":[0.0],"type":"SCALAR","name":"accessorAnimationInput"},{"bufferView":4,"byteOffset":5208,"componentType":5126,"count":82,"type":"VEC3","name":"accessorAnimationScales"},{"bufferView":3,"byteOffset":2576,"componentType":5126,"count":68,"max":[3.33333325],"min":[0.0],"type":"SCALAR","name":"accessorAnimationInput"},{"bufferView":4,"byteOffset":6192,"componentType":5126,"count":68,"type":"VEC3","name":"accessorAnimationPositions"},{"bufferView":3,"byteOffset":2848,"componentType":5126,"count":8,"max":[3.33333325],"min":[0.0],"type":"SCALAR","name":"accessorAnimationInput"},{"bufferView":5,"byteOffset":2048,"componentType":5126,"count":8,"type":"VEC4","name":"accessorAnimationRotations"},{"bufferView":3,"byteOffset":2880,"componentType":5126,"count":13,"max":[3.33333325],"min":[0.0],"type":"SCALAR","name":"accessorAnimationInput"},{"bufferView":4,"byteOffset":7008,"componentType":5126,"count":13,"type":"VEC3","name":"accessorAnimationScales"},{"bufferView":3,"byteOffset":2932,"componentType":5126,"count":94,"max":[3.33333325],"min":[0.0],"type":"SCALAR","name":"accessorAnimationInput"},{"bufferView":4,"byteOffset":7164,"componentType":5126,"count":94,"type":"VEC3","name":"accessorAnimationPositions"},{"bufferView":3,"byteOffset":3308,"componentType":5126,"count":98,"max":[3.33333325],"min":[0.0],"type":"SCALAR","name":"accessorAnimationInput"},{"bufferView":4,"byteOffset":8292,"componentType":5126,"count":98,"type":"VEC3","name":"accessorAnimationPositions"},{"bufferView":3,"byteOffset":3700,"componentType":5126,"count":96,"max":[3.33333325],"min":[0.0],"type":"SCALAR","name":"accessorAnimationInput"},{"bufferView":4,"byteOffset":9468,"componentType":5126,"count":96,"type":"VEC3","name":"accessorAnimationPositions"}],"bufferViews":[{"buffer":0,"byteLength":1968,"name":"bufferViewScalar"},{"buffer":0,"byteOffset":1968,"byteLength":23616,"byteStride":12,"name":"bufferViewFloatVec3"},{"buffer":0,"byteOffset":25584,"byteLength":7872,"byteStride":8,"name":"bufferViewFloatVec2"},{"buffer":0,"byteOffset":33456,"byteLength":4084,"name":"bufferViewAnimationFloatScalar"},{"buffer":0,"byteOffset":37540,"byteLength":10620,"name":"bufferViewAnimationFloatVec3"},{"buffer":0,"byteOffset":48160,"byteLength":2176,"name":"bufferViewAnimationFloatVec4"}],"buffers":[{"uri":"man_4.bin","byteLength":50336}],"materials":[{"pbrMetallicRoughness":{"baseColorTexture":{"index":0},"metallicFactor":0.0,"roughnessFactor":0.7022211},"name":"Material #48"},{"pbrMetallicRoughness":{"baseColorTexture":{"index":1},"metallicFactor":0.0,"roughnessFactor":0.5364733},"name":"Material #49"},{"pbrMetallicRoughness":{"baseColorTexture":{"index":2},"metallicFactor":0.0,"roughnessFactor":0.7022211},"name":"Material #50"},{"pbrMetallicRoughness":{"baseColorTexture":{"index":3},"metallicFactor":0.0,"roughnessFactor":0.3967883},"name":"Material #52"},{"pbrMetallicRoughness":{"baseColorTexture":{"index":4},"metallicFactor":0.0,"roughnessFactor":0.450053632},"name":"Material #54"}],"textures":[{"sampler":0,"source":0,"name":"red.jpg"},{"sampler":0,"source":1,"name":"white.jpg"},{"sampler":0,"source":2,"name":"blue.jpg"},{"sampler":0,"source":3,"name":"yellow.jpg"},{"sampler":0,"source":4,"name":"portal.jpg"}],"images":[{"uri":"../ExTex/red.jpg"},{"uri":"../ExTex/white.jpg"},{"uri":"../ExTex/blue.jpg"},{"uri":"../ExTex/yellow.jpg"},{"uri":"../ExTex/portal.jpg"}],"samplers":[{"magFilter":9729,"minFilter":9987}],"animations":[{"channels":[{"sampler":0,"target":{"node":1,"path":"translation"}},{"sampler":1,"target":{"node":2,"path":"translation"}},{"sampler":2,"target":{"node":2,"path":"rotation"}},{"sampler":3,"target":{"node":3,"path":"translation"}},{"sampler":4,"target":{"node":3,"path":"rotation"}},{"sampler":5,"target":{"node":4,"path":"translation"}},{"sampler":6,"target":{"node":4,"path":"rotation"}},{"sampler":7,"target":{"node":5,"path":"translation"}},{"sampler":8,"target":{"node":5,"path":"rotation"}},{"sampler":9,"target":{"node":6,"path":"translation"}},{"sampler":10,"target":{"node":6,"path":"rotation"}},{"sampler":11,"target":{"node":6,"path":"scale"}},{"sampler":12,"target":{"node":7,"path":"translation"}},{"sampler":13,"target":{"node":7,"path":"rotation"}},{"sampler":14,"target":{"node":7,"path":"scale"}},{"sampler":15,"target":{"node":8,"path":"translation"}},{"sampler":16,"target":{"node":9,"path":"translation"}},{"sampler":17,"target":{"node":10,"path":"translation"}}],"samplers":[{"input":40,"output":41},{"input":42,"output":43},{"input":44,"output":45},{"input":46,"output":47},{"input":48,"output":49},{"input":50,"output":51},{"input":52,"output":53},{"input":54,"output":55},{"input":56,"output":57},{"input":58,"output":59},{"input":60,"output":61},{"input":62,"output":63},{"input":64,"output":65},{"input":66,"output":67},{"input":68,"output":69},{"input":70,"output":71},{"input":72,"output":73},{"input":74,"output":75}],"name":"All Animations"}]}