{"asset":{"version":"2.0","generator":"babylon.js glTF exporter for 3dsmax 2020 v20200415.4"},"scene":0,"scenes":[{"nodes":[0,12]}],"nodes":[{"children":[1,2,3,4,5,6,7,8,9,10,11],"name":"Man2"},{"mesh":0,"translation":[3.84729815,4.537538,0.2524954],"rotation":[-0.717411458,-0.0357903168,0.69359076,-0.0545141473],"scale":[0.6833163,0.683315754,0.683316052],"name":"Box055"},{"mesh":1,"translation":[-6.110264,3.34787655,1.76799655],"rotation":[0.6226258,-0.09944919,0.7754273,0.03405252],"scale":[0.6833159,0.683316052,0.6833158],"name":"Box056"},{"mesh":2,"translation":[-2.40142965,22.5319462,-1.90754819],"rotation":[-0.00256815762,-0.967642248,0.252120525,-0.009856766],"scale":[0.6833158,0.6833159,0.6833157],"name":"Box059"},{"mesh":3,"translation":[-2.13125467,18.4431686,-5.601519],"rotation":[-0.007257729,-0.8796515,0.475373775,-0.013430031],"scale":[0.683315754,0.6833156,0.683316052],"name":"Box060"},{"mesh":4,"translation":[-2.444774,13.137495,-7.108988],"rotation":[-0.0003732518,-0.749337,0.6621887,-0.000422443758],"scale":[0.6833159,0.683315635,0.683315635],"name":"Box061"},{"mesh":5,"translation":[-1.55539513,23.2184219,5.05049944],"rotation":[0.149371788,-0.00482475944,0.0007288761,0.988769054],"scale":[0.6833159,0.683315933,0.683315754],"name":"Cone019"},{"mesh":6,"translation":[-1.47534049,13.8443384,1.51963186],"rotation":[0.0,0.7135759,0.0,0.7005779],"scale":[0.6833159,0.6833159,0.6833159],"name":"Sphere023"},{"mesh":7,"translation":[1.92678833,26.5183372,8.696249],"rotation":[0.5984954,0.3248094,-0.28887555,0.6729436],"scale":[0.683316,0.683315933,0.6833159],"name":"Sphere024"},{"mesh":8,"translation":[-4.89206266,26.5785637,8.879422],"rotation":[0.60869807,-0.309782654,0.279407,0.674872637],"scale":[0.683315754,0.683315754,0.683316052],"name":"Sphere025"},{"mesh":9,"translation":[7.78403,17.5848389,8.667877],"rotation":[0.543227553,0.3490265,-0.264714,0.7162478],"scale":[0.683316052,0.6833157,0.6833159],"name":"Sphere026"},{"mesh":10,"translation":[-12.3836231,15.7858562,6.817214],"rotation":[0.5897646,-0.3830249,0.373352438,0.60504353],"scale":[0.683315933,0.683316052,0.683316],"name":"Sphere027"},{"name":"Default light"}],"meshes":[{"primitives":[{"attributes":{"POSITION":1,"NORMAL":2,"TEXCOORD_0":3},"indices":0,"material":0}],"name":"Box055"},{"primitives":[{"attributes":{"POSITION":5,"NORMAL":6,"TEXCOORD_0":7},"indices":4,"material":0}],"name":"Box056"},{"primitives":[{"attributes":{"POSITION":9,"NORMAL":10,"TEXCOORD_0":11},"indices":8,"material":1}],"name":"Box059"},{"primitives":[{"attributes":{"POSITION":13,"NORMAL":14,"TEXCOORD_0":15},"indices":12,"material":1}],"name":"Box060"},{"primitives":[{"attributes":{"POSITION":17,"NORMAL":18,"TEXCOORD_0":19},"indices":16,"material":1}],"name":"Box061"},{"primitives":[{"attributes":{"POSITION":21,"NORMAL":22,"TEXCOORD_0":23},"indices":20,"material":0}],"name":"Cone019"},{"primitives":[{"attributes":{"POSITION":25,"NORMAL":26,"TEXCOORD_0":27},"indices":24,"material":2}],"name":"Sphere023"},{"primitives":[{"attributes":{"POSITION":29,"NORMAL":30,"TEXCOORD_0":31},"indices":28,"material":3}],"name":"Sphere024"},{"primitives":[{"attributes":{"POSITION":33,"NORMAL":34,"TEXCOORD_0":35},"indices":32,"material":3}],"name":"Sphere025"},{"primitives":[{"attributes":{"POSITION":37,"NORMAL":38,"TEXCOORD_0":39},"indices":36,"material":4}],"name":"Sphere026"},{"primitives":[{"attributes":{"POSITION":41,"NORMAL":42,"TEXCOORD_0":43},"indices":40,"material":4}],"name":"Sphere027"}],"accessors":[{"bufferView":0,"componentType":5123,"count":36,"type":"SCALAR","name":"accessorIndices"},{"bufferView":1,"componentType":5126,"count":36,"max":[1.97674608,52.4272842,1.64208543],"min":[-1.97674608,0.0,-1.64208543],"type":"VEC3","name":"accessorPositions"},{"bufferView":1,"byteOffset":432,"componentType":5126,"count":36,"type":"VEC3","name":"accessorNormals"},{"bufferView":2,"componentType":5126,"count":36,"type":"VEC2","name":"accessorUVs"},{"bufferView":0,"byteOffset":72,"componentType":5123,"count":36,"type":"SCALAR","name":"accessorIndices"},{"bufferView":1,"byteOffset":864,"componentType":5126,"count":36,"max":[2.031613,49.9705849,2.00248313],"min":[-2.031613,0.0,-2.00248313],"type":"VEC3","name":"accessorPositions"},{"bufferView":1,"byteOffset":1296,"componentType":5126,"count":36,"type":"VEC3","name":"accessorNormals"},{"bufferView":2,"byteOffset":288,"componentType":5126,"count":36,"type":"VEC2","name":"accessorUVs"},{"bufferView":0,"byteOffset":144,"componentType":5123,"count":36,"type":"SCALAR","name":"accessorIndices"},{"bufferView":1,"byteOffset":1728,"componentType":5126,"count":36,"max":[1.61395407,17.2548771,1.6333251],"min":[-1.61395407,0.0,-1.6333251],"type":"VEC3","name":"accessorPositions"},{"bufferView":1,"byteOffset":2160,"componentType":5126,"count":36,"type":"VEC3","name":"accessorNormals"},{"bufferView":2,"byteOffset":576,"componentType":5126,"count":36,"type":"VEC2","name":"accessorUVs"},{"bufferView":0,"byteOffset":216,"componentType":5123,"count":36,"type":"SCALAR","name":"accessorIndices"},{"bufferView":1,"byteOffset":2592,"componentType":5126,"count":36,"max":[1.48851657,17.550499,1.204789],"min":[-1.48851657,0.0,-1.204789],"type":"VEC3","name":"accessorPositions"},{"bufferView":1,"byteOffset":3024,"componentType":5126,"count":36,"type":"VEC3","name":"accessorNormals"},{"bufferView":2,"byteOffset":864,"componentType":5126,"count":36,"type":"VEC2","name":"accessorUVs"},{"bufferView":0,"byteOffset":288,"componentType":5123,"count":36,"type":"SCALAR","name":"accessorIndices"},{"bufferView":1,"byteOffset":3456,"componentType":5126,"count":36,"max":[1.49386322,14.6020479,1.23305058],"min":[-1.49386322,0.0,-1.23305058],"type":"VEC3","name":"accessorPositions"},{"bufferView":1,"byteOffset":3888,"componentType":5126,"count":36,"type":"VEC3","name":"accessorNormals"},{"bufferView":2,"byteOffset":1152,"componentType":5126,"count":36,"type":"VEC2","name":"accessorUVs"},{"bufferView":0,"byteOffset":360,"componentType":5123,"count":144,"type":"SCALAR","name":"accessorIndices"},{"bufferView":1,"byteOffset":4320,"componentType":5126,"count":144,"max":[8.228863,25.5142574,8.228863],"min":[-8.228863,0.0,-8.228863],"type":"VEC3","name":"accessorPositions"},{"bufferView":1,"byteOffset":6048,"componentType":5126,"count":144,"type":"VEC3","name":"accessorNormals"},{"bufferView":2,"byteOffset":1440,"componentType":5126,"count":144,"type":"VEC2","name":"accessorUVs"},{"bufferView":0,"byteOffset":648,"componentType":5123,"count":540,"type":"SCALAR","name":"accessorIndices"},{"bufferView":1,"byteOffset":7776,"componentType":5126,"count":540,"max":[17.5563354,17.7502766,17.2672787],"min":[-17.5563335,-17.7502766,-17.65304],"type":"VEC3","name":"accessorPositions"},{"bufferView":1,"byteOffset":14256,"componentType":5126,"count":540,"type":"VEC3","name":"accessorNormals"},{"bufferView":2,"byteOffset":2592,"componentType":5126,"count":540,"type":"VEC2","name":"accessorUVs"},{"bufferView":0,"byteOffset":1728,"componentType":5123,"count":360,"type":"SCALAR","name":"accessorIndices"},{"bufferView":1,"byteOffset":20736,"componentType":5126,"count":360,"max":[2.25933552,2.25933552,2.25933552],"min":[-2.25933552,-2.25933552,-2.25933552],"type":"VEC3","name":"accessorPositions"},{"bufferView":1,"byteOffset":25056,"componentType":5126,"count":360,"type":"VEC3","name":"accessorNormals"},{"bufferView":2,"byteOffset":6912,"componentType":5126,"count":360,"type":"VEC2","name":"accessorUVs"},{"bufferView":0,"byteOffset":2448,"componentType":5123,"count":360,"type":"SCALAR","name":"accessorIndices"},{"bufferView":1,"byteOffset":29376,"componentType":5126,"count":360,"max":[2.45222759,2.45222759,2.45222759],"min":[-2.45222759,-2.45222759,-2.45222759],"type":"VEC3","name":"accessorPositions"},{"bufferView":1,"byteOffset":33696,"componentType":5126,"count":360,"type":"VEC3","name":"accessorNormals"},{"bufferView":2,"byteOffset":9792,"componentType":5126,"count":360,"type":"VEC2","name":"accessorUVs"},{"bufferView":0,"byteOffset":3168,"componentType":5123,"count":360,"type":"SCALAR","name":"accessorIndices"},{"bufferView":1,"byteOffset":38016,"componentType":5126,"count":360,"max":[4.76680756,4.76680756,4.76680756],"min":[-4.76680756,-4.76680756,-4.76680756],"type":"VEC3","name":"accessorPositions"},{"bufferView":1,"byteOffset":42336,"componentType":5126,"count":360,"type":"VEC3","name":"accessorNormals"},{"bufferView":2,"byteOffset":12672,"componentType":5126,"count":360,"type":"VEC2","name":"accessorUVs"},{"bufferView":0,"byteOffset":3888,"componentType":5123,"count":360,"type":"SCALAR","name":"accessorIndices"},{"bufferView":1,"byteOffset":46656,"componentType":5126,"count":360,"max":[5.398477,5.398477,5.398477],"min":[-5.398477,-5.398477,-5.398477],"type":"VEC3","name":"accessorPositions"},{"bufferView":1,"byteOffset":50976,"componentType":5126,"count":360,"type":"VEC3","name":"accessorNormals"},{"bufferView":2,"byteOffset":15552,"componentType":5126,"count":360,"type":"VEC2","name":"accessorUVs"},{"bufferView":3,"componentType":5126,"count":21,"max":[3.33333325],"min":[0.0],"type":"SCALAR","name":"accessorAnimationInput"},{"bufferView":4,"componentType":5126,"count":21,"type":"VEC4","name":"accessorAnimationRotations"},{"bufferView":3,"byteOffset":84,"componentType":5126,"count":44,"max":[3.33333325],"min":[0.0],"type":"SCALAR","name":"accessorAnimationInput"},{"bufferView":4,"byteOffset":336,"componentType":5126,"count":44,"type":"VEC4","name":"accessorAnimationRotations"},{"bufferView":3,"byteOffset":260,"componentType":5126,"count":80,"max":[3.33333325],"min":[0.0],"type":"SCALAR","name":"accessorAnimationInput"},{"bufferView":5,"componentType":5126,"count":80,"type":"VEC3","name":"accessorAnimationPositions"},{"bufferView":3,"byteOffset":580,"componentType":5126,"count":9,"max":[3.33333325],"min":[0.0],"type":"SCALAR","name":"accessorAnimationInput"},{"bufferView":4,"byteOffset":1040,"componentType":5126,"count":9,"type":"VEC4","name":"accessorAnimationRotations"},{"bufferView":3,"byteOffset":616,"componentType":5126,"count":80,"max":[3.33333325],"min":[0.0],"type":"SCALAR","name":"accessorAnimationInput"},{"bufferView":5,"byteOffset":960,"componentType":5126,"count":80,"type":"VEC3","name":"accessorAnimationPositions"},{"bufferView":3,"byteOffset":936,"componentType":5126,"count":9,"max":[3.33333325],"min":[0.0],"type":"SCALAR","name":"accessorAnimationInput"},{"bufferView":4,"byteOffset":1184,"componentType":5126,"count":9,"type":"VEC4","name":"accessorAnimationRotations"},{"bufferView":3,"byteOffset":972,"componentType":5126,"count":80,"max":[3.33333325],"min":[0.0],"type":"SCALAR","name":"accessorAnimationInput"},{"bufferView":5,"byteOffset":1920,"componentType":5126,"count":80,"type":"VEC3","name":"accessorAnimationPositions"},{"bufferView":3,"byteOffset":1292,"componentType":5126,"count":8,"max":[3.33333325],"min":[0.0],"type":"SCALAR","name":"accessorAnimationInput"},{"bufferView":4,"byteOffset":1328,"componentType":5126,"count":8,"type":"VEC4","name":"accessorAnimationRotations"},{"bufferView":3,"byteOffset":1324,"componentType":5126,"count":80,"max":[3.33333325],"min":[0.0],"type":"SCALAR","name":"accessorAnimationInput"},{"bufferView":5,"byteOffset":2880,"componentType":5126,"count":80,"type":"VEC3","name":"accessorAnimationPositions"},{"bufferView":3,"byteOffset":1644,"componentType":5126,"count":4,"max":[3.33333325],"min":[0.0],"type":"SCALAR","name":"accessorAnimationInput"},{"bufferView":4,"byteOffset":1456,"componentType":5126,"count":4,"type":"VEC4","name":"accessorAnimationRotations"},{"bufferView":3,"byteOffset":1660,"componentType":5126,"count":80,"max":[3.33333325],"min":[0.0],"type":"SCALAR","name":"accessorAnimationInput"},{"bufferView":5,"byteOffset":3840,"componentType":5126,"count":80,"type":"VEC3","name":"accessorAnimationPositions"},{"bufferView":3,"byteOffset":1980,"componentType":5126,"count":86,"max":[3.33333325],"min":[0.0],"type":"SCALAR","name":"accessorAnimationInput"},{"bufferView":5,"byteOffset":4800,"componentType":5126,"count":86,"type":"VEC3","name":"accessorAnimationPositions"},{"bufferView":3,"byteOffset":2324,"componentType":5126,"count":85,"max":[3.33333325],"min":[0.0],"type":"SCALAR","name":"accessorAnimationInput"},{"bufferView":5,"byteOffset":5832,"componentType":5126,"count":85,"type":"VEC3","name":"accessorAnimationPositions"},{"bufferView":3,"byteOffset":2664,"componentType":5126,"count":87,"max":[3.33333325],"min":[0.0],"type":"SCALAR","name":"accessorAnimationInput"},{"bufferView":5,"byteOffset":6852,"componentType":5126,"count":87,"type":"VEC3","name":"accessorAnimationPositions"},{"bufferView":3,"byteOffset":3012,"componentType":5126,"count":90,"max":[3.33333325],"min":[0.0],"type":"SCALAR","name":"accessorAnimationInput"},{"bufferView":5,"byteOffset":7896,"componentType":5126,"count":90,"type":"VEC3","name":"accessorAnimationPositions"}],"bufferViews":[{"buffer":0,"byteLength":4608,"name":"bufferViewScalar"},{"buffer":0,"byteOffset":4608,"byteLength":55296,"byteStride":12,"name":"bufferViewFloatVec3"},{"buffer":0,"byteOffset":59904,"byteLength":18432,"byteStride":8,"name":"bufferViewFloatVec2"},{"buffer":0,"byteOffset":78336,"byteLength":3372,"name":"bufferViewAnimationFloatScalar"},{"buffer":0,"byteOffset":81708,"byteLength":1520,"name":"bufferViewAnimationFloatVec4"},{"buffer":0,"byteOffset":83228,"byteLength":8976,"name":"bufferViewAnimationFloatVec3"}],"buffers":[{"uri":"man_2.bin","byteLength":92204}],"materials":[{"pbrMetallicRoughness":{"baseColorTexture":{"index":0},"metallicFactor":0.0,"roughnessFactor":0.7022211},"name":"Material #48"},{"pbrMetallicRoughness":{"baseColorTexture":{"index":1},"metallicFactor":0.0,"roughnessFactor":0.3967883},"name":"Material #52"},{"pbrMetallicRoughness":{"baseColorTexture":{"index":2},"metallicFactor":0.0,"roughnessFactor":0.7022211},"name":"Material #50"},{"pbrMetallicRoughness":{"baseColorTexture":{"index":3},"metallicFactor":0.0,"roughnessFactor":0.5364733},"name":"Material #49"},{"pbrMetallicRoughness":{"baseColorTexture":{"index":4},"metallicFactor":0.0,"roughnessFactor":0.7022211},"name":"Material #51"}],"textures":[{"sampler":0,"source":0,"name":"red.jpg"},{"sampler":0,"source":1,"name":"yellow.jpg"},{"sampler":0,"source":2,"name":"blue.jpg"},{"sampler":0,"source":3,"name":"white.jpg"},{"sampler":0,"source":4,"name":"green.jpg"}],"images":[{"uri":"../ExTex/red.jpg"},{"uri":"../ExTex/yellow.jpg"},{"uri":"../ExTex/blue.jpg"},{"uri":"../ExTex/white.jpg"},{"uri":"../ExTex/green.jpg"}],"samplers":[{"magFilter":9729,"minFilter":9987}],"animations":[{"channels":[{"sampler":0,"target":{"node":1,"path":"rotation"}},{"sampler":1,"target":{"node":2,"path":"rotation"}},{"sampler":2,"target":{"node":3,"path":"translation"}},{"sampler":3,"target":{"node":3,"path":"rotation"}},{"sampler":4,"target":{"node":4,"path":"translation"}},{"sampler":5,"target":{"node":4,"path":"rotation"}},{"sampler":6,"target":{"node":5,"path":"translation"}},{"sampler":7,"target":{"node":5,"path":"rotation"}},{"sampler":8,"target":{"node":6,"path":"translation"}},{"sampler":9,"target":{"node":6,"path":"rotation"}},{"sampler":10,"target":{"node":7,"path":"translation"}},{"sampler":11,"target":{"node":8,"path":"translation"}},{"sampler":12,"target":{"node":9,"path":"translation"}},{"sampler":13,"target":{"node":10,"path":"translation"}},{"sampler":14,"target":{"node":11,"path":"translation"}}],"samplers":[{"input":44,"output":45},{"input":46,"output":47},{"input":48,"output":49},{"input":50,"output":51},{"input":52,"output":53},{"input":54,"output":55},{"input":56,"output":57},{"input":58,"output":59},{"input":60,"output":61},{"input":62,"output":63},{"input":64,"output":65},{"input":66,"output":67},{"input":68,"output":69},{"input":70,"output":71},{"input":72,"output":73}],"name":"All Animations"}]}