{"asset":{"version":"2.0","generator":"babylon.js glTF exporter for 3dsmax 2020 v20200415.4"},"scene":0,"scenes":[{"nodes":[0,12]}],"nodes":[{"children":[1,2,3,4,5,6,7,8,9,10,11],"name":"Man3"},{"mesh":0,"translation":[1.4732213,10.3630943,-1.00353527],"rotation":[0.590787649,-0.0118012559,0.004183314,0.80673],"scale":[0.5210708,0.521070838,0.5210708],"name":"Box062"},{"mesh":1,"translation":[-8.108325,5.989808,-1.41692638],"rotation":[0.4845448,-0.401773125,0.266745538,0.729823],"scale":[0.5210707,0.521070659,0.5210709],"name":"Box063"},{"mesh":2,"translation":[13.1391535,4.62029552,-0.0176324844],"rotation":[0.481810927,0.408490628,-0.2709687,0.7263399],"scale":[0.521070957,0.521071,0.521070838],"name":"Box064"},{"mesh":3,"translation":[1.39991593,9.467624,2.08995628],"rotation":[0.694568038,0.00299976,-0.00289617619,0.719415],"scale":[0.521070838,0.521071,0.521071],"name":"Box065"},{"mesh":4,"translation":[7.59575367,-9.391102,-0.1273613],"rotation":[-0.753811836,-0.162074357,0.603784442,-0.202346578],"scale":[0.5210708,0.5210709,0.521070957],"name":"Cone020"},{"mesh":5,"translation":[-5.123424,-9.243748,-0.0623760223],"rotation":[-0.7326039,0.169557959,-0.6289117,-0.197514027],"scale":[0.521070838,0.5210708,0.521070838],"name":"Cone021"},{"mesh":6,"translation":[1.53610635,12.86027,-0.8560114],"rotation":[-0.00356732029,-0.987989366,0.1527477,-0.0230738148],"scale":[0.521070957,0.521071136,0.5210711],"name":"Cone022"},{"mesh":7,"translation":[1.79663086,12.9128361,-0.6948347],"rotation":[-0.00356732029,-0.987989366,0.1527477,-0.0230738148],"scale":[0.521070957,0.521071136,0.5210711],"name":"Cylinder014"},{"mesh":8,"translation":[3.79461241,12.4555016,3.91985321],"rotation":[0.507777333,0.4921874,-0.495741248,0.5041372],"scale":[0.521070838,0.521070838,0.521070838],"name":"Sphere028"},{"mesh":9,"translation":[-1.05697656,12.158371,3.9423008],"rotation":[0.4921874,-0.507777452,0.5041373,0.4957412],"scale":[0.5210708,0.5210708,0.521070838],"name":"Sphere029"},{"mesh":10,"translation":[1.29961348,0.0651874542,-1.154069],"rotation":[0.479228616,0.524905,0.474284172,0.5194893],"scale":[0.5210709,0.5210709,0.521070838],"name":"Torus004"},{"name":"Default light"}],"meshes":[{"primitives":[{"attributes":{"POSITION":1,"NORMAL":2,"TEXCOORD_0":3},"indices":0,"material":0}],"name":"Box062"},{"primitives":[{"attributes":{"POSITION":5,"NORMAL":6,"TEXCOORD_0":7},"indices":4,"material":0}],"name":"Box063"},{"primitives":[{"attributes":{"POSITION":9,"NORMAL":10,"TEXCOORD_0":11},"indices":8,"material":0}],"name":"Box064"},{"primitives":[{"attributes":{"POSITION":13,"NORMAL":14,"TEXCOORD_0":15},"indices":12,"material":0}],"name":"Box065"},{"primitives":[{"attributes":{"POSITION":17,"NORMAL":18,"TEXCOORD_0":19},"indices":16,"material":0}],"name":"Cone020"},{"primitives":[{"attributes":{"POSITION":21,"NORMAL":22,"TEXCOORD_0":23},"indices":20,"material":1}],"name":"Cone021"},{"primitives":[{"attributes":{"POSITION":25,"NORMAL":26,"TEXCOORD_0":27},"indices":24,"material":2}],"name":"Cone022"},{"primitives":[{"attributes":{"POSITION":29,"NORMAL":30,"TEXCOORD_0":31},"indices":28,"material":2}],"name":"Cylinder014"},{"primitives":[{"attributes":{"POSITION":33,"NORMAL":34,"TEXCOORD_0":35},"indices":32,"material":3}],"name":"Sphere028"},{"primitives":[{"attributes":{"POSITION":37,"NORMAL":38,"TEXCOORD_0":39},"indices":36,"material":3}],"name":"Sphere029"},{"primitives":[{"attributes":{"POSITION":41,"NORMAL":42,"TEXCOORD_0":43},"indices":40,"material":4}],"name":"Torus004"}],"accessors":[{"bufferView":0,"componentType":5123,"count":36,"type":"SCALAR","name":"accessorIndices"},{"bufferView":1,"componentType":5126,"count":36,"max":[4.65137,35.5896378,4.484942],"min":[-4.65137,0.0,-4.484942],"type":"VEC3","name":"accessorPositions"},{"bufferView":1,"byteOffset":432,"componentType":5126,"count":36,"type":"VEC3","name":"accessorNormals"},{"bufferView":2,"componentType":5126,"count":36,"type":"VEC2","name":"accessorUVs"},{"bufferView":0,"byteOffset":72,"componentType":5123,"count":36,"type":"SCALAR","name":"accessorIndices"},{"bufferView":1,"byteOffset":864,"componentType":5126,"count":36,"max":[2.21204472,37.1205177,1.5488137],"min":[-2.21204472,0.0,-1.5488137],"type":"VEC3","name":"accessorPositions"},{"bufferView":1,"byteOffset":1296,"componentType":5126,"count":36,"type":"VEC3","name":"accessorNormals"},{"bufferView":2,"byteOffset":288,"componentType":5126,"count":36,"type":"VEC2","name":"accessorUVs"},{"bufferView":0,"byteOffset":144,"componentType":5123,"count":36,"type":"SCALAR","name":"accessorIndices"},{"bufferView":1,"byteOffset":1728,"componentType":5126,"count":36,"max":[1.04844463,26.16639,0.9451653],"min":[-1.04844463,0.0,-0.9451653],"type":"VEC3","name":"accessorPositions"},{"bufferView":1,"byteOffset":2160,"componentType":5126,"count":36,"type":"VEC3","name":"accessorNormals"},{"bufferView":2,"byteOffset":576,"componentType":5126,"count":36,"type":"VEC2","name":"accessorUVs"},{"bufferView":0,"byteOffset":216,"componentType":5123,"count":36,"type":"SCALAR","name":"accessorIndices"},{"bufferView":1,"byteOffset":2592,"componentType":5126,"count":36,"max":[4.632921,24.833107,0.9093116],"min":[-4.632921,0.0,-0.9093116],"type":"VEC3","name":"accessorPositions"},{"bufferView":1,"byteOffset":3024,"componentType":5126,"count":36,"type":"VEC3","name":"accessorNormals"},{"bufferView":2,"byteOffset":864,"componentType":5126,"count":36,"type":"VEC2","name":"accessorUVs"},{"bufferView":0,"byteOffset":288,"componentType":5123,"count":144,"type":"SCALAR","name":"accessorIndices"},{"bufferView":1,"byteOffset":3456,"componentType":5126,"count":144,"max":[5.477084,20.1147842,5.477084],"min":[-5.477084,0.0,-5.477084],"type":"VEC3","name":"accessorPositions"},{"bufferView":1,"byteOffset":5184,"componentType":5126,"count":144,"type":"VEC3","name":"accessorNormals"},{"bufferView":2,"byteOffset":1152,"componentType":5126,"count":144,"type":"VEC2","name":"accessorUVs"},{"bufferView":0,"byteOffset":576,"componentType":5123,"count":144,"type":"SCALAR","name":"accessorIndices"},{"bufferView":1,"byteOffset":6912,"componentType":5126,"count":144,"max":[5.55315971,20.1342487,5.55315971],"min":[-5.55315971,0.0,-5.55315971],"type":"VEC3","name":"accessorPositions"},{"bufferView":1,"byteOffset":8640,"componentType":5126,"count":144,"type":"VEC3","name":"accessorNormals"},{"bufferView":2,"byteOffset":2304,"componentType":5126,"count":144,"type":"VEC2","name":"accessorUVs"},{"bufferView":0,"byteOffset":864,"componentType":5123,"count":144,"type":"SCALAR","name":"accessorIndices"},{"bufferView":1,"byteOffset":10368,"componentType":5126,"count":144,"max":[5.616736,42.7458,5.616736],"min":[-5.616736,0.0,-5.616736],"type":"VEC3","name":"accessorPositions"},{"bufferView":1,"byteOffset":12096,"componentType":5126,"count":144,"type":"VEC3","name":"accessorNormals"},{"bufferView":2,"byteOffset":3456,"componentType":5126,"count":144,"type":"VEC2","name":"accessorUVs"},{"bufferView":0,"byteOffset":1152,"componentType":5123,"count":144,"type":"SCALAR","name":"accessorIndices"},{"bufferView":1,"byteOffset":13824,"componentType":5126,"count":144,"max":[9.306803,1.95998108,9.306803],"min":[-9.306803,0.0,-9.306803],"type":"VEC3","name":"accessorPositions"},{"bufferView":1,"byteOffset":15552,"componentType":5126,"count":144,"type":"VEC3","name":"accessorNormals"},{"bufferView":2,"byteOffset":4608,"componentType":5126,"count":144,"type":"VEC2","name":"accessorUVs"},{"bufferView":0,"byteOffset":1440,"componentType":5123,"count":360,"type":"SCALAR","name":"accessorIndices"},{"bufferView":1,"byteOffset":17280,"componentType":5126,"count":360,"max":[2.38181567,2.38181567,2.38181567],"min":[-2.38181567,-2.38181567,-2.38181567],"type":"VEC3","name":"accessorPositions"},{"bufferView":1,"byteOffset":21600,"componentType":5126,"count":360,"type":"VEC3","name":"accessorNormals"},{"bufferView":2,"byteOffset":5760,"componentType":5126,"count":360,"type":"VEC2","name":"accessorUVs"},{"bufferView":0,"byteOffset":2160,"componentType":5123,"count":360,"type":"SCALAR","name":"accessorIndices"},{"bufferView":1,"byteOffset":25920,"componentType":5126,"count":360,"max":[2.64933228,2.64933228,2.64933228],"min":[-2.64933228,-2.64933228,-2.64933228],"type":"VEC3","name":"accessorPositions"},{"bufferView":1,"byteOffset":30240,"componentType":5126,"count":360,"type":"VEC3","name":"accessorNormals"},{"bufferView":2,"byteOffset":8640,"componentType":5126,"count":360,"type":"VEC2","name":"accessorUVs"},{"bufferView":0,"byteOffset":2880,"componentType":5123,"count":1728,"type":"SCALAR","name":"accessorIndices"},{"bufferView":1,"byteOffset":34560,"componentType":5126,"count":1728,"max":[25.0589886,7.80542755,25.0589886],"min":[-25.0589886,-7.80542755,-25.0589886],"type":"VEC3","name":"accessorPositions"},{"bufferView":1,"byteOffset":55296,"componentType":5126,"count":1728,"type":"VEC3","name":"accessorNormals"},{"bufferView":2,"byteOffset":11520,"componentType":5126,"count":1728,"type":"VEC2","name":"accessorUVs"},{"bufferView":3,"componentType":5126,"count":40,"max":[3.33333325],"min":[0.0],"type":"SCALAR","name":"accessorAnimationInput"},{"bufferView":4,"componentType":5126,"count":40,"type":"VEC3","name":"accessorAnimationPositions"},{"bufferView":3,"byteOffset":160,"componentType":5126,"count":5,"max":[3.33333325],"min":[0.0],"type":"SCALAR","name":"accessorAnimationInput"},{"bufferView":5,"componentType":5126,"count":5,"type":"VEC4","name":"accessorAnimationRotations"},{"bufferView":3,"byteOffset":180,"componentType":5126,"count":40,"max":[3.33333325],"min":[0.0],"type":"SCALAR","name":"accessorAnimationInput"},{"bufferView":4,"byteOffset":480,"componentType":5126,"count":40,"type":"VEC3","name":"accessorAnimationPositions"},{"bufferView":3,"byteOffset":340,"componentType":5126,"count":60,"max":[3.33333325],"min":[0.0],"type":"SCALAR","name":"accessorAnimationInput"},{"bufferView":5,"byteOffset":80,"componentType":5126,"count":60,"type":"VEC4","name":"accessorAnimationRotations"},{"bufferView":3,"byteOffset":580,"componentType":5126,"count":40,"max":[3.33333325],"min":[0.0],"type":"SCALAR","name":"accessorAnimationInput"},{"bufferView":4,"byteOffset":960,"componentType":5126,"count":40,"type":"VEC3","name":"accessorAnimationPositions"},{"bufferView":3,"byteOffset":740,"componentType":5126,"count":70,"max":[3.33333325],"min":[0.0],"type":"SCALAR","name":"accessorAnimationInput"},{"bufferView":5,"byteOffset":1040,"componentType":5126,"count":70,"type":"VEC4","name":"accessorAnimationRotations"},{"bufferView":3,"byteOffset":1020,"componentType":5126,"count":40,"max":[3.33333325],"min":[0.0],"type":"SCALAR","name":"accessorAnimationInput"},{"bufferView":4,"byteOffset":1440,"componentType":5126,"count":40,"type":"VEC3","name":"accessorAnimationPositions"},{"bufferView":3,"byteOffset":1180,"componentType":5126,"count":4,"max":[3.33333325],"min":[0.0],"type":"SCALAR","name":"accessorAnimationInput"},{"bufferView":5,"byteOffset":2160,"componentType":5126,"count":4,"type":"VEC4","name":"accessorAnimationRotations"},{"bufferView":3,"byteOffset":1196,"componentType":5126,"count":28,"max":[3.33333325],"min":[0.0],"type":"SCALAR","name":"accessorAnimationInput"},{"bufferView":5,"byteOffset":2224,"componentType":5126,"count":28,"type":"VEC4","name":"accessorAnimationRotations"},{"bufferView":3,"byteOffset":1308,"componentType":5126,"count":28,"max":[3.33333325],"min":[0.0],"type":"SCALAR","name":"accessorAnimationInput"},{"bufferView":5,"byteOffset":2672,"componentType":5126,"count":28,"type":"VEC4","name":"accessorAnimationRotations"},{"bufferView":3,"byteOffset":1420,"componentType":5126,"count":40,"max":[3.33333325],"min":[0.0],"type":"SCALAR","name":"accessorAnimationInput"},{"bufferView":4,"byteOffset":1920,"componentType":5126,"count":40,"type":"VEC3","name":"accessorAnimationPositions"},{"bufferView":3,"byteOffset":1580,"componentType":5126,"count":4,"max":[3.33333325],"min":[0.0],"type":"SCALAR","name":"accessorAnimationInput"},{"bufferView":5,"byteOffset":3120,"componentType":5126,"count":4,"type":"VEC4","name":"accessorAnimationRotations"},{"bufferView":3,"byteOffset":1596,"componentType":5126,"count":40,"max":[3.33333325],"min":[0.0],"type":"SCALAR","name":"accessorAnimationInput"},{"bufferView":4,"byteOffset":2400,"componentType":5126,"count":40,"type":"VEC3","name":"accessorAnimationPositions"},{"bufferView":3,"byteOffset":1756,"componentType":5126,"count":4,"max":[3.33333325],"min":[0.0],"type":"SCALAR","name":"accessorAnimationInput"},{"bufferView":5,"byteOffset":3184,"componentType":5126,"count":4,"type":"VEC4","name":"accessorAnimationRotations"},{"bufferView":3,"byteOffset":1772,"componentType":5126,"count":58,"max":[3.33333325],"min":[0.0],"type":"SCALAR","name":"accessorAnimationInput"},{"bufferView":4,"byteOffset":2880,"componentType":5126,"count":58,"type":"VEC3","name":"accessorAnimationPositions"},{"bufferView":3,"byteOffset":2004,"componentType":5126,"count":57,"max":[3.33333325],"min":[0.0],"type":"SCALAR","name":"accessorAnimationInput"},{"bufferView":4,"byteOffset":3576,"componentType":5126,"count":57,"type":"VEC3","name":"accessorAnimationPositions"},{"bufferView":3,"byteOffset":2232,"componentType":5126,"count":40,"max":[3.33333325],"min":[0.0],"type":"SCALAR","name":"accessorAnimationInput"},{"bufferView":4,"byteOffset":4260,"componentType":5126,"count":40,"type":"VEC3","name":"accessorAnimationPositions"}],"bufferViews":[{"buffer":0,"byteLength":6336,"name":"bufferViewScalar"},{"buffer":0,"byteOffset":6336,"byteLength":76032,"byteStride":12,"name":"bufferViewFloatVec3"},{"buffer":0,"byteOffset":82368,"byteLength":25344,"byteStride":8,"name":"bufferViewFloatVec2"},{"buffer":0,"byteOffset":107712,"byteLength":2392,"name":"bufferViewAnimationFloatScalar"},{"buffer":0,"byteOffset":110104,"byteLength":4740,"name":"bufferViewAnimationFloatVec3"},{"buffer":0,"byteOffset":114844,"byteLength":3248,"name":"bufferViewAnimationFloatVec4"}],"buffers":[{"uri":"man_3.bin","byteLength":118092}],"materials":[{"pbrMetallicRoughness":{"baseColorTexture":{"index":0},"metallicFactor":0.0,"roughnessFactor":0.7022211},"name":"Material #50"},{"pbrMetallicRoughness":{"baseColorTexture":{"index":1},"metallicFactor":0.0,"roughnessFactor":0.7022211},"name":"Material #51"},{"pbrMetallicRoughness":{"baseColorTexture":{"index":2},"metallicFactor":0.0,"roughnessFactor":0.7022211},"name":"Material #48"},{"pbrMetallicRoughness":{"baseColorTexture":{"index":3},"metallicFactor":0.0,"roughnessFactor":0.5364733},"name":"Material #49"},{"pbrMetallicRoughness":{"baseColorTexture":{"index":4},"metallicFactor":0.0,"roughnessFactor":0.3967883},"name":"Material #52"}],"textures":[{"sampler":0,"source":0,"name":"blue.jpg"},{"sampler":0,"source":1,"name":"green.jpg"},{"sampler":0,"source":2,"name":"red.jpg"},{"sampler":0,"source":3,"name":"white.jpg"},{"sampler":0,"source":4,"name":"yellow.jpg"}],"images":[{"uri":"../ExTex/blue.jpg"},{"uri":"../ExTex/green.jpg"},{"uri":"../ExTex/red.jpg"},{"uri":"../ExTex/white.jpg"},{"uri":"../ExTex/yellow.jpg"}],"samplers":[{"magFilter":9729,"minFilter":9987}],"animations":[{"channels":[{"sampler":0,"target":{"node":1,"path":"translation"}},{"sampler":1,"target":{"node":1,"path":"rotation"}},{"sampler":2,"target":{"node":2,"path":"translation"}},{"sampler":3,"target":{"node":2,"path":"rotation"}},{"sampler":4,"target":{"node":3,"path":"translation"}},{"sampler":5,"target":{"node":3,"path":"rotation"}},{"sampler":6,"target":{"node":4,"path":"translation"}},{"sampler":7,"target":{"node":4,"path":"rotation"}},{"sampler":8,"target":{"node":5,"path":"rotation"}},{"sampler":9,"target":{"node":6,"path":"rotation"}},{"sampler":10,"target":{"node":7,"path":"translation"}},{"sampler":11,"target":{"node":7,"path":"rotation"}},{"sampler":12,"target":{"node":8,"path":"translation"}},{"sampler":13,"target":{"node":8,"path":"rotation"}},{"sampler":14,"target":{"node":9,"path":"translation"}},{"sampler":15,"target":{"node":10,"path":"translation"}},{"sampler":16,"target":{"node":11,"path":"translation"}}],"samplers":[{"input":44,"output":45},{"input":46,"output":47},{"input":48,"output":49},{"input":50,"output":51},{"input":52,"output":53},{"input":54,"output":55},{"input":56,"output":57},{"input":58,"output":59},{"input":60,"output":61},{"input":62,"output":63},{"input":64,"output":65},{"input":66,"output":67},{"input":68,"output":69},{"input":70,"output":71},{"input":72,"output":73},{"input":74,"output":75},{"input":76,"output":77}],"name":"All Animations"}]}