{"asset":{"version":"2.0","generator":"babylon.js glTF exporter for 3dsmax 2020 v20200415.4"},"scene":0,"scenes":[{"nodes":[0,11]}],"nodes":[{"children":[1,2,3,4,5,6,7,8,9,10],"name":"Man5"},{"mesh":0,"translation":[-1.779584,8.988439,-0.228108883],"rotation":[0.000382762752,-0.9994146,0.0320621058,0.0119306417],"scale":[0.648592532,0.6485927,0.6485929],"name":"Box072"},{"mesh":1,"translation":[10.576601,8.701633,7.301114],"rotation":[0.486611247,0.304566026,-0.185851544,0.797438562],"scale":[0.648592651,0.6485927,0.6485926],"name":"Box073"},{"mesh":2,"translation":[-10.0735512,9.407874,8.222047],"rotation":[0.4119247,-0.4446792,0.24174422,0.75771904],"scale":[0.6485924,0.6485925,0.6485927],"name":"Box074"},{"mesh":3,"translation":[-1.39719462,2.59813261,-3.92222166],"rotation":[-0.0306139,-0.908819258,0.415748239,0.01623902],"scale":[0.648592651,0.6485928,0.648592532],"name":"Box075"},{"mesh":4,"translation":[-0.474321425,17.1829472,-23.3872013],"rotation":[0.34991622,0.0392750725,-0.0146851558,0.9358421],"scale":[0.648592532,0.648592651,0.648592651],"name":"Box076"},{"mesh":5,"translation":[0.7364005,-9.431118,-0.240183651],"rotation":[-0.8229361,-0.0105347736,-0.56797117,-0.008595571],"scale":[0.6485926,0.648592651,0.648592651],"name":"Cone023"},{"mesh":6,"translation":[-0.381701559,1.56635714,-0.5150964],"rotation":[0.0,0.735208035,0.0,0.677841544],"scale":[0.648592532,0.648592532,0.648592532],"name":"Sphere032"},{"mesh":7,"translation":[-11.49988,5.86688137,8.491586],"rotation":[0.53761375,-0.346820861,0.2574831,0.7241473],"scale":[0.648592532,0.64859277,0.648592353],"name":"Sphere033"},{"mesh":8,"translation":[11.0678682,5.47815037,8.250201],"rotation":[0.5443029,0.351266325,-0.268134654,0.713057],"scale":[0.648592532,0.6485925,0.648592949],"name":"Sphere034"},{"mesh":9,"translation":[0.344603866,4.74171638,12.3358355],"rotation":[0.721389234,0.008213313,-0.008556719,0.6924283],"scale":[0.64859277,0.6485925,0.648592651],"name":"Tube003"},{"name":"Default light"}],"meshes":[{"primitives":[{"attributes":{"POSITION":1,"NORMAL":2,"TEXCOORD_0":3},"indices":0,"material":0}],"name":"Box072"},{"primitives":[{"attributes":{"POSITION":5,"NORMAL":6,"TEXCOORD_0":7},"indices":4,"material":1}],"name":"Box073"},{"primitives":[{"attributes":{"POSITION":9,"NORMAL":10,"TEXCOORD_0":11},"indices":8,"material":1}],"name":"Box074"},{"primitives":[{"attributes":{"POSITION":13,"NORMAL":14,"TEXCOORD_0":15},"indices":12,"material":2}],"name":"Box075"},{"primitives":[{"attributes":{"POSITION":17,"NORMAL":18,"TEXCOORD_0":19},"indices":16,"material":2}],"name":"Box076"},{"primitives":[{"attributes":{"POSITION":21,"NORMAL":22,"TEXCOORD_0":23},"indices":20,"material":0}],"name":"Cone023"},{"primitives":[{"attributes":{"POSITION":25,"NORMAL":26,"TEXCOORD_0":27},"indices":24,"material":3}],"name":"Sphere032"},{"primitives":[{"attributes":{"POSITION":29,"NORMAL":30,"TEXCOORD_0":31},"indices":28,"material":4}],"name":"Sphere033"},{"primitives":[{"attributes":{"POSITION":33,"NORMAL":34,"TEXCOORD_0":35},"indices":32,"material":4}],"name":"Sphere034"},{"primitives":[{"attributes":{"POSITION":37,"NORMAL":38,"TEXCOORD_0":39},"indices":36,"material":1}],"name":"Tube003"}],"accessors":[{"bufferView":0,"componentType":5123,"count":36,"type":"SCALAR","name":"accessorIndices"},{"bufferView":1,"componentType":5126,"count":36,"max":[1.59432983,21.998621,11.4617538],"min":[-1.59432983,0.0,-11.4617538],"type":"VEC3","name":"accessorPositions"},{"bufferView":1,"byteOffset":432,"componentType":5126,"count":36,"type":"VEC3","name":"accessorNormals"},{"bufferView":2,"componentType":5126,"count":36,"type":"VEC2","name":"accessorUVs"},{"bufferView":0,"byteOffset":72,"componentType":5123,"count":36,"type":"SCALAR","name":"accessorIndices"},{"bufferView":1,"byteOffset":864,"componentType":5126,"count":36,"max":[4.54713869,0.0,0.539971232],"min":[-4.54713869,-8.195799,-0.539971232],"type":"VEC3","name":"accessorPositions"},{"bufferView":1,"byteOffset":1296,"componentType":5126,"count":36,"type":"VEC3","name":"accessorNormals"},{"bufferView":2,"byteOffset":288,"componentType":5126,"count":36,"type":"VEC2","name":"accessorUVs"},{"bufferView":0,"byteOffset":144,"componentType":5123,"count":36,"type":"SCALAR","name":"accessorIndices"},{"bufferView":1,"byteOffset":1728,"componentType":5126,"count":36,"max":[4.46292,0.0,0.508792162],"min":[-4.46292,-2.94422579,-0.508792162],"type":"VEC3","name":"accessorPositions"},{"bufferView":1,"byteOffset":2160,"componentType":5126,"count":36,"type":"VEC3","name":"accessorNormals"},{"bufferView":2,"byteOffset":576,"componentType":5126,"count":36,"type":"VEC2","name":"accessorUVs"},{"bufferView":0,"byteOffset":216,"componentType":5123,"count":36,"type":"SCALAR","name":"accessorIndices"},{"bufferView":1,"byteOffset":2592,"componentType":5126,"count":36,"max":[3.432573,47.2782135,1.92971051],"min":[-3.432573,0.0,-1.92971051],"type":"VEC3","name":"accessorPositions"},{"bufferView":1,"byteOffset":3024,"componentType":5126,"count":36,"type":"VEC3","name":"accessorNormals"},{"bufferView":2,"byteOffset":864,"componentType":5126,"count":36,"type":"VEC2","name":"accessorUVs"},{"bufferView":0,"byteOffset":288,"componentType":5123,"count":36,"type":"SCALAR","name":"accessorIndices"},{"bufferView":1,"byteOffset":3456,"componentType":5126,"count":36,"max":[6.11124,5.88740969,1.40423989],"min":[-6.11124,0.0,-1.40423989],"type":"VEC3","name":"accessorPositions"},{"bufferView":1,"byteOffset":3888,"componentType":5126,"count":36,"type":"VEC3","name":"accessorNormals"},{"bufferView":2,"byteOffset":1152,"componentType":5126,"count":36,"type":"VEC2","name":"accessorUVs"},{"bufferView":0,"byteOffset":360,"componentType":5123,"count":144,"type":"SCALAR","name":"accessorIndices"},{"bufferView":1,"byteOffset":4320,"componentType":5126,"count":144,"max":[4.132727,13.937623,4.132727],"min":[-4.132727,0.0,-4.132727],"type":"VEC3","name":"accessorPositions"},{"bufferView":1,"byteOffset":6048,"componentType":5126,"count":144,"type":"VEC3","name":"accessorNormals"},{"bufferView":2,"byteOffset":1440,"componentType":5126,"count":144,"type":"VEC2","name":"accessorUVs"},{"bufferView":0,"byteOffset":648,"componentType":5123,"count":540,"type":"SCALAR","name":"accessorIndices"},{"bufferView":1,"byteOffset":7776,"componentType":5126,"count":540,"max":[22.783926,23.0356159,22.4088],"min":[-22.7839241,-23.0356159,-22.9094257],"type":"VEC3","name":"accessorPositions"},{"bufferView":1,"byteOffset":14256,"componentType":5126,"count":540,"type":"VEC3","name":"accessorNormals"},{"bufferView":2,"byteOffset":2592,"componentType":5126,"count":540,"type":"VEC2","name":"accessorUVs"},{"bufferView":0,"byteOffset":1728,"componentType":5123,"count":360,"type":"SCALAR","name":"accessorIndices"},{"bufferView":1,"byteOffset":20736,"componentType":5126,"count":360,"max":[3.73563623,3.73563623,3.73563623],"min":[-3.73563623,-3.73563623,-3.73563623],"type":"VEC3","name":"accessorPositions"},{"bufferView":1,"byteOffset":25056,"componentType":5126,"count":360,"type":"VEC3","name":"accessorNormals"},{"bufferView":2,"byteOffset":6912,"componentType":5126,"count":360,"type":"VEC2","name":"accessorUVs"},{"bufferView":0,"byteOffset":2448,"componentType":5123,"count":360,"type":"SCALAR","name":"accessorIndices"},{"bufferView":1,"byteOffset":29376,"componentType":5126,"count":360,"max":[3.22456217,3.22456217,3.22456217],"min":[-3.22456217,-3.22456217,-3.22456217],"type":"VEC3","name":"accessorPositions"},{"bufferView":1,"byteOffset":33696,"componentType":5126,"count":360,"type":"VEC3","name":"accessorNormals"},{"bufferView":2,"byteOffset":9792,"componentType":5126,"count":360,"type":"VEC2","name":"accessorUVs"},{"bufferView":0,"byteOffset":3168,"componentType":5123,"count":288,"type":"SCALAR","name":"accessorIndices"},{"bufferView":1,"byteOffset":38016,"componentType":5126,"count":288,"max":[4.76417971,8.227579,4.76417971],"min":[-4.76417971,0.0,-4.76417971],"type":"VEC3","name":"accessorPositions"},{"bufferView":1,"byteOffset":41472,"componentType":5126,"count":288,"type":"VEC3","name":"accessorNormals"},{"bufferView":2,"byteOffset":12672,"componentType":5126,"count":288,"type":"VEC2","name":"accessorUVs"},{"bufferView":3,"componentType":5126,"count":78,"max":[3.33333325],"min":[0.0],"type":"SCALAR","name":"accessorAnimationInput"},{"bufferView":4,"componentType":5126,"count":78,"type":"VEC3","name":"accessorAnimationPositions"},{"bufferView":3,"byteOffset":312,"componentType":5126,"count":22,"max":[3.33333325],"min":[0.0],"type":"SCALAR","name":"accessorAnimationInput"},{"bufferView":5,"componentType":5126,"count":22,"type":"VEC4","name":"accessorAnimationRotations"},{"bufferView":3,"byteOffset":400,"componentType":5126,"count":78,"max":[3.33333325],"min":[0.0],"type":"SCALAR","name":"accessorAnimationInput"},{"bufferView":4,"byteOffset":936,"componentType":5126,"count":78,"type":"VEC3","name":"accessorAnimationPositions"},{"bufferView":3,"byteOffset":712,"componentType":5126,"count":15,"max":[3.33333325],"min":[0.0],"type":"SCALAR","name":"accessorAnimationInput"},{"bufferView":5,"byteOffset":352,"componentType":5126,"count":15,"type":"VEC4","name":"accessorAnimationRotations"},{"bufferView":3,"byteOffset":772,"componentType":5126,"count":78,"max":[3.33333325],"min":[0.0],"type":"SCALAR","name":"accessorAnimationInput"},{"bufferView":4,"byteOffset":1872,"componentType":5126,"count":78,"type":"VEC3","name":"accessorAnimationPositions"},{"bufferView":3,"byteOffset":1084,"componentType":5126,"count":16,"max":[3.33333325],"min":[0.0],"type":"SCALAR","name":"accessorAnimationInput"},{"bufferView":5,"byteOffset":592,"componentType":5126,"count":16,"type":"VEC4","name":"accessorAnimationRotations"},{"bufferView":3,"byteOffset":1148,"componentType":5126,"count":81,"max":[3.33333325],"min":[0.0],"type":"SCALAR","name":"accessorAnimationInput"},{"bufferView":4,"byteOffset":2808,"componentType":5126,"count":81,"type":"VEC3","name":"accessorAnimationPositions"},{"bufferView":3,"byteOffset":1472,"componentType":5126,"count":81,"max":[3.33333325],"min":[0.0],"type":"SCALAR","name":"accessorAnimationInput"},{"bufferView":4,"byteOffset":3780,"componentType":5126,"count":81,"type":"VEC3","name":"accessorAnimationPositions"},{"bufferView":3,"byteOffset":1796,"componentType":5126,"count":14,"max":[3.33333325],"min":[0.0],"type":"SCALAR","name":"accessorAnimationInput"},{"bufferView":5,"byteOffset":848,"componentType":5126,"count":14,"type":"VEC4","name":"accessorAnimationRotations"},{"bufferView":3,"byteOffset":1852,"componentType":5126,"count":78,"max":[3.33333325],"min":[0.0],"type":"SCALAR","name":"accessorAnimationInput"},{"bufferView":4,"byteOffset":4752,"componentType":5126,"count":78,"type":"VEC3","name":"accessorAnimationPositions"},{"bufferView":3,"byteOffset":2164,"componentType":5126,"count":78,"max":[3.33333325],"min":[0.0],"type":"SCALAR","name":"accessorAnimationInput"},{"bufferView":4,"byteOffset":5688,"componentType":5126,"count":78,"type":"VEC3","name":"accessorAnimationPositions"},{"bufferView":3,"byteOffset":2476,"componentType":5126,"count":78,"max":[3.33333325],"min":[0.0],"type":"SCALAR","name":"accessorAnimationInput"},{"bufferView":4,"byteOffset":6624,"componentType":5126,"count":78,"type":"VEC3","name":"accessorAnimationPositions"},{"bufferView":3,"byteOffset":2788,"componentType":5126,"count":70,"max":[3.33333325],"min":[0.0],"type":"SCALAR","name":"accessorAnimationInput"},{"bufferView":4,"byteOffset":7560,"componentType":5126,"count":70,"type":"VEC3","name":"accessorAnimationPositions"},{"bufferView":3,"byteOffset":3068,"componentType":5126,"count":41,"max":[3.33333325],"min":[0.0],"type":"SCALAR","name":"accessorAnimationInput"},{"bufferView":5,"byteOffset":1072,"componentType":5126,"count":41,"type":"VEC4","name":"accessorAnimationRotations"}],"bufferViews":[{"buffer":0,"byteLength":3744,"name":"bufferViewScalar"},{"buffer":0,"byteOffset":3744,"byteLength":44928,"byteStride":12,"name":"bufferViewFloatVec3"},{"buffer":0,"byteOffset":48672,"byteLength":14976,"byteStride":8,"name":"bufferViewFloatVec2"},{"buffer":0,"byteOffset":63648,"byteLength":3232,"name":"bufferViewAnimationFloatScalar"},{"buffer":0,"byteOffset":66880,"byteLength":8400,"name":"bufferViewAnimationFloatVec3"},{"buffer":0,"byteOffset":75280,"byteLength":1728,"name":"bufferViewAnimationFloatVec4"}],"buffers":[{"uri":"man_5.bin","byteLength":77008}],"materials":[{"pbrMetallicRoughness":{"baseColorTexture":{"index":0},"metallicFactor":0.0,"roughnessFactor":0.7022211},"name":"Material #50"},{"pbrMetallicRoughness":{"baseColorTexture":{"index":1},"metallicFactor":0.0,"roughnessFactor":0.7022211},"name":"Material #48"},{"pbrMetallicRoughness":{"baseColorTexture":{"index":2},"metallicFactor":0.0,"roughnessFactor":0.3967883},"name":"Material #52"},{"pbrMetallicRoughness":{"baseColorTexture":{"index":3},"metallicFactor":0.0,"roughnessFactor":0.7022211},"name":"Material #51"},{"pbrMetallicRoughness":{"baseColorTexture":{"index":4},"metallicFactor":0.0,"roughnessFactor":0.5364733},"name":"Material #49"}],"textures":[{"sampler":0,"source":0,"name":"blue.jpg"},{"sampler":0,"source":1,"name":"red.jpg"},{"sampler":0,"source":2,"name":"yellow.jpg"},{"sampler":0,"source":3,"name":"green.jpg"},{"sampler":0,"source":4,"name":"white.jpg"}],"images":[{"uri":"../ExTex/blue.jpg"},{"uri":"../ExTex/red.jpg"},{"uri":"../ExTex/yellow.jpg"},{"uri":"../ExTex/green.jpg"},{"uri":"../ExTex/white.jpg"}],"samplers":[{"magFilter":9729,"minFilter":9987}],"animations":[{"channels":[{"sampler":0,"target":{"node":1,"path":"translation"}},{"sampler":1,"target":{"node":1,"path":"rotation"}},{"sampler":2,"target":{"node":2,"path":"translation"}},{"sampler":3,"target":{"node":2,"path":"rotation"}},{"sampler":4,"target":{"node":3,"path":"translation"}},{"sampler":5,"target":{"node":3,"path":"rotation"}},{"sampler":6,"target":{"node":4,"path":"translation"}},{"sampler":7,"target":{"node":5,"path":"translation"}},{"sampler":8,"target":{"node":6,"path":"rotation"}},{"sampler":9,"target":{"node":7,"path":"translation"}},{"sampler":10,"target":{"node":8,"path":"translation"}},{"sampler":11,"target":{"node":9,"path":"translation"}},{"sampler":12,"target":{"node":10,"path":"translation"}},{"sampler":13,"target":{"node":10,"path":"rotation"}}],"samplers":[{"input":40,"output":41},{"input":42,"output":43},{"input":44,"output":45},{"input":46,"output":47},{"input":48,"output":49},{"input":50,"output":51},{"input":52,"output":53},{"input":54,"output":55},{"input":56,"output":57},{"input":58,"output":59},{"input":60,"output":61},{"input":62,"output":63},{"input":64,"output":65},{"input":66,"output":67}],"name":"All Animations"}]}