{"asset":{"version":"2.0","generator":"babylon.js glTF exporter for 3dsmax 2020 v20200415.4"},"scene":0,"scenes":[{"nodes":[0,13]}],"nodes":[{"children":[1,2,3,4,5,6,7,8,9,10,11,12],"translation":[-3.874302E-07,-9.536743E-07,-9.536743E-07],"name":"Man1"},{"mesh":0,"translation":[-0.518229,7.79174757,6.24518061],"rotation":[0.7316832,-0.00404324429,0.00434007635,0.681619048],"scale":[0.6445479,0.644547939,0.644548],"name":"Box051"},{"mesh":1,"translation":[-0.3989093,10.513998,6.58059],"rotation":[0.6130802,-0.0139284749,0.01081162,0.7898239],"scale":[0.644548,0.644548059,0.644548059],"name":"Box052"},{"mesh":2,"translation":[3.24215651,-5.429902,-2.696505],"rotation":[0.4151583,0.5539818,-0.371903121,0.6184141],"scale":[0.644548,0.6445479,0.6445478],"name":"Box053"},{"mesh":3,"translation":[-4.507943,-5.29755974,-0.8671211],"rotation":[0.4207708,-0.544670045,0.365836263,0.626458645],"scale":[0.6445482,0.644547939,0.644548237],"name":"Box054"},{"mesh":4,"translation":[-0.432020426,-20.0562782,-1.92357731],"rotation":[0.0,0.7484019,0.0,0.663245559],"scale":[0.644547939,0.644547939,0.644547939],"name":"Cone013"},{"mesh":5,"translation":[-0.984301,16.4911118,-0.276623815],"rotation":[0.052104488,-0.359195054,0.0200900212,0.931590259],"scale":[0.644548,0.644548,0.6445478],"name":"Cone014"},{"mesh":6,"translation":[-5.727091,14.1417675,-5.483743],"rotation":[0.18503122,-0.8143126,0.406699926,0.370477617],"scale":[0.6445479,0.6445478,0.6445479],"name":"Cone015"},{"mesh":7,"translation":[2.558037,13.9370565,-7.875123],"rotation":[-0.105282731,-0.861437,0.455115557,-0.199278],"scale":[0.6445478,0.644547939,0.6445479],"name":"Cone016"},{"mesh":8,"translation":[4.59444332,15.7357492,-3.385415],"rotation":[0.183321878,0.783969164,-0.272922069,0.526591957],"scale":[0.644548059,0.644547939,0.6445479],"name":"Cone018"},{"mesh":9,"translation":[-0.298262447,8.903557,-1.12456787],"rotation":[0.5575202,0.0335310027,-0.0225454886,0.829179466],"scale":[0.644548059,0.6445479,0.6445477],"name":"Sphere013"},{"mesh":10,"translation":[-7.570013,12.3777094,3.21119785],"rotation":[0.481735,-0.413032442,0.2755524,0.7220848],"scale":[0.644548,0.644548059,0.64454776],"name":"Sphere014"},{"mesh":11,"translation":[7.85903168,12.2344036,1.34731567],"rotation":[0.452140927,0.4913108,-0.33386153,0.6653712],"scale":[0.6445479,0.6445478,0.6445479],"name":"Sphere015"},{"name":"Default light"}],"meshes":[{"primitives":[{"attributes":{"POSITION":1,"NORMAL":2,"TEXCOORD_0":3},"indices":0,"material":0}],"name":"Box051"},{"primitives":[{"attributes":{"POSITION":5,"NORMAL":6,"TEXCOORD_0":7},"indices":4,"material":0}],"name":"Box052"},{"primitives":[{"attributes":{"POSITION":9,"NORMAL":10,"TEXCOORD_0":11},"indices":8,"material":0}],"name":"Box053"},{"primitives":[{"attributes":{"POSITION":13,"NORMAL":14,"TEXCOORD_0":15},"indices":12,"material":0}],"name":"Box054"},{"primitives":[{"attributes":{"POSITION":17,"NORMAL":18,"TEXCOORD_0":19},"indices":16,"material":1}],"name":"Cone013"},{"primitives":[{"attributes":{"POSITION":21,"NORMAL":22,"TEXCOORD_0":23},"indices":20,"material":2}],"name":"Cone014"},{"primitives":[{"attributes":{"POSITION":25,"NORMAL":26,"TEXCOORD_0":27},"indices":24,"material":2}],"name":"Cone015"},{"primitives":[{"attributes":{"POSITION":29,"NORMAL":30,"TEXCOORD_0":31},"indices":28,"material":2}],"name":"Cone016"},{"primitives":[{"attributes":{"POSITION":33,"NORMAL":34,"TEXCOORD_0":35},"indices":32,"material":2}],"name":"Cone018"},{"primitives":[{"attributes":{"POSITION":37,"NORMAL":38,"TEXCOORD_0":39},"indices":36,"material":3}],"name":"Sphere013"},{"primitives":[{"attributes":{"POSITION":41,"NORMAL":42,"TEXCOORD_0":43},"indices":40,"material":4}],"name":"Sphere014"},{"primitives":[{"attributes":{"POSITION":45,"NORMAL":46,"TEXCOORD_0":47},"indices":44,"material":4}],"name":"Sphere015"}],"accessors":[{"bufferView":0,"componentType":5123,"count":36,"type":"SCALAR","name":"accessorIndices"},{"bufferView":1,"componentType":5126,"count":36,"max":[3.5512476,12.74538,0.663328767],"min":[-3.5512476,0.0,-0.663328767],"type":"VEC3","name":"accessorPositions"},{"bufferView":1,"byteOffset":432,"componentType":5126,"count":36,"type":"VEC3","name":"accessorNormals"},{"bufferView":2,"componentType":5126,"count":36,"type":"VEC2","name":"accessorUVs"},{"bufferView":0,"byteOffset":72,"componentType":5123,"count":36,"type":"SCALAR","name":"accessorIndices"},{"bufferView":1,"byteOffset":864,"componentType":5126,"count":36,"max":[3.877335,12.0059938,1.00120914],"min":[-3.877335,0.0,-1.00120914],"type":"VEC3","name":"accessorPositions"},{"bufferView":1,"byteOffset":1296,"componentType":5126,"count":36,"type":"VEC3","name":"accessorNormals"},{"bufferView":2,"byteOffset":288,"componentType":5126,"count":36,"type":"VEC2","name":"accessorUVs"},{"bufferView":0,"byteOffset":144,"componentType":5123,"count":36,"type":"SCALAR","name":"accessorIndices"},{"bufferView":1,"byteOffset":1728,"componentType":5126,"count":36,"max":[1.47057354,26.6120472,2.15342975],"min":[-1.47057354,0.0,-2.15342975],"type":"VEC3","name":"accessorPositions"},{"bufferView":1,"byteOffset":2160,"componentType":5126,"count":36,"type":"VEC3","name":"accessorNormals"},{"bufferView":2,"byteOffset":576,"componentType":5126,"count":36,"type":"VEC2","name":"accessorUVs"},{"bufferView":0,"byteOffset":216,"componentType":5123,"count":36,"type":"SCALAR","name":"accessorIndices"},{"bufferView":1,"byteOffset":2592,"componentType":5126,"count":36,"max":[1.24490654,26.00515,1.287779],"min":[-1.24490654,0.0,-1.287779],"type":"VEC3","name":"accessorPositions"},{"bufferView":1,"byteOffset":3024,"componentType":5126,"count":36,"type":"VEC3","name":"accessorNormals"},{"bufferView":2,"byteOffset":864,"componentType":5126,"count":36,"type":"VEC2","name":"accessorUVs"},{"bufferView":0,"byteOffset":288,"componentType":5123,"count":144,"type":"SCALAR","name":"accessorIndices"},{"bufferView":1,"byteOffset":3456,"componentType":5126,"count":144,"max":[19.5697861,46.37702,19.5697861],"min":[-19.5697861,0.0,-19.5697861],"type":"VEC3","name":"accessorPositions"},{"bufferView":1,"byteOffset":5184,"componentType":5126,"count":144,"type":"VEC3","name":"accessorNormals"},{"bufferView":2,"byteOffset":1152,"componentType":5126,"count":144,"type":"VEC2","name":"accessorUVs"},{"bufferView":0,"byteOffset":576,"componentType":5123,"count":144,"type":"SCALAR","name":"accessorIndices"},{"bufferView":1,"byteOffset":6912,"componentType":5126,"count":144,"max":[4.39808226,18.751833,4.39808226],"min":[-4.39808226,0.0,-4.39808226],"type":"VEC3","name":"accessorPositions"},{"bufferView":1,"byteOffset":8640,"componentType":5126,"count":144,"type":"VEC3","name":"accessorNormals"},{"bufferView":2,"byteOffset":2304,"componentType":5126,"count":144,"type":"VEC2","name":"accessorUVs"},{"bufferView":0,"byteOffset":864,"componentType":5123,"count":144,"type":"SCALAR","name":"accessorIndices"},{"bufferView":1,"byteOffset":10368,"componentType":5126,"count":144,"max":[1.79897738,6.517597,1.79897738],"min":[-1.79897738,0.0,-1.79897738],"type":"VEC3","name":"accessorPositions"},{"bufferView":1,"byteOffset":12096,"componentType":5126,"count":144,"type":"VEC3","name":"accessorNormals"},{"bufferView":2,"byteOffset":3456,"componentType":5126,"count":144,"type":"VEC2","name":"accessorUVs"},{"bufferView":0,"byteOffset":1152,"componentType":5123,"count":144,"type":"SCALAR","name":"accessorIndices"},{"bufferView":1,"byteOffset":13824,"componentType":5126,"count":144,"max":[2.42436385,3.33432913,2.42436385],"min":[-2.42436385,0.0,-2.42436385],"type":"VEC3","name":"accessorPositions"},{"bufferView":1,"byteOffset":15552,"componentType":5126,"count":144,"type":"VEC3","name":"accessorNormals"},{"bufferView":2,"byteOffset":4608,"componentType":5126,"count":144,"type":"VEC2","name":"accessorUVs"},{"bufferView":0,"byteOffset":1440,"componentType":5123,"count":144,"type":"SCALAR","name":"accessorIndices"},{"bufferView":1,"byteOffset":17280,"componentType":5126,"count":144,"max":[2.25244665,5.10069275,2.25244665],"min":[-2.25244665,0.0,-2.25244665],"type":"VEC3","name":"accessorPositions"},{"bufferView":1,"byteOffset":19008,"componentType":5126,"count":144,"type":"VEC3","name":"accessorNormals"},{"bufferView":2,"byteOffset":5760,"componentType":5126,"count":144,"type":"VEC2","name":"accessorUVs"},{"bufferView":0,"byteOffset":1728,"componentType":5123,"count":504,"type":"SCALAR","name":"accessorIndices"},{"bufferView":1,"byteOffset":20736,"componentType":5126,"count":504,"max":[13.4944973,14.1974926,13.8415318],"min":[-13.4944954,-14.1974926,-13.8415318],"type":"VEC3","name":"accessorPositions"},{"bufferView":1,"byteOffset":26784,"componentType":5126,"count":504,"type":"VEC3","name":"accessorNormals"},{"bufferView":2,"byteOffset":6912,"componentType":5126,"count":504,"type":"VEC2","name":"accessorUVs"},{"bufferView":0,"byteOffset":2736,"componentType":5123,"count":360,"type":"SCALAR","name":"accessorIndices"},{"bufferView":1,"byteOffset":32832,"componentType":5126,"count":360,"max":[2.43647265,2.43647265,2.43647265],"min":[-2.43647265,-2.43647265,-2.43647265],"type":"VEC3","name":"accessorPositions"},{"bufferView":1,"byteOffset":37152,"componentType":5126,"count":360,"type":"VEC3","name":"accessorNormals"},{"bufferView":2,"byteOffset":10944,"componentType":5126,"count":360,"type":"VEC2","name":"accessorUVs"},{"bufferView":0,"byteOffset":3456,"componentType":5123,"count":360,"type":"SCALAR","name":"accessorIndices"},{"bufferView":1,"byteOffset":41472,"componentType":5126,"count":360,"max":[2.849476,2.849476,2.849476],"min":[-2.849476,-2.849476,-2.849476],"type":"VEC3","name":"accessorPositions"},{"bufferView":1,"byteOffset":45792,"componentType":5126,"count":360,"type":"VEC3","name":"accessorNormals"},{"bufferView":2,"byteOffset":13824,"componentType":5126,"count":360,"type":"VEC2","name":"accessorUVs"},{"bufferView":3,"componentType":5126,"count":87,"max":[3.33333325],"min":[0.0],"type":"SCALAR","name":"accessorAnimationInput"},{"bufferView":4,"componentType":5126,"count":87,"type":"VEC3","name":"accessorAnimationPositions"},{"bufferView":3,"byteOffset":348,"componentType":5126,"count":10,"max":[3.33333325],"min":[0.0],"type":"SCALAR","name":"accessorAnimationInput"},{"bufferView":5,"componentType":5126,"count":10,"type":"VEC4","name":"accessorAnimationRotations"},{"bufferView":3,"byteOffset":388,"componentType":5126,"count":87,"max":[3.33333325],"min":[0.0],"type":"SCALAR","name":"accessorAnimationInput"},{"bufferView":4,"byteOffset":1044,"componentType":5126,"count":87,"type":"VEC3","name":"accessorAnimationPositions"},{"bufferView":3,"byteOffset":736,"componentType":5126,"count":7,"max":[3.33333325],"min":[0.0],"type":"SCALAR","name":"accessorAnimationInput"},{"bufferView":5,"byteOffset":160,"componentType":5126,"count":7,"type":"VEC4","name":"accessorAnimationRotations"},{"bufferView":3,"byteOffset":764,"componentType":5126,"count":9,"max":[3.33333325],"min":[0.0],"type":"SCALAR","name":"accessorAnimationInput"},{"bufferView":5,"byteOffset":272,"componentType":5126,"count":9,"type":"VEC4","name":"accessorAnimationRotations"},{"bufferView":3,"byteOffset":800,"componentType":5126,"count":9,"max":[3.33333325],"min":[0.0],"type":"SCALAR","name":"accessorAnimationInput"},{"bufferView":5,"byteOffset":416,"componentType":5126,"count":9,"type":"VEC4","name":"accessorAnimationRotations"},{"bufferView":3,"byteOffset":836,"componentType":5126,"count":87,"max":[3.33333325],"min":[0.0],"type":"SCALAR","name":"accessorAnimationInput"},{"bufferView":4,"byteOffset":2088,"componentType":5126,"count":87,"type":"VEC3","name":"accessorAnimationPositions"},{"bufferView":3,"byteOffset":1184,"componentType":5126,"count":5,"max":[3.33333325],"min":[0.0],"type":"SCALAR","name":"accessorAnimationInput"},{"bufferView":5,"byteOffset":560,"componentType":5126,"count":5,"type":"VEC4","name":"accessorAnimationRotations"},{"bufferView":3,"byteOffset":1204,"componentType":5126,"count":87,"max":[3.33333325],"min":[0.0],"type":"SCALAR","name":"accessorAnimationInput"},{"bufferView":4,"byteOffset":3132,"componentType":5126,"count":87,"type":"VEC3","name":"accessorAnimationPositions"},{"bufferView":3,"byteOffset":1552,"componentType":5126,"count":5,"max":[3.33333325],"min":[0.0],"type":"SCALAR","name":"accessorAnimationInput"},{"bufferView":5,"byteOffset":640,"componentType":5126,"count":5,"type":"VEC4","name":"accessorAnimationRotations"},{"bufferView":3,"byteOffset":1572,"componentType":5126,"count":87,"max":[3.33333325],"min":[0.0],"type":"SCALAR","name":"accessorAnimationInput"},{"bufferView":4,"byteOffset":4176,"componentType":5126,"count":87,"type":"VEC3","name":"accessorAnimationPositions"},{"bufferView":3,"byteOffset":1920,"componentType":5126,"count":5,"max":[3.33333325],"min":[0.0],"type":"SCALAR","name":"accessorAnimationInput"},{"bufferView":5,"byteOffset":720,"componentType":5126,"count":5,"type":"VEC4","name":"accessorAnimationRotations"},{"bufferView":3,"byteOffset":1940,"componentType":5126,"count":87,"max":[3.33333325],"min":[0.0],"type":"SCALAR","name":"accessorAnimationInput"},{"bufferView":4,"byteOffset":5220,"componentType":5126,"count":87,"type":"VEC3","name":"accessorAnimationPositions"},{"bufferView":3,"byteOffset":2288,"componentType":5126,"count":4,"max":[3.33333325],"min":[0.0],"type":"SCALAR","name":"accessorAnimationInput"},{"bufferView":5,"byteOffset":800,"componentType":5126,"count":4,"type":"VEC4","name":"accessorAnimationRotations"},{"bufferView":3,"byteOffset":2304,"componentType":5126,"count":87,"max":[3.33333325],"min":[0.0],"type":"SCALAR","name":"accessorAnimationInput"},{"bufferView":4,"byteOffset":6264,"componentType":5126,"count":87,"type":"VEC3","name":"accessorAnimationPositions"},{"bufferView":3,"byteOffset":2652,"componentType":5126,"count":5,"max":[3.33333325],"min":[0.0],"type":"SCALAR","name":"accessorAnimationInput"},{"bufferView":5,"byteOffset":864,"componentType":5126,"count":5,"type":"VEC4","name":"accessorAnimationRotations"},{"bufferView":3,"byteOffset":2672,"componentType":5126,"count":87,"max":[3.33333325],"min":[0.0],"type":"SCALAR","name":"accessorAnimationInput"},{"bufferView":4,"byteOffset":7308,"componentType":5126,"count":87,"type":"VEC3","name":"accessorAnimationPositions"},{"bufferView":3,"byteOffset":3020,"componentType":5126,"count":4,"max":[3.33333325],"min":[0.0],"type":"SCALAR","name":"accessorAnimationInput"},{"bufferView":5,"byteOffset":944,"componentType":5126,"count":4,"type":"VEC4","name":"accessorAnimationRotations"},{"bufferView":3,"byteOffset":3036,"componentType":5126,"count":87,"max":[3.33333325],"min":[0.0],"type":"SCALAR","name":"accessorAnimationInput"},{"bufferView":4,"byteOffset":8352,"componentType":5126,"count":87,"type":"VEC3","name":"accessorAnimationPositions"},{"bufferView":3,"byteOffset":3384,"componentType":5126,"count":4,"max":[3.33333325],"min":[0.0],"type":"SCALAR","name":"accessorAnimationInput"},{"bufferView":5,"byteOffset":1008,"componentType":5126,"count":4,"type":"VEC4","name":"accessorAnimationRotations"}],"bufferViews":[{"buffer":0,"byteLength":4176,"name":"bufferViewScalar"},{"buffer":0,"byteOffset":4176,"byteLength":50112,"byteStride":12,"name":"bufferViewFloatVec3"},{"buffer":0,"byteOffset":54288,"byteLength":16704,"byteStride":8,"name":"bufferViewFloatVec2"},{"buffer":0,"byteOffset":70992,"byteLength":3400,"name":"bufferViewAnimationFloatScalar"},{"buffer":0,"byteOffset":74392,"byteLength":9396,"name":"bufferViewAnimationFloatVec3"},{"buffer":0,"byteOffset":83788,"byteLength":1072,"name":"bufferViewAnimationFloatVec4"}],"buffers":[{"uri":"man_1.bin","byteLength":84860}],"materials":[{"pbrMetallicRoughness":{"baseColorTexture":{"index":0},"metallicFactor":0.0,"roughnessFactor":0.7022211},"name":"Material #50"},{"pbrMetallicRoughness":{"baseColorTexture":{"index":1},"metallicFactor":0.0,"roughnessFactor":0.7022211},"name":"Material #48"},{"pbrMetallicRoughness":{"baseColorTexture":{"index":2},"metallicFactor":0.0,"roughnessFactor":0.7022211},"name":"Material #51"},{"pbrMetallicRoughness":{"baseColorTexture":{"index":3},"metallicFactor":0.0,"roughnessFactor":0.3967883},"name":"Material #52"},{"pbrMetallicRoughness":{"baseColorTexture":{"index":4},"metallicFactor":0.0,"roughnessFactor":0.5364733},"name":"Material #49"}],"textures":[{"sampler":0,"source":0,"name":"blue.jpg"},{"sampler":0,"source":1,"name":"red.jpg"},{"sampler":0,"source":2,"name":"green.jpg"},{"sampler":0,"source":3,"name":"yellow.jpg"},{"sampler":0,"source":4,"name":"white.jpg"}],"images":[{"uri":"../ExTex/blue.jpg"},{"uri":"../ExTex/red.jpg"},{"uri":"../ExTex/green.jpg"},{"uri":"../ExTex/yellow.jpg"},{"uri":"../ExTex/white.jpg"}],"samplers":[{"magFilter":9729,"minFilter":9987}],"animations":[{"channels":[{"sampler":0,"target":{"node":1,"path":"translation"}},{"sampler":1,"target":{"node":1,"path":"rotation"}},{"sampler":2,"target":{"node":2,"path":"translation"}},{"sampler":3,"target":{"node":2,"path":"rotation"}},{"sampler":4,"target":{"node":3,"path":"rotation"}},{"sampler":5,"target":{"node":4,"path":"rotation"}},{"sampler":6,"target":{"node":6,"path":"translation"}},{"sampler":7,"target":{"node":6,"path":"rotation"}},{"sampler":8,"target":{"node":7,"path":"translation"}},{"sampler":9,"target":{"node":7,"path":"rotation"}},{"sampler":10,"target":{"node":8,"path":"translation"}},{"sampler":11,"target":{"node":8,"path":"rotation"}},{"sampler":12,"target":{"node":9,"path":"translation"}},{"sampler":13,"target":{"node":9,"path":"rotation"}},{"sampler":14,"target":{"node":10,"path":"translation"}},{"sampler":15,"target":{"node":10,"path":"rotation"}},{"sampler":16,"target":{"node":11,"path":"translation"}},{"sampler":17,"target":{"node":11,"path":"rotation"}},{"sampler":18,"target":{"node":12,"path":"translation"}},{"sampler":19,"target":{"node":12,"path":"rotation"}}],"samplers":[{"input":48,"output":49},{"input":50,"output":51},{"input":52,"output":53},{"input":54,"output":55},{"input":56,"output":57},{"input":58,"output":59},{"input":60,"output":61},{"input":62,"output":63},{"input":64,"output":65},{"input":66,"output":67},{"input":68,"output":69},{"input":70,"output":71},{"input":72,"output":73},{"input":74,"output":75},{"input":76,"output":77},{"input":78,"output":79},{"input":80,"output":81},{"input":82,"output":83},{"input":84,"output":85},{"input":86,"output":87}],"name":"All Animations"}]}