{"asset":{"version":"2.0","generator":"babylon.js glTF exporter for 3dsmax 2020 v20200415.4"},"scene":0,"scenes":[{"nodes":[0,15]}],"nodes":[{"children":[1,2,3,4,5,6,7,8,9,10,11,12,13,14],"name":"creature_2"},{"mesh":0,"translation":[-5.96046448E-07,0.07753754,2.59810615],"name":"Torus001"},{"mesh":1,"translation":[0.270845056,-0.408258915,15.1334763],"rotation":[0.7122866,0.0115703419,-0.00606949534,0.701767147],"scale":[1.45935965,1.00000048,1.32022941],"name":"Box003"},{"mesh":2,"translation":[0.11146158,0.05413246,15.08886],"rotation":[0.6225188,0.007480027,-0.00518806931,0.782552],"scale":[2.0873735,0.754965842,4.65079],"name":"Box004"},{"mesh":3,"translation":[4.624737,1.06981087,18.05399],"rotation":[0.491629,0.479916334,-0.3815389,0.618392467],"scale":[0.9999999,1.00000036,0.99999994],"name":"Sphere005"},{"mesh":4,"translation":[-4.18213558,1.05673218,18.1749458],"rotation":[0.4322855,-0.551837564,0.407670021,0.585158],"scale":[0.99999994,0.99999994,1.00000012],"name":"Sphere006"},{"mesh":5,"translation":[-1.22577131,1.69857407,-13.5745869],"rotation":[0.004817832,-0.8888893,0.458001256,0.009350451],"scale":[1.00000012,0.9999998,1.00000012],"name":"Box005"},{"mesh":6,"translation":[-8.026252,-2.47592926,13.42277],"rotation":[-3.24474349E-05,-0.00552093657,0.9999675,0.005876971],"scale":[0.9999999,0.9999999,1.00000012],"name":"Cone006"},{"mesh":6,"translation":[8.90811,-2.47592926,12.1223392],"rotation":[-3.24474349E-05,-0.00552093657,0.9999675,0.005876971],"scale":[0.9999999,0.9999999,1.00000012],"name":"Cone007"},{"mesh":6,"translation":[11.39736,-2.47592926,8.732701],"rotation":[-3.24474349E-05,-0.00552093657,0.9999675,0.005876971],"scale":[0.9999999,0.9999999,1.00000012],"name":"Cone008"},{"mesh":6,"translation":[10.9207153,-2.47592926,-3.65898228],"rotation":[-3.24474349E-05,-0.00552093657,0.9999675,0.005876971],"scale":[0.9999999,0.9999999,1.00000012],"name":"Cone009"},{"mesh":6,"translation":[8.7325325,-2.47592926,-6.674428],"rotation":[-3.24474349E-05,-0.00552093657,0.9999675,0.005876971],"scale":[0.9999999,0.9999999,1.00000012],"name":"Cone010"},{"mesh":6,"translation":[-7.788704,-2.47592926,-8.207783],"rotation":[-3.24474349E-05,-0.00552093657,0.9999675,0.005876971],"scale":[0.9999999,0.9999999,1.00000012],"name":"Cone012"},{"mesh":6,"translation":[-11.5603752,-2.47592926,-3.675294],"rotation":[-3.24474349E-05,-0.00552093657,0.9999675,0.005876971],"scale":[0.9999999,0.9999999,1.00000012],"name":"Cone013"},{"mesh":6,"translation":[-10.8967247,-2.47592926,10.7280293],"rotation":[-3.24474349E-05,-0.00552093657,0.9999675,0.005876971],"scale":[0.9999999,0.9999999,1.00000012],"name":"Cone014"},{"name":"Default light"}],"meshes":[{"primitives":[{"attributes":{"POSITION":1,"NORMAL":2,"TEXCOORD_0":3},"indices":0,"material":0}],"name":"Torus001"},{"primitives":[{"attributes":{"POSITION":5,"NORMAL":6,"TEXCOORD_0":7},"indices":4,"material":1}],"name":"Box003"},{"primitives":[{"attributes":{"POSITION":9,"NORMAL":10,"TEXCOORD_0":11},"indices":8,"material":1}],"name":"Box004"},{"primitives":[{"attributes":{"POSITION":13,"NORMAL":14,"TEXCOORD_0":15},"indices":12,"material":2}],"name":"Sphere005"},{"primitives":[{"attributes":{"POSITION":17,"NORMAL":18,"TEXCOORD_0":19},"indices":16,"material":2}],"name":"Sphere006"},{"primitives":[{"attributes":{"POSITION":21,"NORMAL":22,"TEXCOORD_0":23},"indices":20,"material":3}],"name":"Box005"},{"primitives":[{"attributes":{"POSITION":25,"NORMAL":26,"TEXCOORD_0":27},"indices":24,"material":4}],"name":"Cone006"}],"accessors":[{"bufferView":0,"componentType":5123,"count":1728,"type":"SCALAR","name":"accessorIndices"},{"bufferView":1,"componentType":5126,"count":1728,"max":[16.6755581,3.44525862,16.6755581],"min":[-16.6755581,-3.44525862,-16.6755581],"type":"VEC3","name":"accessorPositions"},{"bufferView":1,"byteOffset":20736,"componentType":5126,"count":1728,"type":"VEC3","name":"accessorNormals"},{"bufferView":2,"componentType":5126,"count":1728,"type":"VEC2","name":"accessorUVs"},{"bufferView":0,"byteOffset":3456,"componentType":5123,"count":36,"type":"SCALAR","name":"accessorIndices"},{"bufferView":1,"byteOffset":41472,"componentType":5126,"count":36,"max":[0.893663645,9.310645,0.288853],"min":[-0.893663645,0.0,-0.288853],"type":"VEC3","name":"accessorPositions"},{"bufferView":1,"byteOffset":41904,"componentType":5126,"count":36,"type":"VEC3","name":"accessorNormals"},{"bufferView":2,"byteOffset":13824,"componentType":5126,"count":36,"type":"VEC2","name":"accessorUVs"},{"bufferView":0,"byteOffset":3528,"componentType":5123,"count":36,"type":"SCALAR","name":"accessorIndices"},{"bufferView":1,"byteOffset":42336,"componentType":5126,"count":36,"max":[0.8116911,12.7957306,0.217109859],"min":[-0.8116911,0.0,-0.217109859],"type":"VEC3","name":"accessorPositions"},{"bufferView":1,"byteOffset":42768,"componentType":5126,"count":36,"type":"VEC3","name":"accessorNormals"},{"bufferView":2,"byteOffset":14112,"componentType":5126,"count":36,"type":"VEC2","name":"accessorUVs"},{"bufferView":0,"byteOffset":3600,"componentType":5123,"count":360,"type":"SCALAR","name":"accessorIndices"},{"bufferView":1,"byteOffset":43200,"componentType":5126,"count":360,"max":[1.08579457,1.08579457,1.08579457],"min":[-1.08579457,-1.08579457,-1.08579457],"type":"VEC3","name":"accessorPositions"},{"bufferView":1,"byteOffset":47520,"componentType":5126,"count":360,"type":"VEC3","name":"accessorNormals"},{"bufferView":2,"byteOffset":14400,"componentType":5126,"count":360,"type":"VEC2","name":"accessorUVs"},{"bufferView":0,"byteOffset":4320,"componentType":5123,"count":360,"type":"SCALAR","name":"accessorIndices"},{"bufferView":1,"byteOffset":51840,"componentType":5126,"count":360,"max":[1.08027124,1.08027124,1.08027124],"min":[-1.08027124,-1.08027124,-1.08027124],"type":"VEC3","name":"accessorPositions"},{"bufferView":1,"byteOffset":56160,"componentType":5126,"count":360,"type":"VEC3","name":"accessorNormals"},{"bufferView":2,"byteOffset":17280,"componentType":5126,"count":360,"type":"VEC2","name":"accessorUVs"},{"bufferView":0,"byteOffset":5040,"componentType":5123,"count":36,"type":"SCALAR","name":"accessorIndices"},{"bufferView":1,"byteOffset":60480,"componentType":5126,"count":36,"max":[1.00206,17.9077568,0.360182047],"min":[-1.00206,0.0,-0.360182047],"type":"VEC3","name":"accessorPositions"},{"bufferView":1,"byteOffset":60912,"componentType":5126,"count":36,"type":"VEC3","name":"accessorNormals"},{"bufferView":2,"byteOffset":20160,"componentType":5126,"count":36,"type":"VEC2","name":"accessorUVs"},{"bufferView":0,"byteOffset":5112,"componentType":5123,"count":144,"type":"SCALAR","name":"accessorIndices"},{"bufferView":1,"byteOffset":61344,"componentType":5126,"count":144,"max":[0.8946646,9.909966,0.8946646],"min":[-0.8946646,0.0,-0.8946646],"type":"VEC3","name":"accessorPositions"},{"bufferView":1,"byteOffset":63072,"componentType":5126,"count":144,"type":"VEC3","name":"accessorNormals"},{"bufferView":2,"byteOffset":20448,"componentType":5126,"count":144,"type":"VEC2","name":"accessorUVs"},{"bufferView":3,"componentType":5126,"count":92,"max":[3.33333325],"min":[0.0],"type":"SCALAR","name":"accessorAnimationInput"},{"bufferView":4,"componentType":5126,"count":92,"type":"VEC3","name":"accessorAnimationPositions"},{"bufferView":3,"byteOffset":368,"componentType":5126,"count":92,"max":[3.33333325],"min":[0.0],"type":"SCALAR","name":"accessorAnimationInput"},{"bufferView":4,"byteOffset":1104,"componentType":5126,"count":92,"type":"VEC3","name":"accessorAnimationPositions"},{"bufferView":3,"byteOffset":736,"componentType":5126,"count":10,"max":[3.33333325],"min":[0.0],"type":"SCALAR","name":"accessorAnimationInput"},{"bufferView":5,"componentType":5126,"count":10,"type":"VEC4","name":"accessorAnimationRotations"},{"bufferView":3,"byteOffset":776,"componentType":5126,"count":89,"max":[3.33333325],"min":[0.0],"type":"SCALAR","name":"accessorAnimationInput"},{"bufferView":4,"byteOffset":2208,"componentType":5126,"count":89,"type":"VEC3","name":"accessorAnimationPositions"},{"bufferView":3,"byteOffset":1132,"componentType":5126,"count":8,"max":[3.33333325],"min":[0.0],"type":"SCALAR","name":"accessorAnimationInput"},{"bufferView":5,"byteOffset":160,"componentType":5126,"count":8,"type":"VEC4","name":"accessorAnimationRotations"},{"bufferView":3,"byteOffset":1164,"componentType":5126,"count":92,"max":[3.33333325],"min":[0.0],"type":"SCALAR","name":"accessorAnimationInput"},{"bufferView":4,"byteOffset":3276,"componentType":5126,"count":92,"type":"VEC3","name":"accessorAnimationPositions"},{"bufferView":3,"byteOffset":1532,"componentType":5126,"count":92,"max":[3.33333325],"min":[0.0],"type":"SCALAR","name":"accessorAnimationInput"},{"bufferView":4,"byteOffset":4380,"componentType":5126,"count":92,"type":"VEC3","name":"accessorAnimationPositions"},{"bufferView":3,"byteOffset":1900,"componentType":5126,"count":92,"max":[3.33333325],"min":[0.0],"type":"SCALAR","name":"accessorAnimationInput"},{"bufferView":4,"byteOffset":5484,"componentType":5126,"count":92,"type":"VEC3","name":"accessorAnimationPositions"},{"bufferView":3,"byteOffset":2268,"componentType":5126,"count":24,"max":[3.33333325],"min":[0.0],"type":"SCALAR","name":"accessorAnimationInput"},{"bufferView":5,"byteOffset":288,"componentType":5126,"count":24,"type":"VEC4","name":"accessorAnimationRotations"},{"bufferView":3,"byteOffset":2364,"componentType":5126,"count":41,"max":[3.33333325],"min":[0.0],"type":"SCALAR","name":"accessorAnimationInput"},{"bufferView":5,"byteOffset":672,"componentType":5126,"count":41,"type":"VEC4","name":"accessorAnimationRotations"},{"bufferView":3,"byteOffset":2528,"componentType":5126,"count":41,"max":[3.33333325],"min":[0.0],"type":"SCALAR","name":"accessorAnimationInput"},{"bufferView":5,"byteOffset":1328,"componentType":5126,"count":41,"type":"VEC4","name":"accessorAnimationRotations"},{"bufferView":3,"byteOffset":2692,"componentType":5126,"count":41,"max":[3.33333325],"min":[0.0],"type":"SCALAR","name":"accessorAnimationInput"},{"bufferView":5,"byteOffset":1984,"componentType":5126,"count":41,"type":"VEC4","name":"accessorAnimationRotations"},{"bufferView":3,"byteOffset":2856,"componentType":5126,"count":41,"max":[3.33333325],"min":[0.0],"type":"SCALAR","name":"accessorAnimationInput"},{"bufferView":5,"byteOffset":2640,"componentType":5126,"count":41,"type":"VEC4","name":"accessorAnimationRotations"},{"bufferView":3,"byteOffset":3020,"componentType":5126,"count":41,"max":[3.33333325],"min":[0.0],"type":"SCALAR","name":"accessorAnimationInput"},{"bufferView":5,"byteOffset":3296,"componentType":5126,"count":41,"type":"VEC4","name":"accessorAnimationRotations"},{"bufferView":3,"byteOffset":3184,"componentType":5126,"count":41,"max":[3.33333325],"min":[0.0],"type":"SCALAR","name":"accessorAnimationInput"},{"bufferView":5,"byteOffset":3952,"componentType":5126,"count":41,"type":"VEC4","name":"accessorAnimationRotations"},{"bufferView":3,"byteOffset":3348,"componentType":5126,"count":41,"max":[3.33333325],"min":[0.0],"type":"SCALAR","name":"accessorAnimationInput"},{"bufferView":5,"byteOffset":4608,"componentType":5126,"count":41,"type":"VEC4","name":"accessorAnimationRotations"},{"bufferView":3,"byteOffset":3512,"componentType":5126,"count":41,"max":[3.33333325],"min":[0.0],"type":"SCALAR","name":"accessorAnimationInput"},{"bufferView":5,"byteOffset":5264,"componentType":5126,"count":41,"type":"VEC4","name":"accessorAnimationRotations"}],"bufferViews":[{"buffer":0,"byteLength":5400,"name":"bufferViewScalar"},{"buffer":0,"byteOffset":5400,"byteLength":64800,"byteStride":12,"name":"bufferViewFloatVec3"},{"buffer":0,"byteOffset":70200,"byteLength":21600,"byteStride":8,"name":"bufferViewFloatVec2"},{"buffer":0,"byteOffset":91800,"byteLength":3676,"name":"bufferViewAnimationFloatScalar"},{"buffer":0,"byteOffset":95476,"byteLength":6588,"name":"bufferViewAnimationFloatVec3"},{"buffer":0,"byteOffset":102064,"byteLength":5920,"name":"bufferViewAnimationFloatVec4"}],"buffers":[{"uri":"creature_2.bin","byteLength":107984}],"materials":[{"pbrMetallicRoughness":{"baseColorTexture":{"index":0},"metallicFactor":0.0,"roughnessFactor":0.7022211},"name":"Material #27"},{"pbrMetallicRoughness":{"baseColorTexture":{"index":1},"metallicFactor":0.0,"roughnessFactor":0.7022211},"name":"Material #30"},{"pbrMetallicRoughness":{"baseColorTexture":{"index":2},"metallicFactor":0.0,"roughnessFactor":0.450053632},"name":"Material #26"},{"pbrMetallicRoughness":{"baseColorTexture":{"index":3},"metallicFactor":0.0,"roughnessFactor":0.450053632},"name":"Material #25"},{"pbrMetallicRoughness":{"baseColorTexture":{"index":4},"metallicFactor":0.0,"roughnessFactor":0.7022211},"name":"Material #29"}],"textures":[{"sampler":0,"source":0,"name":"green.jpg"},{"sampler":0,"source":1,"name":"black.jpg"},{"sampler":0,"source":2,"name":"white.jpg"},{"sampler":0,"source":3,"name":"blue.jpg"},{"sampler":0,"source":4,"name":"red.jpg"}],"images":[{"uri":"../ExTex/green.jpg"},{"uri":"../ExTex/black.jpg"},{"uri":"../ExTex/white.jpg"},{"uri":"../ExTex/blue.jpg"},{"uri":"../ExTex/red.jpg"}],"samplers":[{"magFilter":9729,"minFilter":9987}],"animations":[{"channels":[{"sampler":0,"target":{"node":1,"path":"translation"}},{"sampler":1,"target":{"node":2,"path":"translation"}},{"sampler":2,"target":{"node":2,"path":"rotation"}},{"sampler":3,"target":{"node":3,"path":"translation"}},{"sampler":4,"target":{"node":3,"path":"rotation"}},{"sampler":5,"target":{"node":4,"path":"translation"}},{"sampler":6,"target":{"node":5,"path":"translation"}},{"sampler":7,"target":{"node":6,"path":"translation"}},{"sampler":8,"target":{"node":6,"path":"rotation"}},{"sampler":9,"target":{"node":7,"path":"rotation"}},{"sampler":10,"target":{"node":8,"path":"rotation"}},{"sampler":11,"target":{"node":9,"path":"rotation"}},{"sampler":12,"target":{"node":10,"path":"rotation"}},{"sampler":13,"target":{"node":11,"path":"rotation"}},{"sampler":14,"target":{"node":12,"path":"rotation"}},{"sampler":15,"target":{"node":13,"path":"rotation"}},{"sampler":16,"target":{"node":14,"path":"rotation"}}],"samplers":[{"input":28,"output":29},{"input":30,"output":31},{"input":32,"output":33},{"input":34,"output":35},{"input":36,"output":37},{"input":38,"output":39},{"input":40,"output":41},{"input":42,"output":43},{"input":44,"output":45},{"input":46,"output":47},{"input":48,"output":49},{"input":50,"output":51},{"input":52,"output":53},{"input":54,"output":55},{"input":56,"output":57},{"input":58,"output":59},{"input":60,"output":61}],"name":"All Animations"}]}