{"asset":{"version":"2.0","generator":"babylon.js glTF exporter for 3dsmax 2020 v20200415.4"},"scene":0,"scenes":[{"nodes":[0,15]}],"nodes":[{"children":[1,2,3,4,5,6,7,8,9,10,11,12,13,14],"name":"creature_4"},{"mesh":0,"translation":[5.320485,1.39593887,-2.75668764],"rotation":[-0.7016304,-0.206909463,0.6769169,-0.08177283],"scale":[1.0,0.99999994,0.9999998],"name":"Box012"},{"mesh":1,"translation":[-5.368385,1.60212326,-0.329951048],"rotation":[0.6877578,-0.140114069,0.7011636,0.125406981],"scale":[1.0,1.0,1.00000012],"name":"Box013"},{"mesh":2,"translation":[-11.160574,7.43707275,0.0101363063],"rotation":[0.6082861,-0.350186765,0.6256512,0.3404672],"scale":[1.0,1.0,0.9999998],"name":"Cone016"},{"mesh":2,"translation":[11.1680641,7.43707275,-0.689343452],"rotation":[-0.6285456,-0.33879295,0.6052948,-0.351806819],"scale":[1.0,1.0,1.00000012],"name":"Cone023"},{"mesh":3,"translation":[-12.9975986,5.68022537,-0.530159235],"rotation":[0.608286,-0.350186765,0.6256512,0.3404672],"scale":[1.0,1.0,0.99999994],"name":"Cone017"},{"mesh":3,"translation":[12.99985,5.68022537,-0.13154757],"rotation":[-0.6285456,-0.33879298,0.6052948,-0.351806819],"scale":[1.0,0.99999994,0.99999994],"name":"Cone022"},{"mesh":4,"translation":[-9.045139,16.3772659,-10.9989481],"rotation":[0.02291782,0.0,0.0,0.9997374],"name":"Cone018"},{"mesh":5,"translation":[4.558289,15.3824844,10.6870384],"rotation":[0.02291782,0.0,0.0,0.9997374],"name":"Cone019"},{"mesh":6,"translation":[-8.332194,15.5442467,7.16064739],"rotation":[0.02291782,0.0,0.0,0.9997374],"name":"Cone020"},{"mesh":7,"translation":[4.78033352,16.2675667,-8.607618],"rotation":[0.02291782,0.0,0.0,0.9997374],"name":"Cone021"},{"mesh":8,"translation":[-0.231478214,15.8727188,2.98023224E-07],"rotation":[-0.9997374,0.0,0.0,0.0229179319],"name":"Pyramid002"},{"mesh":9,"translation":[-8.707174,8.12746048,14.8272448],"rotation":[-0.9099352,0.0,0.0,-0.414750546],"name":"Sphere007"},{"mesh":10,"translation":[7.79538059,7.757393,14.7160358],"rotation":[-0.9099352,0.0,0.0,-0.414750546],"name":"Sphere008"},{"mesh":11,"translation":[-0.531028032,2.82761765,10.2213364],"rotation":[-0.9099352,0.0,0.0,-0.414750546],"name":"Tube001"},{"name":"Default light"}],"meshes":[{"primitives":[{"attributes":{"POSITION":1,"NORMAL":2,"TEXCOORD_0":3},"indices":0,"material":0}],"name":"Box012"},{"primitives":[{"attributes":{"POSITION":5,"NORMAL":6,"TEXCOORD_0":7},"indices":4,"material":1}],"name":"Box013"},{"primitives":[{"attributes":{"POSITION":9,"NORMAL":10,"TEXCOORD_0":11},"indices":8,"material":2}],"name":"Cone016"},{"primitives":[{"attributes":{"POSITION":13,"NORMAL":14,"TEXCOORD_0":15},"indices":12,"material":3}],"name":"Cone017"},{"primitives":[{"attributes":{"POSITION":17,"NORMAL":18,"TEXCOORD_0":19},"indices":16}],"name":"Cone018"},{"primitives":[{"attributes":{"POSITION":21,"NORMAL":22,"TEXCOORD_0":23},"indices":20,"material":1}],"name":"Cone019"},{"primitives":[{"attributes":{"POSITION":25,"NORMAL":26,"TEXCOORD_0":27},"indices":24,"material":0}],"name":"Cone020"},{"primitives":[{"attributes":{"POSITION":29,"NORMAL":30,"TEXCOORD_0":31},"indices":28,"material":2}],"name":"Cone021"},{"primitives":[{"attributes":{"POSITION":33,"NORMAL":34,"TEXCOORD_0":35},"indices":32,"material":4}],"name":"Pyramid002"},{"primitives":[{"attributes":{"POSITION":37,"NORMAL":38,"TEXCOORD_0":39},"indices":36,"material":3}],"name":"Sphere007"},{"primitives":[{"attributes":{"POSITION":41,"NORMAL":42,"TEXCOORD_0":43},"indices":40,"material":3}],"name":"Sphere008"},{"primitives":[{"attributes":{"POSITION":45,"NORMAL":46,"TEXCOORD_0":47},"indices":44,"material":5}],"name":"Tube001"}],"accessors":[{"bufferView":0,"componentType":5123,"count":36,"type":"SCALAR","name":"accessorIndices"},{"bufferView":1,"componentType":5126,"count":36,"max":[1.30415237,29.4633179,0.6253469],"min":[-1.30415237,0.0,-0.6253469],"type":"VEC3","name":"accessorPositions"},{"bufferView":1,"byteOffset":432,"componentType":5126,"count":36,"type":"VEC3","name":"accessorNormals"},{"bufferView":2,"componentType":5126,"count":36,"type":"VEC2","name":"accessorUVs"},{"bufferView":0,"byteOffset":72,"componentType":5123,"count":36,"type":"SCALAR","name":"accessorIndices"},{"bufferView":1,"byteOffset":864,"componentType":5126,"count":36,"max":[1.73934519,36.82178,0.7640605],"min":[-1.73934519,0.0,-0.7640605],"type":"VEC3","name":"accessorPositions"},{"bufferView":1,"byteOffset":1296,"componentType":5126,"count":36,"type":"VEC3","name":"accessorNormals"},{"bufferView":2,"byteOffset":288,"componentType":5126,"count":36,"type":"VEC2","name":"accessorUVs"},{"bufferView":0,"byteOffset":144,"componentType":5123,"count":144,"type":"SCALAR","name":"accessorIndices"},{"bufferView":1,"byteOffset":1728,"componentType":5126,"count":144,"max":[4.497963,2.49686742,4.497963],"min":[-4.497963,0.0,-4.497963],"type":"VEC3","name":"accessorPositions"},{"bufferView":1,"byteOffset":3456,"componentType":5126,"count":144,"type":"VEC3","name":"accessorNormals"},{"bufferView":2,"byteOffset":576,"componentType":5126,"count":144,"type":"VEC2","name":"accessorUVs"},{"bufferView":0,"byteOffset":432,"componentType":5123,"count":144,"type":"SCALAR","name":"accessorIndices"},{"bufferView":1,"byteOffset":5184,"componentType":5126,"count":144,"max":[1.51427042,8.229164,1.51427042],"min":[-1.51427042,0.0,-1.51427042],"type":"VEC3","name":"accessorPositions"},{"bufferView":1,"byteOffset":6912,"componentType":5126,"count":144,"type":"VEC3","name":"accessorNormals"},{"bufferView":2,"byteOffset":1728,"componentType":5126,"count":144,"type":"VEC2","name":"accessorUVs"},{"bufferView":0,"byteOffset":720,"componentType":5123,"count":144,"type":"SCALAR","name":"accessorIndices"},{"bufferView":1,"byteOffset":8640,"componentType":5126,"count":144,"max":[3.35094357,13.8524828,3.35094357],"min":[-3.35094357,0.0,-3.35094357],"type":"VEC3","name":"accessorPositions"},{"bufferView":1,"byteOffset":10368,"componentType":5126,"count":144,"type":"VEC3","name":"accessorNormals"},{"bufferView":2,"byteOffset":2880,"componentType":5126,"count":144,"type":"VEC2","name":"accessorUVs"},{"bufferView":0,"byteOffset":1008,"componentType":5123,"count":144,"type":"SCALAR","name":"accessorIndices"},{"bufferView":1,"byteOffset":12096,"componentType":5126,"count":144,"max":[5.266483,17.5366669,5.266483],"min":[-5.266483,0.0,-5.266483],"type":"VEC3","name":"accessorPositions"},{"bufferView":1,"byteOffset":13824,"componentType":5126,"count":144,"type":"VEC3","name":"accessorNormals"},{"bufferView":2,"byteOffset":4032,"componentType":5126,"count":144,"type":"VEC2","name":"accessorUVs"},{"bufferView":0,"byteOffset":1296,"componentType":5123,"count":144,"type":"SCALAR","name":"accessorIndices"},{"bufferView":1,"byteOffset":15552,"componentType":5126,"count":144,"max":[2.216834,6.21417856,2.216834],"min":[-2.216834,0.0,-2.216834],"type":"VEC3","name":"accessorPositions"},{"bufferView":1,"byteOffset":17280,"componentType":5126,"count":144,"type":"VEC3","name":"accessorNormals"},{"bufferView":2,"byteOffset":5184,"componentType":5126,"count":144,"type":"VEC2","name":"accessorUVs"},{"bufferView":0,"byteOffset":1584,"componentType":5123,"count":144,"type":"SCALAR","name":"accessorIndices"},{"bufferView":1,"byteOffset":19008,"componentType":5126,"count":144,"max":[5.816556,11.8688278,5.816556],"min":[-5.816556,0.0,-5.816556],"type":"VEC3","name":"accessorPositions"},{"bufferView":1,"byteOffset":20736,"componentType":5126,"count":144,"type":"VEC3","name":"accessorNormals"},{"bufferView":2,"byteOffset":6336,"componentType":5126,"count":144,"type":"VEC2","name":"accessorUVs"},{"bufferView":0,"byteOffset":1872,"componentType":5123,"count":24,"type":"SCALAR","name":"accessorIndices"},{"bufferView":1,"byteOffset":22464,"componentType":5126,"count":24,"max":[16.10573,26.216259,20.7537079],"min":[-16.10573,0.0,-20.7537079],"type":"VEC3","name":"accessorPositions"},{"bufferView":1,"byteOffset":22752,"componentType":5126,"count":24,"type":"VEC3","name":"accessorNormals"},{"bufferView":2,"byteOffset":7488,"componentType":5126,"count":24,"type":"VEC2","name":"accessorUVs"},{"bufferView":0,"byteOffset":1920,"componentType":5123,"count":360,"type":"SCALAR","name":"accessorIndices"},{"bufferView":1,"byteOffset":23040,"componentType":5126,"count":360,"max":[1.83757186,1.83757186,1.83757186],"min":[-1.83757186,-1.83757186,-1.83757186],"type":"VEC3","name":"accessorPositions"},{"bufferView":1,"byteOffset":27360,"componentType":5126,"count":360,"type":"VEC3","name":"accessorNormals"},{"bufferView":2,"byteOffset":7680,"componentType":5126,"count":360,"type":"VEC2","name":"accessorUVs"},{"bufferView":0,"byteOffset":2640,"componentType":5123,"count":360,"type":"SCALAR","name":"accessorIndices"},{"bufferView":1,"byteOffset":31680,"componentType":5126,"count":360,"max":[1.685704,1.685704,1.685704],"min":[-1.685704,-1.685704,-1.685704],"type":"VEC3","name":"accessorPositions"},{"bufferView":1,"byteOffset":36000,"componentType":5126,"count":360,"type":"VEC3","name":"accessorNormals"},{"bufferView":2,"byteOffset":10560,"componentType":5126,"count":360,"type":"VEC2","name":"accessorUVs"},{"bufferView":0,"byteOffset":3360,"componentType":5123,"count":432,"type":"SCALAR","name":"accessorIndices"},{"bufferView":1,"byteOffset":40320,"componentType":5126,"count":432,"max":[4.215931,0.9753506,4.280968],"min":[-4.215931,0.0,-4.280968],"type":"VEC3","name":"accessorPositions"},{"bufferView":1,"byteOffset":45504,"componentType":5126,"count":432,"type":"VEC3","name":"accessorNormals"},{"bufferView":2,"byteOffset":13440,"componentType":5126,"count":432,"type":"VEC2","name":"accessorUVs"},{"bufferView":3,"componentType":5126,"count":55,"max":[3.33333325],"min":[0.0],"type":"SCALAR","name":"accessorAnimationInput"},{"bufferView":4,"componentType":5126,"count":55,"type":"VEC4","name":"accessorAnimationRotations"},{"bufferView":3,"byteOffset":220,"componentType":5126,"count":41,"max":[3.33333325],"min":[0.0],"type":"SCALAR","name":"accessorAnimationInput"},{"bufferView":4,"byteOffset":880,"componentType":5126,"count":41,"type":"VEC4","name":"accessorAnimationRotations"},{"bufferView":3,"byteOffset":384,"componentType":5126,"count":91,"max":[3.33333325],"min":[0.0],"type":"SCALAR","name":"accessorAnimationInput"},{"bufferView":5,"componentType":5126,"count":91,"type":"VEC3","name":"accessorAnimationPositions"},{"bufferView":3,"byteOffset":748,"componentType":5126,"count":91,"max":[3.33333325],"min":[0.0],"type":"SCALAR","name":"accessorAnimationInput"},{"bufferView":5,"byteOffset":1092,"componentType":5126,"count":91,"type":"VEC3","name":"accessorAnimationPositions"},{"bufferView":3,"byteOffset":1112,"componentType":5126,"count":92,"max":[3.33333325],"min":[0.0],"type":"SCALAR","name":"accessorAnimationInput"},{"bufferView":5,"byteOffset":2184,"componentType":5126,"count":92,"type":"VEC3","name":"accessorAnimationPositions"},{"bufferView":3,"byteOffset":1480,"componentType":5126,"count":15,"max":[3.33333325],"min":[0.0],"type":"SCALAR","name":"accessorAnimationInput"},{"bufferView":4,"byteOffset":1536,"componentType":5126,"count":15,"type":"VEC4","name":"accessorAnimationRotations"},{"bufferView":3,"byteOffset":1540,"componentType":5126,"count":92,"max":[3.33333325],"min":[0.0],"type":"SCALAR","name":"accessorAnimationInput"},{"bufferView":5,"byteOffset":3288,"componentType":5126,"count":92,"type":"VEC3","name":"accessorAnimationPositions"},{"bufferView":3,"byteOffset":1908,"componentType":5126,"count":15,"max":[3.33333325],"min":[0.0],"type":"SCALAR","name":"accessorAnimationInput"},{"bufferView":4,"byteOffset":1776,"componentType":5126,"count":15,"type":"VEC4","name":"accessorAnimationRotations"},{"bufferView":3,"byteOffset":1968,"componentType":5126,"count":93,"max":[3.33333325],"min":[0.0],"type":"SCALAR","name":"accessorAnimationInput"},{"bufferView":5,"byteOffset":4392,"componentType":5126,"count":93,"type":"VEC3","name":"accessorAnimationPositions"},{"bufferView":3,"byteOffset":2340,"componentType":5126,"count":20,"max":[3.33333325],"min":[0.0],"type":"SCALAR","name":"accessorAnimationInput"},{"bufferView":4,"byteOffset":2016,"componentType":5126,"count":20,"type":"VEC4","name":"accessorAnimationRotations"},{"bufferView":3,"byteOffset":2420,"componentType":5126,"count":93,"max":[3.33333325],"min":[0.0],"type":"SCALAR","name":"accessorAnimationInput"},{"bufferView":5,"byteOffset":5508,"componentType":5126,"count":93,"type":"VEC3","name":"accessorAnimationPositions"},{"bufferView":3,"byteOffset":2792,"componentType":5126,"count":20,"max":[3.33333325],"min":[0.0],"type":"SCALAR","name":"accessorAnimationInput"},{"bufferView":4,"byteOffset":2336,"componentType":5126,"count":20,"type":"VEC4","name":"accessorAnimationRotations"},{"bufferView":3,"byteOffset":2872,"componentType":5126,"count":93,"max":[3.33333325],"min":[0.0],"type":"SCALAR","name":"accessorAnimationInput"},{"bufferView":5,"byteOffset":6624,"componentType":5126,"count":93,"type":"VEC3","name":"accessorAnimationPositions"},{"bufferView":3,"byteOffset":3244,"componentType":5126,"count":20,"max":[3.33333325],"min":[0.0],"type":"SCALAR","name":"accessorAnimationInput"},{"bufferView":4,"byteOffset":2656,"componentType":5126,"count":20,"type":"VEC4","name":"accessorAnimationRotations"},{"bufferView":3,"byteOffset":3324,"componentType":5126,"count":93,"max":[3.33333325],"min":[0.0],"type":"SCALAR","name":"accessorAnimationInput"},{"bufferView":5,"byteOffset":7740,"componentType":5126,"count":93,"type":"VEC3","name":"accessorAnimationPositions"},{"bufferView":3,"byteOffset":3696,"componentType":5126,"count":20,"max":[3.33333325],"min":[0.0],"type":"SCALAR","name":"accessorAnimationInput"},{"bufferView":4,"byteOffset":2976,"componentType":5126,"count":20,"type":"VEC4","name":"accessorAnimationRotations"},{"bufferView":3,"byteOffset":3776,"componentType":5126,"count":91,"max":[3.33333325],"min":[0.0],"type":"SCALAR","name":"accessorAnimationInput"},{"bufferView":5,"byteOffset":8856,"componentType":5126,"count":91,"type":"VEC3","name":"accessorAnimationPositions"},{"bufferView":3,"byteOffset":4140,"componentType":5126,"count":95,"max":[3.33333325],"min":[0.0],"type":"SCALAR","name":"accessorAnimationInput"},{"bufferView":5,"byteOffset":9948,"componentType":5126,"count":95,"type":"VEC3","name":"accessorAnimationPositions"},{"bufferView":3,"byteOffset":4520,"componentType":5126,"count":95,"max":[3.33333325],"min":[0.0],"type":"SCALAR","name":"accessorAnimationInput"},{"bufferView":5,"byteOffset":11088,"componentType":5126,"count":95,"type":"VEC3","name":"accessorAnimationPositions"},{"bufferView":3,"byteOffset":4900,"componentType":5126,"count":92,"max":[3.33333325],"min":[0.0],"type":"SCALAR","name":"accessorAnimationInput"},{"bufferView":5,"byteOffset":12228,"componentType":5126,"count":92,"type":"VEC3","name":"accessorAnimationPositions"},{"bufferView":3,"byteOffset":5268,"componentType":5126,"count":14,"max":[3.33333325],"min":[0.0],"type":"SCALAR","name":"accessorAnimationInput"},{"bufferView":5,"byteOffset":13332,"componentType":5126,"count":14,"type":"VEC3","name":"accessorAnimationScales"}],"bufferViews":[{"buffer":0,"byteLength":4224,"name":"bufferViewScalar"},{"buffer":0,"byteOffset":4224,"byteLength":50688,"byteStride":12,"name":"bufferViewFloatVec3"},{"buffer":0,"byteOffset":54912,"byteLength":16896,"byteStride":8,"name":"bufferViewFloatVec2"},{"buffer":0,"byteOffset":71808,"byteLength":5324,"name":"bufferViewAnimationFloatScalar"},{"buffer":0,"byteOffset":77132,"byteLength":3296,"name":"bufferViewAnimationFloatVec4"},{"buffer":0,"byteOffset":80428,"byteLength":13500,"name":"bufferViewAnimationFloatVec3"}],"buffers":[{"uri":"creature_4.bin","byteLength":93928}],"materials":[{"pbrMetallicRoughness":{"baseColorTexture":{"index":0},"metallicFactor":0.0,"roughnessFactor":0.450053632},"name":"Material #25"},{"pbrMetallicRoughness":{"baseColorTexture":{"index":1},"metallicFactor":0.0,"roughnessFactor":0.7022211},"name":"Material #28"},{"pbrMetallicRoughness":{"baseColorTexture":{"index":2},"metallicFactor":0.0,"roughnessFactor":0.7022211},"name":"Material #29"},{"pbrMetallicRoughness":{"baseColorTexture":{"index":3},"metallicFactor":0.0,"roughnessFactor":0.450053632},"name":"Material #26"},{"pbrMetallicRoughness":{"baseColorTexture":{"index":4},"metallicFactor":0.0,"roughnessFactor":0.7022211},"name":"Material #27"},{"pbrMetallicRoughness":{"baseColorTexture":{"index":5},"metallicFactor":0.0,"roughnessFactor":0.7022211},"name":"Material #30"}],"textures":[{"sampler":0,"source":0,"name":"blue.jpg"},{"sampler":0,"source":1,"name":"yellow.jpg"},{"sampler":0,"source":2,"name":"red.jpg"},{"sampler":0,"source":3,"name":"white.jpg"},{"sampler":0,"source":4,"name":"green.jpg"},{"sampler":0,"source":5,"name":"black.jpg"}],"images":[{"uri":"../ExTex/blue.jpg"},{"uri":"../ExTex/yellow.jpg"},{"uri":"../ExTex/red.jpg"},{"uri":"../ExTex/white.jpg"},{"uri":"../ExTex/green.jpg"},{"uri":"../ExTex/black.jpg"}],"samplers":[{"magFilter":9729,"minFilter":9987}],"animations":[{"channels":[{"sampler":0,"target":{"node":1,"path":"rotation"}},{"sampler":1,"target":{"node":2,"path":"rotation"}},{"sampler":2,"target":{"node":3,"path":"translation"}},{"sampler":3,"target":{"node":4,"path":"translation"}},{"sampler":4,"target":{"node":5,"path":"translation"}},{"sampler":5,"target":{"node":5,"path":"rotation"}},{"sampler":6,"target":{"node":6,"path":"translation"}},{"sampler":7,"target":{"node":6,"path":"rotation"}},{"sampler":8,"target":{"node":7,"path":"translation"}},{"sampler":9,"target":{"node":7,"path":"rotation"}},{"sampler":10,"target":{"node":8,"path":"translation"}},{"sampler":11,"target":{"node":8,"path":"rotation"}},{"sampler":12,"target":{"node":9,"path":"translation"}},{"sampler":13,"target":{"node":9,"path":"rotation"}},{"sampler":14,"target":{"node":10,"path":"translation"}},{"sampler":15,"target":{"node":10,"path":"rotation"}},{"sampler":16,"target":{"node":11,"path":"translation"}},{"sampler":17,"target":{"node":12,"path":"translation"}},{"sampler":18,"target":{"node":13,"path":"translation"}},{"sampler":19,"target":{"node":14,"path":"translation"}},{"sampler":20,"target":{"node":14,"path":"scale"}}],"samplers":[{"input":48,"output":49},{"input":50,"output":51},{"input":52,"output":53},{"input":54,"output":55},{"input":56,"output":57},{"input":58,"output":59},{"input":60,"output":61},{"input":62,"output":63},{"input":64,"output":65},{"input":66,"output":67},{"input":68,"output":69},{"input":70,"output":71},{"input":72,"output":73},{"input":74,"output":75},{"input":76,"output":77},{"input":78,"output":79},{"input":80,"output":81},{"input":82,"output":83},{"input":84,"output":85},{"input":86,"output":87},{"input":88,"output":89}],"name":"All Animations"}]}