{"asset":{"version":"2.0","generator":"babylon.js glTF exporter for 3dsmax 2020 v20200415.4"},"scene":0,"scenes":[{"nodes":[0,12]}],"nodes":[{"children":[1,2,3,4,5,6,7,8,9,10,11],"name":"creature_3"},{"mesh":0,"translation":[-0.0219187737,8.079689,-4.73509169],"rotation":[0.7800379,-0.00362287229,0.00451646559,0.62570554],"name":"Box006"},{"mesh":1,"translation":[-0.286984682,6.84199524,6.09775734],"rotation":[0.0494274721,-0.005782886,0.000286188,0.998760939],"scale":[1.0,1.0,0.99999994],"name":"Box007"},{"mesh":2,"translation":[-3.41285849,9.477638,4.37356949],"rotation":[0.497096717,-0.5028865,0.5028868,0.497096449],"name":"Torus003"},{"mesh":2,"translation":[3.076285,9.477638,4.37356949],"rotation":[0.497096717,-0.5028865,0.5028868,0.497096449],"name":"Torus004"},{"mesh":3,"translation":[-0.07632661,10.8235016,-2.29122257],"rotation":[-0.205990165,-0.005665787,-0.00119269581,0.978536963],"scale":[1.0,1.00000012,0.99999994],"name":"Pyramid001"},{"mesh":4,"translation":[-0.488865137,-10.2875595,-2.865806],"name":"Cone015"},{"mesh":5,"translation":[-0.6149158,5.268734,-2.39187384],"name":"Cylinder003"},{"mesh":6,"translation":[-6.249534,-9.752426,-1.81830835],"rotation":[-7.54979E-08,-7.54979E-08,1.0,-5.69993331E-15],"name":"Box008"},{"mesh":7,"translation":[4.111839,-9.75241852,-2.139122],"rotation":[-7.54979E-08,-7.54979E-08,1.0,-5.69993331E-15],"name":"Box009"},{"mesh":8,"translation":[4.481514,0.0495834351,-3.22361517],"rotation":[0.363351166,0.59853816,-0.349255532,0.6226946],"scale":[0.99999994,0.99999994,1.0],"name":"Box010"},{"mesh":9,"translation":[-6.567253,-0.5138931,-2.71559024],"rotation":[0.339105576,-0.637825668,0.3703933,0.5839474],"scale":[1.0,1.00000012,1.00000012],"name":"Box011"},{"name":"Default light"}],"meshes":[{"primitives":[{"attributes":{"POSITION":1,"NORMAL":2,"TEXCOORD_0":3},"indices":0,"material":0}],"name":"Box006"},{"primitives":[{"attributes":{"POSITION":5,"NORMAL":6,"TEXCOORD_0":7},"indices":4,"material":0}],"name":"Box007"},{"primitives":[{"attributes":{"POSITION":9,"NORMAL":10,"TEXCOORD_0":11},"indices":8,"material":1}],"name":"Torus003"},{"primitives":[{"attributes":{"POSITION":13,"NORMAL":14,"TEXCOORD_0":15},"indices":12,"material":2}],"name":"Pyramid001"},{"primitives":[{"attributes":{"POSITION":17,"NORMAL":18,"TEXCOORD_0":19},"indices":16,"material":3}],"name":"Cone015"},{"primitives":[{"attributes":{"POSITION":21,"NORMAL":22,"TEXCOORD_0":23},"indices":20,"material":0}],"name":"Cylinder003"},{"primitives":[{"attributes":{"POSITION":25,"NORMAL":26,"TEXCOORD_0":27},"indices":24,"material":4}],"name":"Box008"},{"primitives":[{"attributes":{"POSITION":29,"NORMAL":30,"TEXCOORD_0":31},"indices":28,"material":4}],"name":"Box009"},{"primitives":[{"attributes":{"POSITION":33,"NORMAL":34,"TEXCOORD_0":35},"indices":32,"material":4}],"name":"Box010"},{"primitives":[{"attributes":{"POSITION":37,"NORMAL":38,"TEXCOORD_0":39},"indices":36,"material":4}],"name":"Box011"}],"accessors":[{"bufferView":0,"componentType":5123,"count":36,"type":"SCALAR","name":"accessorIndices"},{"bufferView":1,"componentType":5126,"count":36,"max":[2.00128937,18.9698868,0.6746287],"min":[-2.00128937,0.0,-0.6746287],"type":"VEC3","name":"accessorPositions"},{"bufferView":1,"byteOffset":432,"componentType":5126,"count":36,"type":"VEC3","name":"accessorNormals"},{"bufferView":2,"componentType":5126,"count":36,"type":"VEC2","name":"accessorUVs"},{"bufferView":0,"byteOffset":72,"componentType":5123,"count":36,"type":"SCALAR","name":"accessorIndices"},{"bufferView":1,"byteOffset":864,"componentType":5126,"count":36,"max":[3.14562869,5.03763,9.349685],"min":[-3.14562869,0.0,-9.349685],"type":"VEC3","name":"accessorPositions"},{"bufferView":1,"byteOffset":1296,"componentType":5126,"count":36,"type":"VEC3","name":"accessorNormals"},{"bufferView":2,"byteOffset":288,"componentType":5126,"count":36,"type":"VEC2","name":"accessorUVs"},{"bufferView":0,"byteOffset":144,"componentType":5123,"count":1728,"type":"SCALAR","name":"accessorIndices"},{"bufferView":1,"byteOffset":1728,"componentType":5126,"count":1728,"max":[1.47336924,0.289755136,1.47336924],"min":[-1.47336924,-0.289755136,-1.47336924],"type":"VEC3","name":"accessorPositions"},{"bufferView":1,"byteOffset":22464,"componentType":5126,"count":1728,"type":"VEC3","name":"accessorNormals"},{"bufferView":2,"byteOffset":576,"componentType":5126,"count":1728,"type":"VEC2","name":"accessorUVs"},{"bufferView":0,"byteOffset":3600,"componentType":5123,"count":24,"type":"SCALAR","name":"accessorIndices"},{"bufferView":1,"byteOffset":43200,"componentType":5126,"count":24,"max":[6.532118,6.781818,6.42404842],"min":[-6.532118,0.0,-6.42404842],"type":"VEC3","name":"accessorPositions"},{"bufferView":1,"byteOffset":43488,"componentType":5126,"count":24,"type":"VEC3","name":"accessorNormals"},{"bufferView":2,"byteOffset":14400,"componentType":5126,"count":24,"type":"VEC2","name":"accessorUVs"},{"bufferView":0,"byteOffset":3648,"componentType":5123,"count":144,"type":"SCALAR","name":"accessorIndices"},{"bufferView":1,"byteOffset":43776,"componentType":5126,"count":144,"max":[13.0691137,15.5562916,13.0691137],"min":[-13.0691137,0.0,-13.0691137],"type":"VEC3","name":"accessorPositions"},{"bufferView":1,"byteOffset":45504,"componentType":5126,"count":144,"type":"VEC3","name":"accessorNormals"},{"bufferView":2,"byteOffset":14592,"componentType":5126,"count":144,"type":"VEC2","name":"accessorUVs"},{"bufferView":0,"byteOffset":3936,"componentType":5123,"count":144,"type":"SCALAR","name":"accessorIndices"},{"bufferView":1,"byteOffset":47232,"componentType":5126,"count":144,"max":[3.98383379,6.27090359,3.98383379],"min":[-3.98383379,0.0,-3.98383379],"type":"VEC3","name":"accessorPositions"},{"bufferView":1,"byteOffset":48960,"componentType":5126,"count":144,"type":"VEC3","name":"accessorNormals"},{"bufferView":2,"byteOffset":15744,"componentType":5126,"count":144,"type":"VEC2","name":"accessorUVs"},{"bufferView":0,"byteOffset":4224,"componentType":5123,"count":36,"type":"SCALAR","name":"accessorIndices"},{"bufferView":1,"byteOffset":50688,"componentType":5126,"count":36,"max":[0.821713448,7.127125,0.9039551],"min":[-0.821713448,0.0,-0.9039551],"type":"VEC3","name":"accessorPositions"},{"bufferView":1,"byteOffset":51120,"componentType":5126,"count":36,"type":"VEC3","name":"accessorNormals"},{"bufferView":2,"byteOffset":16896,"componentType":5126,"count":36,"type":"VEC2","name":"accessorUVs"},{"bufferView":0,"byteOffset":4296,"componentType":5123,"count":36,"type":"SCALAR","name":"accessorIndices"},{"bufferView":1,"byteOffset":51552,"componentType":5126,"count":36,"max":[0.6724721,7.27734947,1.35014009],"min":[-0.6724721,0.0,-1.35014009],"type":"VEC3","name":"accessorPositions"},{"bufferView":1,"byteOffset":51984,"componentType":5126,"count":36,"type":"VEC3","name":"accessorNormals"},{"bufferView":2,"byteOffset":17184,"componentType":5126,"count":36,"type":"VEC2","name":"accessorUVs"},{"bufferView":0,"byteOffset":4368,"componentType":5123,"count":36,"type":"SCALAR","name":"accessorIndices"},{"bufferView":1,"byteOffset":52416,"componentType":5126,"count":36,"max":[0.6445606,17.1479454,0.8324468],"min":[-0.6445606,0.0,-0.8324468],"type":"VEC3","name":"accessorPositions"},{"bufferView":1,"byteOffset":52848,"componentType":5126,"count":36,"type":"VEC3","name":"accessorNormals"},{"bufferView":2,"byteOffset":17472,"componentType":5126,"count":36,"type":"VEC2","name":"accessorUVs"},{"bufferView":0,"byteOffset":4440,"componentType":5123,"count":36,"type":"SCALAR","name":"accessorIndices"},{"bufferView":1,"byteOffset":53280,"componentType":5126,"count":36,"max":[0.7844082,14.8834658,0.649479],"min":[-0.7844082,0.0,-0.649479],"type":"VEC3","name":"accessorPositions"},{"bufferView":1,"byteOffset":53712,"componentType":5126,"count":36,"type":"VEC3","name":"accessorNormals"},{"bufferView":2,"byteOffset":17760,"componentType":5126,"count":36,"type":"VEC2","name":"accessorUVs"},{"bufferView":3,"componentType":5126,"count":64,"max":[3.33333325],"min":[0.0],"type":"SCALAR","name":"accessorAnimationInput"},{"bufferView":4,"componentType":5126,"count":64,"type":"VEC3","name":"accessorAnimationPositions"},{"bufferView":3,"byteOffset":256,"componentType":5126,"count":4,"max":[3.33333325],"min":[0.0],"type":"SCALAR","name":"accessorAnimationInput"},{"bufferView":5,"componentType":5126,"count":4,"type":"VEC4","name":"accessorAnimationRotations"},{"bufferView":3,"byteOffset":272,"componentType":5126,"count":86,"max":[3.33333325],"min":[0.0],"type":"SCALAR","name":"accessorAnimationInput"},{"bufferView":4,"byteOffset":768,"componentType":5126,"count":86,"type":"VEC3","name":"accessorAnimationPositions"},{"bufferView":3,"byteOffset":616,"componentType":5126,"count":4,"max":[3.33333325],"min":[0.0],"type":"SCALAR","name":"accessorAnimationInput"},{"bufferView":5,"byteOffset":64,"componentType":5126,"count":4,"type":"VEC4","name":"accessorAnimationRotations"},{"bufferView":3,"byteOffset":632,"componentType":5126,"count":86,"max":[3.33333325],"min":[0.0],"type":"SCALAR","name":"accessorAnimationInput"},{"bufferView":4,"byteOffset":1800,"componentType":5126,"count":86,"type":"VEC3","name":"accessorAnimationPositions"},{"bufferView":3,"byteOffset":976,"componentType":5126,"count":3,"max":[3.33333325],"min":[0.0],"type":"SCALAR","name":"accessorAnimationInput"},{"bufferView":5,"byteOffset":128,"componentType":5126,"count":3,"type":"VEC4","name":"accessorAnimationRotations"},{"bufferView":3,"byteOffset":988,"componentType":5126,"count":86,"max":[3.33333325],"min":[0.0],"type":"SCALAR","name":"accessorAnimationInput"},{"bufferView":4,"byteOffset":2832,"componentType":5126,"count":86,"type":"VEC3","name":"accessorAnimationPositions"},{"bufferView":3,"byteOffset":1332,"componentType":5126,"count":3,"max":[3.33333325],"min":[0.0],"type":"SCALAR","name":"accessorAnimationInput"},{"bufferView":5,"byteOffset":176,"componentType":5126,"count":3,"type":"VEC4","name":"accessorAnimationRotations"},{"bufferView":3,"byteOffset":1344,"componentType":5126,"count":86,"max":[3.33333325],"min":[0.0],"type":"SCALAR","name":"accessorAnimationInput"},{"bufferView":4,"byteOffset":3864,"componentType":5126,"count":86,"type":"VEC3","name":"accessorAnimationPositions"},{"bufferView":3,"byteOffset":1688,"componentType":5126,"count":19,"max":[3.33333325],"min":[0.0],"type":"SCALAR","name":"accessorAnimationInput"},{"bufferView":5,"byteOffset":224,"componentType":5126,"count":19,"type":"VEC4","name":"accessorAnimationRotations"},{"bufferView":3,"byteOffset":1764,"componentType":5126,"count":78,"max":[3.33333325],"min":[0.0],"type":"SCALAR","name":"accessorAnimationInput"},{"bufferView":4,"byteOffset":4896,"componentType":5126,"count":78,"type":"VEC3","name":"accessorAnimationPositions"},{"bufferView":3,"byteOffset":2076,"componentType":5126,"count":86,"max":[3.33333325],"min":[0.0],"type":"SCALAR","name":"accessorAnimationInput"},{"bufferView":4,"byteOffset":5832,"componentType":5126,"count":86,"type":"VEC3","name":"accessorAnimationPositions"},{"bufferView":3,"byteOffset":2420,"componentType":5126,"count":4,"max":[3.33333325],"min":[0.0],"type":"SCALAR","name":"accessorAnimationInput"},{"bufferView":5,"byteOffset":528,"componentType":5126,"count":4,"type":"VEC4","name":"accessorAnimationRotations"},{"bufferView":3,"byteOffset":2436,"componentType":5126,"count":44,"max":[3.33333325],"min":[0.0],"type":"SCALAR","name":"accessorAnimationInput"},{"bufferView":5,"byteOffset":592,"componentType":5126,"count":44,"type":"VEC4","name":"accessorAnimationRotations"},{"bufferView":3,"byteOffset":2612,"componentType":5126,"count":42,"max":[3.33333325],"min":[0.0],"type":"SCALAR","name":"accessorAnimationInput"},{"bufferView":5,"byteOffset":1296,"componentType":5126,"count":42,"type":"VEC4","name":"accessorAnimationRotations"},{"bufferView":3,"byteOffset":2780,"componentType":5126,"count":86,"max":[3.33333325],"min":[0.0],"type":"SCALAR","name":"accessorAnimationInput"},{"bufferView":4,"byteOffset":6864,"componentType":5126,"count":86,"type":"VEC3","name":"accessorAnimationPositions"},{"bufferView":3,"byteOffset":3124,"componentType":5126,"count":22,"max":[3.33333325],"min":[0.0],"type":"SCALAR","name":"accessorAnimationInput"},{"bufferView":5,"byteOffset":1968,"componentType":5126,"count":22,"type":"VEC4","name":"accessorAnimationRotations"},{"bufferView":3,"byteOffset":3212,"componentType":5126,"count":86,"max":[3.33333325],"min":[0.0],"type":"SCALAR","name":"accessorAnimationInput"},{"bufferView":4,"byteOffset":7896,"componentType":5126,"count":86,"type":"VEC3","name":"accessorAnimationPositions"},{"bufferView":3,"byteOffset":3556,"componentType":5126,"count":54,"max":[3.33333325],"min":[0.0],"type":"SCALAR","name":"accessorAnimationInput"},{"bufferView":5,"byteOffset":2320,"componentType":5126,"count":54,"type":"VEC4","name":"accessorAnimationRotations"}],"bufferViews":[{"buffer":0,"byteLength":4512,"name":"bufferViewScalar"},{"buffer":0,"byteOffset":4512,"byteLength":54144,"byteStride":12,"name":"bufferViewFloatVec3"},{"buffer":0,"byteOffset":58656,"byteLength":18048,"byteStride":8,"name":"bufferViewFloatVec2"},{"buffer":0,"byteOffset":76704,"byteLength":3772,"name":"bufferViewAnimationFloatScalar"},{"buffer":0,"byteOffset":80476,"byteLength":8928,"name":"bufferViewAnimationFloatVec3"},{"buffer":0,"byteOffset":89404,"byteLength":3184,"name":"bufferViewAnimationFloatVec4"}],"buffers":[{"uri":"creature_3.bin","byteLength":92588}],"materials":[{"pbrMetallicRoughness":{"baseColorTexture":{"index":0},"metallicFactor":0.0,"roughnessFactor":0.450053632},"name":"Material #26"},{"pbrMetallicRoughness":{"baseColorTexture":{"index":1},"metallicFactor":0.0,"roughnessFactor":0.7022211},"name":"Material #30"},{"pbrMetallicRoughness":{"baseColorTexture":{"index":2},"metallicFactor":0.0,"roughnessFactor":0.450053632},"name":"Material #25"},{"pbrMetallicRoughness":{"baseColorTexture":{"index":3},"metallicFactor":0.0,"roughnessFactor":0.7022211},"name":"Material #28"},{"pbrMetallicRoughness":{"baseColorTexture":{"index":4},"metallicFactor":0.0,"roughnessFactor":0.7022211},"name":"Material #29"}],"textures":[{"sampler":0,"source":0,"name":"white.jpg"},{"sampler":0,"source":1,"name":"black.jpg"},{"sampler":0,"source":2,"name":"blue.jpg"},{"sampler":0,"source":3,"name":"yellow.jpg"},{"sampler":0,"source":4,"name":"red.jpg"}],"images":[{"uri":"../ExTex/white.jpg"},{"uri":"../ExTex/black.jpg"},{"uri":"../ExTex/blue.jpg"},{"uri":"../ExTex/yellow.jpg"},{"uri":"../ExTex/red.jpg"}],"samplers":[{"magFilter":9729,"minFilter":9987}],"animations":[{"channels":[{"sampler":0,"target":{"node":1,"path":"translation"}},{"sampler":1,"target":{"node":1,"path":"rotation"}},{"sampler":2,"target":{"node":2,"path":"translation"}},{"sampler":3,"target":{"node":2,"path":"rotation"}},{"sampler":4,"target":{"node":3,"path":"translation"}},{"sampler":5,"target":{"node":3,"path":"rotation"}},{"sampler":6,"target":{"node":4,"path":"translation"}},{"sampler":7,"target":{"node":4,"path":"rotation"}},{"sampler":8,"target":{"node":5,"path":"translation"}},{"sampler":9,"target":{"node":5,"path":"rotation"}},{"sampler":10,"target":{"node":6,"path":"translation"}},{"sampler":11,"target":{"node":7,"path":"translation"}},{"sampler":12,"target":{"node":7,"path":"rotation"}},{"sampler":13,"target":{"node":8,"path":"rotation"}},{"sampler":14,"target":{"node":9,"path":"rotation"}},{"sampler":15,"target":{"node":10,"path":"translation"}},{"sampler":16,"target":{"node":10,"path":"rotation"}},{"sampler":17,"target":{"node":11,"path":"translation"}},{"sampler":18,"target":{"node":11,"path":"rotation"}}],"samplers":[{"input":40,"output":41},{"input":42,"output":43},{"input":44,"output":45},{"input":46,"output":47},{"input":48,"output":49},{"input":50,"output":51},{"input":52,"output":53},{"input":54,"output":55},{"input":56,"output":57},{"input":58,"output":59},{"input":60,"output":61},{"input":62,"output":63},{"input":64,"output":65},{"input":66,"output":67},{"input":68,"output":69},{"input":70,"output":71},{"input":72,"output":73},{"input":74,"output":75},{"input":76,"output":77}],"name":"All Animations"}]}