{"asset":{"version":"2.0","generator":"babylon.js glTF exporter for 3dsmax 2020 v20200415.4"},"scene":0,"scenes":[{"nodes":[0,17]}],"nodes":[{"children":[1,2,3,4,5,6,7,8,9,10,11,12,13,14,15,16],"translation":[1.99474907,13.7116394,0.126791],"name":"creature_news"},{"mesh":0,"translation":[5.66789627,-36.984848,-7.28067541],"rotation":[-0.6607653,-0.242464334,0.66873306,-0.239575565],"scale":[0.9999999,1.00000012,1.0],"name":"Box034"},{"mesh":1,"translation":[-5.84289646,-36.8501549,-6.701664],"rotation":[0.6663032,-0.230377868,0.671330035,0.22865279],"scale":[1.00000024,0.9999996,0.99999994],"name":"Box035"},{"mesh":2,"translation":[-0.177785158,1.787178,-3.6396122],"rotation":[0.7068329,-0.0196815543,0.0196815562,0.706832767],"name":"Box036"},{"mesh":3,"translation":[-0.96012187,-3.08743668,-4.09007359],"rotation":[0.707070649,0.007151382,-0.00715127541,0.7070706],"scale":[0.99999994,0.99999994,1.00000012],"name":"Box037"},{"mesh":4,"translation":[0.04270935,-34.4053574,12.4418316],"rotation":[0.08762886,0.0,0.0,0.996153235],"name":"Box038"},{"mesh":5,"translation":[-7.63232851,-12.370903,-4.86208725],"rotation":[0.704346538,-0.06241806,0.06241795,0.7043465],"scale":[0.9999999,0.99999994,1.00000012],"name":"Box039"},{"mesh":6,"translation":[7.527482,-12.9260712,-4.23028231],"rotation":[0.7022719,0.08254827,-0.0825481862,0.702271938],"scale":[0.99999994,0.99999994,0.99999994],"name":"Box040"},{"mesh":7,"translation":[0.0372085571,-15.9281082,-13.1460438],"rotation":[-0.003472687,-0.707098246,0.7070983,-0.003472687],"name":"Box041"},{"mesh":8,"translation":[-0.379742861,8.506332,-7.02022],"rotation":[-0.0525063425,-1.78439685E-09,4.28061924E-08,0.9986206],"scale":[1.0,0.99999994,0.99999994],"name":"Cone032"},{"mesh":9,"translation":[-0.0499546528,-38.3109741,-6.19519234],"name":"Cylinder005"},{"mesh":10,"translation":[0.233748913,6.47797775,-6.50104046],"rotation":[2.72411853E-08,1.16703522E-15,4.284084E-08,1.0],"name":"Cylinder006"},{"mesh":11,"translation":[-6.268589,1.70095825,-1.0783844],"rotation":[0.485889375,-0.513723254,0.5137233,0.485889167],"scale":[1.00000012,1.00000012,1.0],"name":"Sphere014"},{"mesh":12,"translation":[5.616662,1.68884277,-0.8833761],"rotation":[0.5137232,0.485889345,-0.4858894,0.513723254],"scale":[1.00000012,1.00000012,1.0],"name":"Sphere015"},{"mesh":13,"translation":[-3.5950532,1.81096649,12.4730892],"rotation":[0.7068329,-0.0196815543,0.0196815562,0.706832767],"name":"Torus005"},{"mesh":14,"translation":[1.68722916,1.80952454,12.7674694],"rotation":[0.7068329,-0.0196815543,0.0196815562,0.706832767],"name":"Torus006"},{"mesh":15,"translation":[0.0416703224,-21.34325,15.47863],"rotation":[0.7663496,0.0,0.0,0.642423749],"name":"Tube004"},{"name":"Default light"}],"meshes":[{"primitives":[{"attributes":{"POSITION":1,"NORMAL":2,"TEXCOORD_0":3},"indices":0,"material":0}],"name":"Box034"},{"primitives":[{"attributes":{"POSITION":5,"NORMAL":6,"TEXCOORD_0":7},"indices":4,"material":0}],"name":"Box035"},{"primitives":[{"attributes":{"POSITION":9,"NORMAL":10,"TEXCOORD_0":11},"indices":8,"material":1}],"name":"Box036"},{"primitives":[{"attributes":{"POSITION":13,"NORMAL":14,"TEXCOORD_0":15},"indices":12,"material":1}],"name":"Box037"},{"primitives":[{"attributes":{"POSITION":17,"NORMAL":18,"TEXCOORD_0":19},"indices":16,"material":2}],"name":"Box038"},{"primitives":[{"attributes":{"POSITION":21,"NORMAL":22,"TEXCOORD_0":23},"indices":20,"material":0}],"name":"Box039"},{"primitives":[{"attributes":{"POSITION":25,"NORMAL":26,"TEXCOORD_0":27},"indices":24,"material":0}],"name":"Box040"},{"primitives":[{"attributes":{"POSITION":29,"NORMAL":30,"TEXCOORD_0":31},"indices":28,"material":2}],"name":"Box041"},{"primitives":[{"attributes":{"POSITION":33,"NORMAL":34,"TEXCOORD_0":35},"indices":32}],"name":"Cone032"},{"primitives":[{"attributes":{"POSITION":37,"NORMAL":38,"TEXCOORD_0":39},"indices":36,"material":3}],"name":"Cylinder005"},{"primitives":[{"attributes":{"POSITION":41,"NORMAL":42,"TEXCOORD_0":43},"indices":40}],"name":"Cylinder006"},{"primitives":[{"attributes":{"POSITION":45,"NORMAL":46,"TEXCOORD_0":47},"indices":44,"material":4}],"name":"Sphere014"},{"primitives":[{"attributes":{"POSITION":49,"NORMAL":50,"TEXCOORD_0":51},"indices":48,"material":4}],"name":"Sphere015"},{"primitives":[{"attributes":{"POSITION":53,"NORMAL":54,"TEXCOORD_0":55},"indices":52,"material":2}],"name":"Torus005"},{"primitives":[{"attributes":{"POSITION":57,"NORMAL":58,"TEXCOORD_0":59},"indices":56,"material":2}],"name":"Torus006"},{"primitives":[{"attributes":{"POSITION":61,"NORMAL":62,"TEXCOORD_0":63},"indices":60,"material":5}],"name":"Tube004"}],"accessors":[{"bufferView":0,"componentType":5123,"count":36,"type":"SCALAR","name":"accessorIndices"},{"bufferView":1,"componentType":5126,"count":36,"max":[1.2370162,19.5219288,1.21741986],"min":[-1.2370162,0.0,-1.21741986],"type":"VEC3","name":"accessorPositions"},{"bufferView":1,"byteOffset":432,"componentType":5126,"count":36,"type":"VEC3","name":"accessorNormals"},{"bufferView":2,"componentType":5126,"count":36,"type":"VEC2","name":"accessorUVs"},{"bufferView":0,"byteOffset":72,"componentType":5123,"count":36,"type":"SCALAR","name":"accessorIndices"},{"bufferView":1,"byteOffset":864,"componentType":5126,"count":36,"max":[1.58714283,18.9799,1.18064654],"min":[-1.58714283,0.0,-1.18064654],"type":"VEC3","name":"accessorPositions"},{"bufferView":1,"byteOffset":1296,"componentType":5126,"count":36,"type":"VEC3","name":"accessorNormals"},{"bufferView":2,"byteOffset":288,"componentType":5126,"count":36,"type":"VEC2","name":"accessorUVs"},{"bufferView":0,"byteOffset":144,"componentType":5123,"count":36,"type":"SCALAR","name":"accessorIndices"},{"bufferView":1,"byteOffset":1728,"componentType":5126,"count":36,"max":[5.93884468,16.2778778,2.59102464],"min":[-5.93884468,0.0,-2.59102464],"type":"VEC3","name":"accessorPositions"},{"bufferView":1,"byteOffset":2160,"componentType":5126,"count":36,"type":"VEC3","name":"accessorNormals"},{"bufferView":2,"byteOffset":576,"componentType":5126,"count":36,"type":"VEC2","name":"accessorUVs"},{"bufferView":0,"byteOffset":216,"componentType":5123,"count":36,"type":"SCALAR","name":"accessorIndices"},{"bufferView":1,"byteOffset":2592,"componentType":5126,"count":36,"max":[5.824233,12.7127314,0.919573963],"min":[-5.824233,0.0,-0.919573963],"type":"VEC3","name":"accessorPositions"},{"bufferView":1,"byteOffset":3024,"componentType":5126,"count":36,"type":"VEC3","name":"accessorNormals"},{"bufferView":2,"byteOffset":864,"componentType":5126,"count":36,"type":"VEC2","name":"accessorUVs"},{"bufferView":0,"byteOffset":288,"componentType":5123,"count":36,"type":"SCALAR","name":"accessorIndices"},{"bufferView":1,"byteOffset":3456,"componentType":5126,"count":36,"max":[11.2785292,27.1329,0.5178327],"min":[-11.2785292,0.0,-0.5178327],"type":"VEC3","name":"accessorPositions"},{"bufferView":1,"byteOffset":3888,"componentType":5126,"count":36,"type":"VEC3","name":"accessorNormals"},{"bufferView":2,"byteOffset":1152,"componentType":5126,"count":36,"type":"VEC2","name":"accessorUVs"},{"bufferView":0,"byteOffset":360,"componentType":5123,"count":36,"type":"SCALAR","name":"accessorIndices"},{"bufferView":1,"byteOffset":4320,"componentType":5126,"count":36,"max":[1.56147766,22.849287,1.4033165],"min":[-1.56147766,0.0,-1.4033165],"type":"VEC3","name":"accessorPositions"},{"bufferView":1,"byteOffset":4752,"componentType":5126,"count":36,"type":"VEC3","name":"accessorNormals"},{"bufferView":2,"byteOffset":1440,"componentType":5126,"count":36,"type":"VEC2","name":"accessorUVs"},{"bufferView":0,"byteOffset":432,"componentType":5123,"count":36,"type":"SCALAR","name":"accessorIndices"},{"bufferView":1,"byteOffset":5184,"componentType":5126,"count":36,"max":[2.02908945,22.623127,2.00814271],"min":[-2.02908945,0.0,-2.00814271],"type":"VEC3","name":"accessorPositions"},{"bufferView":1,"byteOffset":5616,"componentType":5126,"count":36,"type":"VEC3","name":"accessorNormals"},{"bufferView":2,"byteOffset":1728,"componentType":5126,"count":36,"type":"VEC2","name":"accessorUVs"},{"bufferView":0,"byteOffset":504,"componentType":5123,"count":36,"type":"SCALAR","name":"accessorIndices"},{"bufferView":1,"byteOffset":6048,"componentType":5126,"count":36,"max":[4.510029,4.691826,6.719493],"min":[-4.510029,0.0,-6.719493],"type":"VEC3","name":"accessorPositions"},{"bufferView":1,"byteOffset":6480,"componentType":5126,"count":36,"type":"VEC3","name":"accessorNormals"},{"bufferView":2,"byteOffset":2016,"componentType":5126,"count":36,"type":"VEC2","name":"accessorUVs"},{"bufferView":0,"byteOffset":576,"componentType":5123,"count":864,"type":"SCALAR","name":"accessorIndices"},{"bufferView":1,"byteOffset":6912,"componentType":5126,"count":864,"max":[7.85749626,44.521637,7.85749626],"min":[-7.85749626,0.0,-7.85749626],"type":"VEC3","name":"accessorPositions"},{"bufferView":1,"byteOffset":17280,"componentType":5126,"count":864,"type":"VEC3","name":"accessorNormals"},{"bufferView":2,"byteOffset":2304,"componentType":5126,"count":864,"type":"VEC2","name":"accessorUVs"},{"bufferView":0,"byteOffset":2304,"componentType":5123,"count":144,"type":"SCALAR","name":"accessorIndices"},{"bufferView":1,"byteOffset":27648,"componentType":5126,"count":144,"max":[7.573329,45.636898,7.573329],"min":[-7.573329,0.0,-7.573329],"type":"VEC3","name":"accessorPositions"},{"bufferView":1,"byteOffset":29376,"componentType":5126,"count":144,"type":"VEC3","name":"accessorNormals"},{"bufferView":2,"byteOffset":9216,"componentType":5126,"count":144,"type":"VEC2","name":"accessorUVs"},{"bufferView":0,"byteOffset":2592,"componentType":5123,"count":144,"type":"SCALAR","name":"accessorIndices"},{"bufferView":1,"byteOffset":31104,"componentType":5126,"count":144,"max":[11.75767,3.44724965,11.75767],"min":[-11.75767,0.0,-11.75767],"type":"VEC3","name":"accessorPositions"},{"bufferView":1,"byteOffset":32832,"componentType":5126,"count":144,"type":"VEC3","name":"accessorNormals"},{"bufferView":2,"byteOffset":10368,"componentType":5126,"count":144,"type":"VEC2","name":"accessorUVs"},{"bufferView":0,"byteOffset":2880,"componentType":5123,"count":360,"type":"SCALAR","name":"accessorIndices"},{"bufferView":1,"byteOffset":34560,"componentType":5126,"count":360,"max":[2.24079156,2.24079156,2.24079156],"min":[-2.24079156,-2.24079156,-2.24079156],"type":"VEC3","name":"accessorPositions"},{"bufferView":1,"byteOffset":38880,"componentType":5126,"count":360,"type":"VEC3","name":"accessorNormals"},{"bufferView":2,"byteOffset":11520,"componentType":5126,"count":360,"type":"VEC2","name":"accessorUVs"},{"bufferView":0,"byteOffset":3600,"componentType":5123,"count":360,"type":"SCALAR","name":"accessorIndices"},{"bufferView":1,"byteOffset":43200,"componentType":5126,"count":360,"max":[2.05044174,2.05044174,2.05044174],"min":[-2.05044174,-2.05044174,-2.05044174],"type":"VEC3","name":"accessorPositions"},{"bufferView":1,"byteOffset":47520,"componentType":5126,"count":360,"type":"VEC3","name":"accessorNormals"},{"bufferView":2,"byteOffset":14400,"componentType":5126,"count":360,"type":"VEC2","name":"accessorUVs"},{"bufferView":0,"byteOffset":4320,"componentType":5123,"count":864,"type":"SCALAR","name":"accessorIndices"},{"bufferView":1,"byteOffset":51840,"componentType":5126,"count":864,"max":[1.623982,0.320056975,1.623982],"min":[-1.623982,-0.320056975,-1.623982],"type":"VEC3","name":"accessorPositions"},{"bufferView":1,"byteOffset":62208,"componentType":5126,"count":864,"type":"VEC3","name":"accessorNormals"},{"bufferView":2,"byteOffset":17280,"componentType":5126,"count":864,"type":"VEC2","name":"accessorUVs"},{"bufferView":0,"byteOffset":6048,"componentType":5123,"count":864,"type":"SCALAR","name":"accessorIndices"},{"bufferView":1,"byteOffset":72576,"componentType":5126,"count":864,"max":[1.41421771,0.316465467,1.41421771],"min":[-1.41421771,-0.316465467,-1.41421771],"type":"VEC3","name":"accessorPositions"},{"bufferView":1,"byteOffset":82944,"componentType":5126,"count":864,"type":"VEC3","name":"accessorNormals"},{"bufferView":2,"byteOffset":24192,"componentType":5126,"count":864,"type":"VEC2","name":"accessorUVs"},{"bufferView":0,"byteOffset":7776,"componentType":5123,"count":1296,"type":"SCALAR","name":"accessorIndices"},{"bufferView":1,"byteOffset":93312,"componentType":5126,"count":1296,"max":[8.424822,0.0,8.554788],"min":[-8.424822,-0.917927742,-8.554788],"type":"VEC3","name":"accessorPositions"},{"bufferView":1,"byteOffset":108864,"componentType":5126,"count":1296,"type":"VEC3","name":"accessorNormals"},{"bufferView":2,"byteOffset":31104,"componentType":5126,"count":1296,"type":"VEC2","name":"accessorUVs"},{"bufferView":3,"componentType":5126,"count":59,"max":[3.33333325],"min":[0.0],"type":"SCALAR","name":"accessorAnimationInput"},{"bufferView":4,"componentType":5126,"count":59,"type":"VEC4","name":"accessorAnimationRotations"},{"bufferView":3,"byteOffset":236,"componentType":5126,"count":16,"max":[3.33333325],"min":[0.0],"type":"SCALAR","name":"accessorAnimationInput"},{"bufferView":4,"byteOffset":944,"componentType":5126,"count":16,"type":"VEC4","name":"accessorAnimationRotations"},{"bufferView":3,"byteOffset":300,"componentType":5126,"count":67,"max":[3.33333325],"min":[0.0],"type":"SCALAR","name":"accessorAnimationInput"},{"bufferView":5,"componentType":5126,"count":67,"type":"VEC3","name":"accessorAnimationPositions"},{"bufferView":3,"byteOffset":568,"componentType":5126,"count":26,"max":[3.33333325],"min":[0.0],"type":"SCALAR","name":"accessorAnimationInput"},{"bufferView":5,"byteOffset":804,"componentType":5126,"count":26,"type":"VEC3","name":"accessorAnimationPositions"},{"bufferView":3,"byteOffset":672,"componentType":5126,"count":3,"max":[3.33333325],"min":[0.0],"type":"SCALAR","name":"accessorAnimationInput"},{"bufferView":4,"byteOffset":1200,"componentType":5126,"count":3,"type":"VEC4","name":"accessorAnimationRotations"},{"bufferView":3,"byteOffset":684,"componentType":5126,"count":83,"max":[3.33333325],"min":[0.0],"type":"SCALAR","name":"accessorAnimationInput"},{"bufferView":5,"byteOffset":1116,"componentType":5126,"count":83,"type":"VEC3","name":"accessorAnimationPositions"},{"bufferView":3,"byteOffset":1016,"componentType":5126,"count":4,"max":[3.33333325],"min":[0.0],"type":"SCALAR","name":"accessorAnimationInput"},{"bufferView":4,"byteOffset":1248,"componentType":5126,"count":4,"type":"VEC4","name":"accessorAnimationRotations"},{"bufferView":3,"byteOffset":1032,"componentType":5126,"count":5,"max":[3.33333325],"min":[0.0],"type":"SCALAR","name":"accessorAnimationInput"},{"bufferView":4,"byteOffset":1312,"componentType":5126,"count":5,"type":"VEC4","name":"accessorAnimationRotations"},{"bufferView":3,"byteOffset":1052,"componentType":5126,"count":67,"max":[3.33333325],"min":[0.0],"type":"SCALAR","name":"accessorAnimationInput"},{"bufferView":5,"byteOffset":2112,"componentType":5126,"count":67,"type":"VEC3","name":"accessorAnimationPositions"},{"bufferView":3,"byteOffset":1320,"componentType":5126,"count":66,"max":[3.33333325],"min":[0.0],"type":"SCALAR","name":"accessorAnimationInput"},{"bufferView":5,"byteOffset":2916,"componentType":5126,"count":66,"type":"VEC3","name":"accessorAnimationPositions"},{"bufferView":3,"byteOffset":1584,"componentType":5126,"count":3,"max":[3.33333325],"min":[0.0],"type":"SCALAR","name":"accessorAnimationInput"},{"bufferView":4,"byteOffset":1392,"componentType":5126,"count":3,"type":"VEC4","name":"accessorAnimationRotations"},{"bufferView":3,"byteOffset":1596,"componentType":5126,"count":67,"max":[3.33333325],"min":[0.0],"type":"SCALAR","name":"accessorAnimationInput"},{"bufferView":5,"byteOffset":3708,"componentType":5126,"count":67,"type":"VEC3","name":"accessorAnimationPositions"},{"bufferView":3,"byteOffset":1864,"componentType":5126,"count":66,"max":[3.33333325],"min":[0.0],"type":"SCALAR","name":"accessorAnimationInput"},{"bufferView":5,"byteOffset":4512,"componentType":5126,"count":66,"type":"VEC3","name":"accessorAnimationPositions"},{"bufferView":3,"byteOffset":2128,"componentType":5126,"count":3,"max":[3.33333325],"min":[0.0],"type":"SCALAR","name":"accessorAnimationInput"},{"bufferView":4,"byteOffset":1440,"componentType":5126,"count":3,"type":"VEC4","name":"accessorAnimationRotations"},{"bufferView":3,"byteOffset":2140,"componentType":5126,"count":67,"max":[3.33333325],"min":[0.0],"type":"SCALAR","name":"accessorAnimationInput"},{"bufferView":5,"byteOffset":5304,"componentType":5126,"count":67,"type":"VEC3","name":"accessorAnimationPositions"},{"bufferView":3,"byteOffset":2408,"componentType":5126,"count":67,"max":[3.33333325],"min":[0.0],"type":"SCALAR","name":"accessorAnimationInput"},{"bufferView":5,"byteOffset":6108,"componentType":5126,"count":67,"type":"VEC3","name":"accessorAnimationPositions"},{"bufferView":3,"byteOffset":2676,"componentType":5126,"count":67,"max":[3.33333325],"min":[0.0],"type":"SCALAR","name":"accessorAnimationInput"},{"bufferView":5,"byteOffset":6912,"componentType":5126,"count":67,"type":"VEC3","name":"accessorAnimationPositions"},{"bufferView":3,"byteOffset":2944,"componentType":5126,"count":67,"max":[3.33333325],"min":[0.0],"type":"SCALAR","name":"accessorAnimationInput"},{"bufferView":5,"byteOffset":7716,"componentType":5126,"count":67,"type":"VEC3","name":"accessorAnimationPositions"},{"bufferView":3,"byteOffset":3212,"componentType":5126,"count":83,"max":[3.33333325],"min":[0.0],"type":"SCALAR","name":"accessorAnimationInput"},{"bufferView":5,"byteOffset":8520,"componentType":5126,"count":83,"type":"VEC3","name":"accessorAnimationPositions"}],"bufferViews":[{"buffer":0,"byteLength":10368,"name":"bufferViewScalar"},{"buffer":0,"byteOffset":10368,"byteLength":124416,"byteStride":12,"name":"bufferViewFloatVec3"},{"buffer":0,"byteOffset":134784,"byteLength":41472,"byteStride":8,"name":"bufferViewFloatVec2"},{"buffer":0,"byteOffset":176256,"byteLength":3544,"name":"bufferViewAnimationFloatScalar"},{"buffer":0,"byteOffset":179800,"byteLength":1488,"name":"bufferViewAnimationFloatVec4"},{"buffer":0,"byteOffset":181288,"byteLength":9516,"name":"bufferViewAnimationFloatVec3"}],"buffers":[{"uri":"creature_news.bin","byteLength":190804}],"materials":[{"pbrMetallicRoughness":{"baseColorTexture":{"index":0},"metallicFactor":0.0,"roughnessFactor":0.7022211},"name":"Material #29"},{"pbrMetallicRoughness":{"baseColorTexture":{"index":1},"metallicFactor":0.0,"roughnessFactor":0.7022211},"name":"Material #27"},{"pbrMetallicRoughness":{"baseColorTexture":{"index":2},"metallicFactor":0.0,"roughnessFactor":0.7022211},"name":"Material #28"},{"pbrMetallicRoughness":{"baseColorTexture":{"index":3},"metallicFactor":0.0,"roughnessFactor":0.450053632},"name":"Material #25"},{"pbrMetallicRoughness":{"baseColorTexture":{"index":4},"metallicFactor":0.0,"roughnessFactor":0.450053632},"name":"Material #26"},{"pbrMetallicRoughness":{"baseColorTexture":{"index":5},"metallicFactor":0.0,"roughnessFactor":0.7022211},"name":"Material #30"}],"textures":[{"sampler":0,"source":0,"name":"red.jpg"},{"sampler":0,"source":1,"name":"green.jpg"},{"sampler":0,"source":2,"name":"yellow.jpg"},{"sampler":0,"source":3,"name":"blue.jpg"},{"sampler":0,"source":4,"name":"white.jpg"},{"sampler":0,"source":5,"name":"black.jpg"}],"images":[{"uri":"../ExTex/red.jpg"},{"uri":"../ExTex/green.jpg"},{"uri":"../ExTex/yellow.jpg"},{"uri":"../ExTex/blue.jpg"},{"uri":"../ExTex/white.jpg"},{"uri":"../ExTex/black.jpg"}],"samplers":[{"magFilter":9729,"minFilter":9987}],"animations":[{"channels":[{"sampler":0,"target":{"node":1,"path":"rotation"}},{"sampler":1,"target":{"node":2,"path":"rotation"}},{"sampler":2,"target":{"node":3,"path":"translation"}},{"sampler":3,"target":{"node":4,"path":"translation"}},{"sampler":4,"target":{"node":4,"path":"rotation"}},{"sampler":5,"target":{"node":5,"path":"translation"}},{"sampler":6,"target":{"node":6,"path":"rotation"}},{"sampler":7,"target":{"node":7,"path":"rotation"}},{"sampler":8,"target":{"node":8,"path":"translation"}},{"sampler":9,"target":{"node":9,"path":"translation"}},{"sampler":10,"target":{"node":9,"path":"rotation"}},{"sampler":11,"target":{"node":10,"path":"translation"}},{"sampler":12,"target":{"node":11,"path":"translation"}},{"sampler":13,"target":{"node":11,"path":"rotation"}},{"sampler":14,"target":{"node":12,"path":"translation"}},{"sampler":15,"target":{"node":13,"path":"translation"}},{"sampler":16,"target":{"node":14,"path":"translation"}},{"sampler":17,"target":{"node":15,"path":"translation"}},{"sampler":18,"target":{"node":16,"path":"translation"}}],"samplers":[{"input":64,"output":65},{"input":66,"output":67},{"input":68,"output":69},{"input":70,"output":71},{"input":72,"output":73},{"input":74,"output":75},{"input":76,"output":77},{"input":78,"output":79},{"input":80,"output":81},{"input":82,"output":83},{"input":84,"output":85},{"input":86,"output":87},{"input":88,"output":89},{"input":90,"output":91},{"input":92,"output":93},{"input":94,"output":95},{"input":96,"output":97},{"input":98,"output":99},{"input":100,"output":101}],"name":"All Animations"}]}